TitilliumWeb-ExtraLightItalic.ufo
<glyph name="exclam" format="2">
  <advance width="207"/>
  <unicode hex="0021"/>
  <outline>
    <contour>
      <point x="135" y="211" type="line"/>
      <point x="163" y="211" type="line"/>
      <point x="281" y="700" type="line"/>
      <point x="248" y="700" type="line"/>
    </contour>
    <contour>
      <point x="89" y="0" type="line"/>
      <point x="125" y="0" type="line"/>
      <point x="144" y="83" type="line"/>
      <point x="108" y="83" type="line"/>
    </contour>
  </outline>
</glyph>
<glyph name="quotedbl" format="2">
  <advance width="317"/>
  <unicode hex="0022"/>
  <outline>
    <contour>
      <point x="184" y="486" type="line"/>
      <point x="217" y="486" type="line"/>
      <point x="267" y="698" type="line"/>
      <point x="232" y="698" type="line"/>
    </contour>
    <contour>
      <point x="323" y="486" type="line"/>
      <point x="356" y="486" type="line"/>
      <point x="406" y="698" type="line"/>
      <point x="371" y="698" type="line"/>
    </contour>
  </outline>
</glyph>
<glyph name="numbersign" format="2">
  <advance width="560"/>
  <unicode hex="0023"/>
  <outline>
    <contour>
      <point x="145" y="0" type="line"/>
      <point x="181" y="0" type="line"/>
      <point x="227" y="190" type="line"/>
      <point x="415" y="190" type="line"/>
      <point x="369" y="0" type="line"/>
      <point x="405" y="0" type="line"/>
      <point x="451" y="190" type="line"/>
      <point x="571" y="190" type="line"/>
      <point x="579" y="222" type="line"/>
      <point x="459" y="222" type="line"/>
      <point x="515" y="448" type="line"/>
      <point x="635" y="448" type="line"/>
      <point x="643" y="480" type="line"/>
      <point x="523" y="480" type="line"/>
      <point x="571" y="670" type="line"/>
      <point x="535" y="670" type="line"/>
      <point x="487" y="480" type="line"/>
      <point x="299" y="480" type="line"/>
      <point x="347" y="670" type="line"/>
      <point x="311" y="670" type="line"/>
      <point x="263" y="480" type="line"/>
      <point x="143" y="480" type="line"/>
      <point x="135" y="448" type="line"/>
      <point x="255" y="448" type="line"/>
      <point x="199" y="222" type="line"/>
      <point x="79" y="222" type="line"/>
      <point x="71" y="190" type="line"/>
      <point x="191" y="190" type="line"/>
    </contour>
    <contour>
      <point x="235" y="222" type="line"/>
      <point x="291" y="448" type="line"/>
      <point x="479" y="448" type="line"/>
      <point x="423" y="222" type="line"/>
    </contour>
  </outline>
</glyph>
<glyph name="dollar" format="2">
  <advance width="560"/>
  <unicode hex="0024"/>
  <outline>
    <contour>
      <point x="178" y="-120" type="line"/>
      <point x="209" y="-120" type="line"/>
      <point x="536" y="790" type="line"/>
      <point x="503" y="790" type="line"/>
    </contour>
    <component base="S" xScale="0.94559" yScale="0.94568" xOffset="43"/>
  </outline>
</glyph>
<glyph name="percent" format="2">
  <advance width="560"/>
  <unicode hex="0025"/>
  <outline>
    <contour>
      <point x="218" y="1" type="line"/>
      <point x="535" y="696" type="line"/>
      <point x="503" y="701" type="line"/>
      <point x="186" y="6" type="line"/>
    </contour>
    <contour>
      <point x="415" y="0" type="curve" smooth="yes"/>
      <point x="475" y="0"/>
      <point x="528" y="42"/>
      <point x="552" y="138" type="curve" smooth="yes"/>
      <point x="576" y="234"/>
      <point x="543" y="272"/>
      <point x="482" y="272" type="curve" smooth="yes"/>
      <point x="420" y="272"/>
      <point x="370" y="234"/>
      <point x="346" y="139" type="curve" smooth="yes"/>
      <point x="322" y="42"/>
      <point x="354" y="0"/>
    </contour>
    <contour>
      <point x="422" y="32" type="curve" smooth="yes"/>
      <point x="373" y="32"/>
      <point x="364" y="70"/>
      <point x="381" y="139" type="curve" smooth="yes"/>
      <point x="398" y="206"/>
      <point x="425" y="240"/>
      <point x="474" y="240" type="curve" smooth="yes"/>
      <point x="524" y="240"/>
      <point x="534" y="206"/>
      <point x="517" y="138" type="curve" smooth="yes"/>
      <point x="500" y="70"/>
      <point x="472" y="32"/>
    </contour>
    <contour>
      <point x="241" y="430" type="curve" smooth="yes"/>
      <point x="301" y="430"/>
      <point x="354" y="472"/>
      <point x="378" y="568" type="curve" smooth="yes"/>
      <point x="402" y="664"/>
      <point x="370" y="702"/>
      <point x="309" y="702" type="curve" smooth="yes"/>
      <point x="247" y="702"/>
      <point x="196" y="664"/>
      <point x="172" y="569" type="curve" smooth="yes"/>
      <point x="148" y="472"/>
      <point x="180" y="430"/>
    </contour>
    <contour>
      <point x="249" y="462" type="curve" smooth="yes"/>
      <point x="200" y="462"/>
      <point x="190" y="501"/>
      <point x="207" y="569" type="curve" smooth="yes"/>
      <point x="224" y="636"/>
      <point x="252" y="670"/>
      <point x="301" y="670" type="curve" smooth="yes"/>
      <point x="351" y="670"/>
      <point x="360" y="636"/>
      <point x="343" y="568" type="curve" smooth="yes"/>
      <point x="326" y="500"/>
      <point x="299" y="462"/>
    </contour>
  </outline>
</glyph>
<glyph name="quotesingle" format="2">
  <advance width="178"/>
  <unicode hex="0027"/>
  <outline>
    <contour>
      <point x="184" y="486" type="line"/>
      <point x="217" y="486" type="line"/>
      <point x="267" y="698" type="line"/>
      <point x="232" y="698" type="line"/>
    </contour>
  </outline>
</glyph>
<glyph name="parenright" format="2">
  <advance width="222"/>
  <unicode hex="0029"/>
  <outline>
    <contour>
      <point x="250" y="754" type="curve"/>
      <point x="217" y="754" type="line"/>
      <point x="223" y="718"/>
      <point x="231" y="633"/>
      <point x="231" y="529" type="curve" smooth="yes"/>
      <point x="231" y="301"/>
      <point x="106" y="26"/>
      <point x="11" y="-118" type="curve"/>
      <point x="46" y="-118" type="line"/>
      <point x="141" y="18"/>
      <point x="266" y="288"/>
      <point x="266" y="529" type="curve" smooth="yes"/>
      <point x="266" y="636"/>
      <point x="257" y="720"/>
    </contour>
  </outline>
</glyph>
<glyph name="period" format="2">
  <advance width="179"/>
  <unicode hex="002E"/>
  <outline>
    <contour>
      <point x="72" y="0" type="line"/>
      <point x="108" y="0" type="line"/>
      <point x="127" y="83" type="line"/>
      <point x="91" y="83" type="line"/>
    </contour>
  </outline>
</glyph>
<glyph name="slash" format="2">
  <advance width="386"/>
  <unicode hex="002F"/>
  <outline>
    <contour>
      <point x="78" y="-1" type="line"/>
      <point x="503" y="686" type="line"/>
      <point x="470" y="700" type="line"/>
      <point x="45" y="12" type="line"/>
    </contour>
  </outline>
</glyph>
<glyph name="one" format="2">
  <advance width="560"/>
  <unicode hex="0031"/>
  <outline>
    <contour>
      <point x="330" y="0" type="line"/>
      <point x="366" y="0" type="line"/>
      <point x="517" y="661" type="line"/>
      <point x="485" y="661" type="line"/>
      <point x="256" y="533" type="line"/>
      <point x="264" y="501" type="line"/>
      <point x="470" y="614" type="line"/>
    </contour>
  </outline>
</glyph>
<glyph name="six" format="2">
  <advance width="560"/>
  <unicode hex="0036"/>
  <outline>
    <contour>
      <point x="297" y="-9" type="curve" smooth="yes"/>
      <point x="462" y="-9"/>
      <point x="560" y="99"/>
      <point x="560" y="256" type="curve" smooth="yes"/>
      <point x="560" y="347"/>
      <point x="504" y="406"/>
      <point x="387" y="406" type="curve" smooth="yes"/>
      <point x="308" y="406"/>
      <point x="221" y="379"/>
      <point x="178" y="358" type="curve"/>
      <point x="208" y="471"/>
      <point x="287" y="637"/>
      <point x="460" y="637" type="curve" smooth="yes"/>
      <point x="516" y="637"/>
      <point x="584" y="627"/>
      <point x="619" y="620" type="curve"/>
      <point x="628" y="651" type="line"/>
      <point x="594" y="659"/>
      <point x="527" y="670"/>
      <point x="469" y="670" type="curve" smooth="yes"/>
      <point x="220" y="670"/>
      <point x="121" y="390"/>
      <point x="121" y="213" type="curve" smooth="yes"/>
      <point x="121" y="72"/>
      <point x="182" y="-9"/>
    </contour>
    <contour>
      <point x="296" y="24" type="curve" smooth="yes"/>
      <point x="203" y="24"/>
      <point x="158" y="93"/>
      <point x="158" y="213" type="curve" smooth="yes"/>
      <point x="158" y="254"/>
      <point x="163" y="305"/>
      <point x="169" y="323" type="curve"/>
      <point x="218" y="345"/>
      <point x="308" y="373"/>
      <point x="377" y="373" type="curve" smooth="yes"/>
      <point x="487" y="373"/>
      <point x="524" y="327"/>
      <point x="524" y="242" type="curve" smooth="yes"/>
      <point x="524" y="127"/>
      <point x="449" y="24"/>
    </contour>
  </outline>
</glyph>
<glyph name="eight" format="2">
  <advance width="560"/>
  <unicode hex="0038"/>
  <outline>
    <contour>
      <point x="270" y="-9" type="curve" smooth="yes"/>
      <point x="549" y="-9"/>
      <point x="568" y="178"/>
      <point x="568" y="220" type="curve" smooth="yes"/>
      <point x="568" y="274"/>
      <point x="550" y="319"/>
      <point x="456" y="348" type="curve"/>
      <point x="578" y="373"/>
      <point x="639" y="465"/>
      <point x="639" y="537" type="curve" smooth="yes"/>
      <point x="639" y="621"/>
      <point x="582" y="670"/>
      <point x="440" y="670" type="curve" smooth="yes"/>
      <point x="229" y="670"/>
      <point x="162" y="559"/>
      <point x="162" y="469" type="curve" smooth="yes"/>
      <point x="162" y="407"/>
      <point x="184" y="375"/>
      <point x="254" y="348" type="curve"/>
      <point x="154" y="312"/>
      <point x="66" y="250"/>
      <point x="66" y="118" type="curve" smooth="yes"/>
      <point x="66" y="20"/>
      <point x="163" y="-9"/>
    </contour>
    <contour>
      <point x="279" y="24" type="curve" smooth="yes"/>
      <point x="165" y="24"/>
      <point x="105" y="62"/>
      <point x="105" y="122" type="curve" smooth="yes"/>
      <point x="105" y="251"/>
      <point x="209" y="307"/>
      <point x="295" y="330" type="curve"/>
      <point x="404" y="330" type="line"/>
      <point x="483" y="309"/>
      <point x="531" y="289"/>
      <point x="531" y="210" type="curve" smooth="yes"/>
      <point x="531" y="147"/>
      <point x="471" y="24"/>
    </contour>
    <contour>
      <point x="303" y="362" type="line"/>
      <point x="222" y="386"/>
      <point x="198" y="423"/>
      <point x="198" y="468" type="curve" smooth="yes"/>
      <point x="198" y="548"/>
      <point x="250" y="637"/>
      <point x="431" y="637" type="curve" smooth="yes"/>
      <point x="551" y="637"/>
      <point x="600" y="605"/>
      <point x="600" y="531" type="curve" smooth="yes"/>
      <point x="600" y="423"/>
      <point x="473" y="373"/>
      <point x="412" y="362" type="curve"/>
    </contour>
  </outline>
</glyph>
<glyph name="less" format="2">
  <advance width="560"/>
  <unicode hex="003C"/>
  <outline>
    <contour>
      <point x="525" y="15" type="line"/>
      <point x="525" y="56" type="line"/>
      <point x="134" y="251" type="line"/>
      <point x="525" y="446" type="line"/>
      <point x="525" y="485" type="line"/>
      <point x="101" y="269" type="line"/>
      <point x="101" y="233" type="line"/>
    </contour>
  </outline>
</glyph>
<glyph name="greater" format="2">
  <advance width="560"/>
  <unicode hex="003E"/>
  <outline>
    <contour>
      <point x="148" y="15" type="line"/>
      <point x="572" y="233" type="line"/>
      <point x="572" y="269" type="line"/>
      <point x="148" y="485" type="line"/>
      <point x="148" y="446" type="line"/>
      <point x="539" y="251" type="line"/>
      <point x="148" y="56" type="line"/>
    </contour>
  </outline>
</glyph>
<glyph name="question" format="2">
  <advance width="403"/>
  <unicode hex="003F"/>
  <outline>
    <contour>
      <point x="189" y="188" type="curve"/>
      <point x="223" y="188" type="line"/>
      <point x="231" y="227" type="line" smooth="yes"/>
      <point x="238" y="263"/>
      <point x="264" y="301"/>
      <point x="319" y="346" type="curve" smooth="yes"/>
      <point x="455" y="457"/>
      <point x="492" y="492"/>
      <point x="492" y="595" type="curve" smooth="yes"/>
      <point x="492" y="678"/>
      <point x="425" y="709"/>
      <point x="340" y="709" type="curve" smooth="yes"/>
      <point x="293" y="709"/>
      <point x="226" y="695"/>
      <point x="189" y="685" type="curve"/>
      <point x="189" y="653" type="line"/>
      <point x="228" y="662"/>
      <point x="295" y="675"/>
      <point x="334" y="675" type="curve" smooth="yes"/>
      <point x="407" y="675"/>
      <point x="454" y="652"/>
      <point x="454" y="595" type="curve" smooth="yes"/>
      <point x="454" y="507"/>
      <point x="419" y="471"/>
      <point x="301" y="375" type="curve" smooth="yes"/>
      <point x="239" y="325"/>
      <point x="205" y="282"/>
      <point x="195" y="231" type="curve" smooth="yes"/>
      <point x="192" y="216"/>
      <point x="190" y="197"/>
    </contour>
    <contour>
      <point x="155" y="1" type="line"/>
      <point x="191" y="1" type="line"/>
      <point x="209" y="83" type="line"/>
      <point x="172" y="83" type="line"/>
    </contour>
  </outline>
</glyph>
<glyph name="A" format="2">
  <advance width="556"/>
  <unicode hex="0041"/>
  <outline>
    <contour>
      <point x="32" y="0" type="line"/>
      <point x="69" y="0" type="line"/>
      <point x="183" y="216" type="line"/>
      <point x="482" y="216" type="line"/>
      <point x="494" y="0" type="line"/>
      <point x="530" y="0" type="line"/>
      <point x="492" y="700" type="line"/>
      <point x="403" y="700" type="line"/>
    </contour>
    <contour>
      <point x="201" y="248" type="line"/>
      <point x="423" y="667" type="line"/>
      <point x="459" y="667" type="line"/>
      <point x="480" y="248" type="line"/>
    </contour>
  </outline>
</glyph>
<glyph name="B" format="2">
  <advance width="580"/>
  <unicode hex="0042"/>
  <outline>
    <contour>
      <point x="86" y="0" type="line"/>
      <point x="313" y="0" type="line" smooth="yes"/>
      <point x="481" y="0"/>
      <point x="575" y="91"/>
      <point x="575" y="243" type="curve" smooth="yes"/>
      <point x="575" y="314"/>
      <point x="536" y="348"/>
      <point x="479" y="363" type="curve"/>
      <point x="552" y="387"/>
      <point x="620" y="461"/>
      <point x="620" y="572" type="curve" smooth="yes"/>
      <point x="620" y="668"/>
      <point x="567" y="700"/>
      <point x="462" y="700" type="curve" smooth="yes"/>
      <point x="247" y="700" type="line"/>
    </contour>
    <contour>
      <point x="130" y="33" type="line"/>
      <point x="201" y="343" type="line"/>
      <point x="388" y="343" type="line" smooth="yes"/>
      <point x="469" y="343"/>
      <point x="537" y="325"/>
      <point x="537" y="242" type="curve" smooth="yes"/>
      <point x="537" y="114"/>
      <point x="460" y="33"/>
      <point x="321" y="33" type="curve" smooth="yes"/>
    </contour>
    <contour>
      <point x="208" y="376" type="line"/>
      <point x="275" y="667" type="line"/>
      <point x="455" y="667" type="line" smooth="yes"/>
      <point x="543" y="667"/>
      <point x="583" y="647"/>
      <point x="583" y="571" type="curve" smooth="yes"/>
      <point x="583" y="465"/>
      <point x="510" y="376"/>
      <point x="396" y="376" type="curve" smooth="yes"/>
    </contour>
  </outline>
</glyph>
<glyph name="C" format="2">
  <advance width="510"/>
  <unicode hex="0043"/>
  <outline>
    <contour>
      <point x="306" y="-9" type="curve" smooth="yes"/>
      <point x="364" y="-9"/>
      <point x="436" y="2"/>
      <point x="473" y="11" type="curve"/>
      <point x="474" y="44" type="line"/>
      <point x="438" y="36"/>
      <point x="369" y="25"/>
      <point x="311" y="25" type="curve" smooth="yes"/>
      <point x="205" y="25"/>
      <point x="159" y="78"/>
      <point x="159" y="190" type="curve" smooth="yes"/>
      <point x="159" y="388"/>
      <point x="261" y="675"/>
      <point x="465" y="675" type="curve" smooth="yes"/>
      <point x="518" y="675"/>
      <point x="587" y="665"/>
      <point x="624" y="658" type="curve"/>
      <point x="632" y="690" type="line"/>
      <point x="595" y="698"/>
      <point x="525" y="709"/>
      <point x="469" y="709" type="curve" smooth="yes"/>
      <point x="232" y="709"/>
      <point x="121" y="403"/>
      <point x="121" y="190" type="curve" smooth="yes"/>
      <point x="121" y="59"/>
      <point x="182" y="-9"/>
    </contour>
  </outline>
</glyph>
<glyph name="D" format="2">
  <advance width="608"/>
  <unicode hex="0044"/>
  <outline>
    <contour>
      <point x="86" y="0" type="line"/>
      <point x="323" y="0" type="line" smooth="yes"/>
      <point x="545" y="0"/>
      <point x="646" y="293"/>
      <point x="646" y="495" type="curve" smooth="yes"/>
      <point x="646" y="632"/>
      <point x="600" y="700"/>
      <point x="476" y="700" type="curve" smooth="yes"/>
      <point x="248" y="700" type="line"/>
    </contour>
    <contour>
      <point x="131" y="33" type="line"/>
      <point x="276" y="667" type="line"/>
      <point x="469" y="667" type="line" smooth="yes"/>
      <point x="572" y="667"/>
      <point x="608" y="612"/>
      <point x="608" y="495" type="curve" smooth="yes"/>
      <point x="608" y="308"/>
      <point x="511" y="33"/>
      <point x="332" y="33" type="curve" smooth="yes"/>
    </contour>
  </outline>
</glyph>
<glyph name="E" format="2">
  <advance width="510"/>
  <unicode hex="0045"/>
  <outline>
    <contour>
      <point x="86" y="0" type="line"/>
      <point x="463" y="0" type="line"/>
      <point x="471" y="33" type="line"/>
      <point x="130" y="33" type="line"/>
      <point x="201" y="343" type="line"/>
      <point x="486" y="343" type="line"/>
      <point x="494" y="376" type="line"/>
      <point x="209" y="376" type="line"/>
      <point x="276" y="667" type="line"/>
      <point x="617" y="667" type="line"/>
      <point x="625" y="700" type="line"/>
      <point x="248" y="700" type="line"/>
    </contour>
  </outline>
</glyph>
<glyph name="F" format="2">
  <advance width="485"/>
  <unicode hex="0046"/>
  <outline>
    <contour>
      <point x="86" y="0" type="line"/>
      <point x="122" y="0" type="line"/>
      <point x="195" y="316" type="line"/>
      <point x="482" y="316" type="line"/>
      <point x="490" y="349" type="line"/>
      <point x="203" y="349" type="line"/>
      <point x="276" y="667" type="line"/>
      <point x="607" y="667" type="line"/>
      <point x="615" y="700" type="line"/>
      <point x="248" y="700" type="line"/>
    </contour>
  </outline>
</glyph>
<glyph name="H" format="2">
  <advance width="626"/>
  <unicode hex="0048"/>
  <outline>
    <contour>
      <point x="86" y="0" type="line"/>
      <point x="122" y="0" type="line"/>
      <point x="199" y="334" type="line"/>
      <point x="581" y="334" type="line"/>
      <point x="504" y="0" type="line"/>
      <point x="540" y="0" type="line"/>
      <point x="702" y="700" type="line"/>
      <point x="666" y="700" type="line"/>
      <point x="589" y="367" type="line"/>
      <point x="207" y="367" type="line"/>
      <point x="284" y="700" type="line"/>
      <point x="248" y="700" type="line"/>
    </contour>
  </outline>
</glyph>
<glyph name="I" format="2">
  <advance width="208"/>
  <unicode hex="0049"/>
  <outline>
    <contour>
      <point x="86" y="0" type="line"/>
      <point x="122" y="0" type="line"/>
      <point x="284" y="700" type="line"/>
      <point x="248" y="700" type="line"/>
    </contour>
  </outline>
</glyph>
<glyph name="J" format="2">
  <advance width="253"/>
  <unicode hex="004A"/>
  <outline>
    <contour>
      <point x="7" y="-71" type="line"/>
      <point x="145" y="-71"/>
      <point x="162" y="-38"/>
      <point x="195" y="107" type="curve" smooth="yes"/>
      <point x="332" y="700" type="line"/>
      <point x="296" y="700" type="line"/>
      <point x="161" y="116" type="line" smooth="yes"/>
      <point x="131" y="-15"/>
      <point x="115" y="-38"/>
      <point x="13" y="-38" type="curve"/>
    </contour>
  </outline>
</glyph>
<glyph name="K" format="2">
  <advance width="508"/>
  <unicode hex="004B"/>
  <outline>
    <contour>
      <point x="86" y="0" type="line"/>
      <point x="122" y="0" type="line"/>
      <point x="198" y="329" type="line"/>
      <point x="314" y="329" type="line"/>
      <point x="448" y="0" type="line"/>
      <point x="486" y="0" type="line"/>
      <point x="344" y="346" type="line"/>
      <point x="648" y="700" type="line"/>
      <point x="605" y="700" type="line"/>
      <point x="315" y="362" type="line"/>
      <point x="205" y="362" type="line"/>
      <point x="284" y="700" type="line"/>
      <point x="248" y="700" type="line"/>
    </contour>
  </outline>
</glyph>
<glyph name="O" format="2">
  <advance width="636"/>
  <unicode hex="004F"/>
  <outline>
    <contour>
      <point x="333" y="-9" type="curve" smooth="yes"/>
      <point x="401" y="-9"/>
      <point x="459" y="15"/>
      <point x="507" y="55" type="curve" smooth="yes"/>
      <point x="619" y="150"/>
      <point x="674" y="334"/>
      <point x="674" y="503" type="curve" smooth="yes"/>
      <point x="674" y="645"/>
      <point x="604" y="709"/>
      <point x="463" y="709" type="curve" smooth="yes"/>
      <point x="393" y="709"/>
      <point x="333" y="681"/>
      <point x="283" y="634" type="curve" smooth="yes"/>
      <point x="179" y="537"/>
      <point x="122" y="360"/>
      <point x="122" y="197" type="curve" smooth="yes"/>
      <point x="122" y="46"/>
      <point x="180" y="-9"/>
    </contour>
    <contour>
      <point x="333" y="24" type="curve" smooth="yes"/>
      <point x="207" y="24"/>
      <point x="159" y="71"/>
      <point x="159" y="196" type="curve" smooth="yes"/>
      <point x="159" y="344"/>
      <point x="218" y="546"/>
      <point x="336" y="633" type="curve" smooth="yes"/>
      <point x="373" y="660"/>
      <point x="415" y="676"/>
      <point x="463" y="676" type="curve" smooth="yes"/>
      <point x="582" y="676"/>
      <point x="636" y="622"/>
      <point x="636" y="504" type="curve" smooth="yes"/>
      <point x="636" y="351"/>
      <point x="585" y="156"/>
      <point x="469" y="69" type="curve" smooth="yes"/>
      <point x="431" y="41"/>
      <point x="386" y="24"/>
    </contour>
  </outline>
</glyph>
<glyph name="P" format="2">
  <advance width="547"/>
  <unicode hex="0050"/>
  <outline>
    <contour>
      <point x="86" y="0" type="line"/>
      <point x="122" y="0" type="line"/>
      <point x="181" y="256" type="line"/>
      <point x="377" y="256" type="line" smooth="yes"/>
      <point x="546" y="256"/>
      <point x="626" y="397"/>
      <point x="626" y="555" type="curve" smooth="yes"/>
      <point x="626" y="649"/>
      <point x="583" y="700"/>
      <point x="481" y="700" type="curve" smooth="yes"/>
      <point x="248" y="700" type="line"/>
    </contour>
    <contour>
      <point x="189" y="290" type="line"/>
      <point x="276" y="666" type="line"/>
      <point x="473" y="666" type="line" smooth="yes"/>
      <point x="556" y="666"/>
      <point x="588" y="628"/>
      <point x="588" y="555" type="curve" smooth="yes"/>
      <point x="588" y="420"/>
      <point x="527" y="290"/>
      <point x="385" y="290" type="curve" smooth="yes"/>
    </contour>
  </outline>
</glyph>
<glyph name="R" format="2">
  <advance width="568"/>
  <unicode hex="0052"/>
  <outline>
    <contour>
      <point x="86" y="0" type="line"/>
      <point x="122" y="0" type="line"/>
      <point x="189" y="288" type="line"/>
      <point x="400" y="288" type="line"/>
      <point x="488" y="0" type="line"/>
      <point x="524" y="0" type="line"/>
      <point x="435" y="292" type="line"/>
      <point x="512" y="306"/>
      <point x="629" y="375"/>
      <point x="629" y="551" type="curve" smooth="yes"/>
      <point x="629" y="661"/>
      <point x="573" y="700"/>
      <point x="470" y="700" type="curve" smooth="yes"/>
      <point x="248" y="700" type="line"/>
    </contour>
    <contour>
      <point x="196" y="321" type="line"/>
      <point x="276" y="667" type="line"/>
      <point x="462" y="667" type="line" smooth="yes"/>
      <point x="550" y="667"/>
      <point x="591" y="639"/>
      <point x="591" y="551" type="curve" smooth="yes"/>
      <point x="591" y="412"/>
      <point x="508" y="321"/>
      <point x="383" y="321" type="curve" smooth="yes"/>
    </contour>
  </outline>
</glyph>
<glyph name="S" format="2">
  <advance width="502"/>
  <unicode hex="0053"/>
  <outline>
    <contour>
      <point x="256" y="-9" type="curve" smooth="yes"/>
      <point x="404" y="-9"/>
      <point x="498" y="85"/>
      <point x="498" y="233" type="curve" smooth="yes"/>
      <point x="498" y="324"/>
      <point x="448" y="350"/>
      <point x="354" y="378" type="curve" smooth="yes"/>
      <point x="256" y="407"/>
      <point x="209" y="423"/>
      <point x="209" y="492" type="curve" smooth="yes"/>
      <point x="209" y="617"/>
      <point x="290" y="676"/>
      <point x="415" y="676" type="curve" smooth="yes"/>
      <point x="466" y="676"/>
      <point x="543" y="666"/>
      <point x="587" y="658" type="curve"/>
      <point x="593" y="688" type="line"/>
      <point x="554" y="697"/>
      <point x="480" y="709"/>
      <point x="422" y="709" type="curve" smooth="yes"/>
      <point x="274" y="709"/>
      <point x="172" y="638"/>
      <point x="172" y="492" type="curve" smooth="yes"/>
      <point x="172" y="399"/>
      <point x="235" y="374"/>
      <point x="339" y="345" type="curve" smooth="yes"/>
      <point x="429" y="320"/>
      <point x="460" y="302"/>
      <point x="460" y="232" type="curve" smooth="yes"/>
      <point x="460" y="107"/>
      <point x="387" y="24"/>
      <point x="262" y="24" type="curve" smooth="yes"/>
      <point x="206" y="24"/>
      <point x="118" y="34"/>
      <point x="67" y="41" type="curve"/>
      <point x="60" y="8" type="line"/>
      <point x="106" y="1"/>
      <point x="192" y="-9"/>
    </contour>
  </outline>
</glyph>
<glyph name="V" format="2">
  <advance width="538"/>
  <unicode hex="0056"/>
  <outline>
    <contour>
      <point x="212" y="0" type="line"/>
      <point x="320" y="0" type="line"/>
      <point x="664" y="700" type="line"/>
      <point x="628" y="700" type="line"/>
      <point x="299" y="33" type="line"/>
      <point x="245" y="33" type="line"/>
      <point x="225" y="700" type="line"/>
      <point x="189" y="700" type="line"/>
    </contour>
  </outline>
</glyph>
<glyph name="X" format="2">
  <advance width="509"/>
  <unicode hex="0058"/>
  <outline>
    <contour>
      <point x="20" y="0" type="line"/>
      <point x="64" y="0" type="line"/>
      <point x="330" y="316" type="line"/>
      <point x="446" y="0" type="line"/>
      <point x="482" y="0" type="line"/>
      <point x="357" y="344" type="line"/>
      <point x="651" y="700" type="line"/>
      <point x="607" y="700" type="line"/>
      <point x="343" y="379" type="line"/>
      <point x="227" y="700" type="line"/>
      <point x="191" y="700" type="line"/>
      <point x="315" y="350" type="line"/>
    </contour>
  </outline>
</glyph>
<glyph name="Y" format="2">
  <advance width="485"/>
  <unicode hex="0059"/>
  <outline>
    <contour>
      <point x="220" y="0" type="line"/>
      <point x="256" y="0" type="line"/>
      <point x="326" y="301" type="line"/>
      <point x="627" y="700" type="line"/>
      <point x="587" y="700" type="line"/>
      <point x="317" y="339" type="line"/>
      <point x="214" y="700" type="line"/>
      <point x="178" y="700" type="line"/>
      <point x="291" y="308" type="line"/>
    </contour>
  </outline>
</glyph>
<glyph name="bracketleft" format="2">
  <advance width="296"/>
  <unicode hex="005B"/>
  <outline>
    <contour>
      <point x="51" y="-122" type="line"/>
      <point x="223" y="-122" type="line"/>
      <point x="232" y="-89" type="line"/>
      <point x="93" y="-89" type="line"/>
      <point x="282" y="714" type="line"/>
      <point x="421" y="714" type="line"/>
      <point x="428" y="747" type="line"/>
      <point x="255" y="747" type="line"/>
    </contour>
  </outline>
</glyph>
<glyph name="backslash" format="2">
  <advance width="387"/>
  <unicode hex="005C"/>
  <outline>
    <contour>
      <point x="320" y="0" type="line"/>
      <point x="358" y="14" type="line"/>
      <point x="228" y="701" type="line"/>
      <point x="190" y="687" type="line"/>
    </contour>
  </outline>
</glyph>
<glyph name="asciicircum" format="2">
  <advance width="560"/>
  <unicode hex="005E"/>
  <outline>
    <contour>
      <point x="157" y="323" type="line"/>
      <point x="197" y="323" type="line"/>
      <point x="355" y="624" type="line"/>
      <point x="522" y="323" type="line"/>
      <point x="562" y="323" type="line"/>
      <point x="373" y="660" type="line"/>
      <point x="337" y="660" type="line"/>
    </contour>
  </outline>
</glyph>
<glyph name="underscore" format="2">
  <advance width="643"/>
  <unicode hex="005F"/>
  <outline>
    <contour>
      <point x="71" y="-117" type="line"/>
      <point x="518" y="-117" type="line"/>
      <point x="528" y="-79" type="line"/>
      <point x="79" y="-79" type="line"/>
    </contour>
  </outline>
</glyph>
<glyph name="b" format="2">
  <advance width="481"/>
  <unicode hex="0062"/>
  <outline>
    <contour>
      <point x="250" y="-9" type="curve" smooth="yes"/>
      <point x="440" y="-9"/>
      <point x="501" y="266"/>
      <point x="501" y="363" type="curve" smooth="yes"/>
      <point x="501" y="451"/>
      <point x="480" y="509"/>
      <point x="378" y="509" type="curve" smooth="yes"/>
      <point x="313" y="509"/>
      <point x="241" y="456"/>
      <point x="204" y="416" type="curve"/>
      <point x="277" y="730" type="line"/>
      <point x="242" y="730" type="line"/>
      <point x="76" y="11" type="line"/>
      <point x="123" y="2"/>
      <point x="203" y="-9"/>
    </contour>
    <contour>
      <point x="249" y="23" type="curve" smooth="yes"/>
      <point x="215" y="23"/>
      <point x="154" y="32"/>
      <point x="117" y="38" type="curve"/>
      <point x="193" y="367" type="line"/>
      <point x="236" y="414"/>
      <point x="313" y="476"/>
      <point x="368" y="476" type="curve" smooth="yes"/>
      <point x="453" y="476"/>
      <point x="464" y="430"/>
      <point x="464" y="363" type="curve" smooth="yes"/>
      <point x="464" y="290"/>
      <point x="413" y="23"/>
    </contour>
  </outline>
</glyph>
<glyph name="c" format="2">
  <advance width="403"/>
  <unicode hex="0063"/>
  <outline>
    <contour>
      <point x="249" y="-9" type="curve" smooth="yes"/>
      <point x="290" y="-9"/>
      <point x="343" y="2"/>
      <point x="372" y="10" type="curve"/>
      <point x="372" y="42" type="line"/>
      <point x="338" y="34"/>
      <point x="284" y="23"/>
      <point x="257" y="23" type="curve" smooth="yes"/>
      <point x="169" y="23"/>
      <point x="136" y="62"/>
      <point x="136" y="132" type="curve" smooth="yes"/>
      <point x="136" y="304"/>
      <point x="206" y="477"/>
      <point x="363" y="477" type="curve" smooth="yes"/>
      <point x="394" y="477"/>
      <point x="438" y="471"/>
      <point x="463" y="467" type="curve"/>
      <point x="472" y="498" type="line"/>
      <point x="446" y="503"/>
      <point x="399" y="509"/>
      <point x="363" y="509" type="curve" smooth="yes"/>
      <point x="182" y="509"/>
      <point x="99" y="319"/>
      <point x="99" y="129" type="curve" smooth="yes"/>
      <point x="99" y="41"/>
      <point x="143" y="-9"/>
    </contour>
  </outline>
</glyph>
<glyph name="d" format="2">
  <advance width="481"/>
  <unicode hex="0064"/>
  <outline>
    <contour>
      <point x="209" y="-9" type="curve" smooth="yes"/>
      <point x="282" y="-9"/>
      <point x="360" y="61"/>
      <point x="399" y="114" type="curve"/>
      <point x="373" y="0" type="line"/>
      <point x="407" y="0" type="line"/>
      <point x="576" y="730" type="line"/>
      <point x="541" y="730" type="line"/>
      <point x="486" y="493" type="line"/>
      <point x="455" y="500"/>
      <point x="394" y="509"/>
      <point x="343" y="509" type="curve" smooth="yes"/>
      <point x="187" y="509"/>
      <point x="95" y="290"/>
      <point x="95" y="117" type="curve" smooth="yes"/>
      <point x="95" y="30"/>
      <point x="135" y="-9"/>
    </contour>
    <contour>
      <point x="219" y="23" type="curve" smooth="yes"/>
      <point x="160" y="23"/>
      <point x="132" y="55"/>
      <point x="132" y="117" type="curve" smooth="yes"/>
      <point x="132" y="264"/>
      <point x="206" y="477"/>
      <point x="343" y="477" type="curve" smooth="yes"/>
      <point x="391" y="477"/>
      <point x="449" y="468"/>
      <point x="479" y="462" type="curve"/>
      <point x="412" y="172" type="line"/>
      <point x="366" y="108"/>
      <point x="283" y="23"/>
    </contour>
  </outline>
</glyph>
<glyph name="e" format="2">
  <advance width="452"/>
  <unicode hex="0065"/>
  <outline>
    <contour>
      <point x="237" y="-9" type="curve" smooth="yes"/>
      <point x="300" y="-9"/>
      <point x="372" y="8"/>
      <point x="409" y="21" type="curve"/>
      <point x="409" y="54" type="line"/>
      <point x="372" y="42"/>
      <point x="301" y="25"/>
      <point x="245" y="25" type="curve" smooth="yes"/>
      <point x="177" y="25"/>
      <point x="134" y="65"/>
      <point x="134" y="138" type="curve" smooth="yes"/>
      <point x="134" y="168"/>
      <point x="140" y="214"/>
      <point x="149" y="250" type="curve"/>
      <point x="212" y="250" type="line" smooth="yes"/>
      <point x="396" y="250"/>
      <point x="494" y="288"/>
      <point x="494" y="406" type="curve" smooth="yes"/>
      <point x="494" y="478"/>
      <point x="442" y="509"/>
      <point x="364" y="509" type="curve" smooth="yes"/>
      <point x="181" y="509"/>
      <point x="97" y="298"/>
      <point x="97" y="131" type="curve" smooth="yes"/>
      <point x="97" y="39"/>
      <point x="154" y="-9"/>
    </contour>
    <contour>
      <point x="156" y="282" type="line"/>
      <point x="191" y="394"/>
      <point x="251" y="477"/>
      <point x="363" y="477" type="curve" smooth="yes"/>
      <point x="424" y="477"/>
      <point x="458" y="457"/>
      <point x="458" y="405" type="curve" smooth="yes"/>
      <point x="458" y="307"/>
      <point x="376" y="282"/>
      <point x="221" y="282" type="curve" smooth="yes"/>
    </contour>
  </outline>
</glyph>
<glyph name="g" format="2">
  <advance width="458"/>
  <unicode hex="0067"/>
  <outline>
    <contour>
      <point x="177" y="-239" type="curve" smooth="yes"/>
      <point x="337" y="-239"/>
      <point x="433" y="-149"/>
      <point x="433" y="-62" type="curve" smooth="yes"/>
      <point x="433" y="7"/>
      <point x="400" y="38"/>
      <point x="276" y="52" type="curve" smooth="yes"/>
      <point x="207" y="60"/>
      <point x="185" y="67"/>
      <point x="185" y="94" type="curve" smooth="yes"/>
      <point x="185" y="118"/>
      <point x="208" y="157"/>
      <point x="226" y="180" type="curve"/>
      <point x="234" y="179"/>
      <point x="247" y="178"/>
      <point x="252" y="178" type="curve" smooth="yes"/>
      <point x="405" y="178"/>
      <point x="464" y="303"/>
      <point x="464" y="385" type="curve" smooth="yes"/>
      <point x="464" y="424"/>
      <point x="453" y="447"/>
      <point x="439" y="465" type="curve"/>
      <point x="549" y="465" type="line"/>
      <point x="557" y="500" type="line"/>
      <point x="408" y="494" type="line"/>
      <point x="397" y="500"/>
      <point x="368" y="509"/>
      <point x="329" y="509" type="curve" smooth="yes"/>
      <point x="197" y="509"/>
      <point x="131" y="390"/>
      <point x="131" y="304" type="curve" smooth="yes"/>
      <point x="131" y="247"/>
      <point x="154" y="207"/>
      <point x="201" y="188" type="curve"/>
      <point x="179" y="165"/>
      <point x="150" y="122"/>
      <point x="150" y="90" type="curve" smooth="yes"/>
      <point x="150" y="73"/>
      <point x="156" y="59"/>
      <point x="163" y="53" type="curve"/>
      <point x="104" y="21"/>
      <point x="24" y="-32"/>
      <point x="24" y="-112" type="curve" smooth="yes"/>
      <point x="24" y="-184"/>
      <point x="81" y="-239"/>
    </contour>
    <contour>
      <point x="185" y="-207" type="curve" smooth="yes"/>
      <point x="103" y="-207"/>
      <point x="61" y="-164"/>
      <point x="61" y="-105" type="curve" smooth="yes"/>
      <point x="61" y="-48"/>
      <point x="129" y="4"/>
      <point x="189" y="34" type="curve"/>
      <point x="201" y="29"/>
      <point x="227" y="22"/>
      <point x="278" y="17" type="curve" smooth="yes"/>
      <point x="366" y="8"/>
      <point x="396" y="-10"/>
      <point x="396" y="-62" type="curve" smooth="yes"/>
      <point x="396" y="-146"/>
      <point x="299" y="-207"/>
    </contour>
    <contour>
      <point x="260" y="210" type="curve" smooth="yes"/>
      <point x="189" y="210"/>
      <point x="167" y="250"/>
      <point x="167" y="306" type="curve" smooth="yes"/>
      <point x="167" y="374"/>
      <point x="221" y="477"/>
      <point x="325" y="477" type="curve" smooth="yes"/>
      <point x="402" y="477"/>
      <point x="428" y="442"/>
      <point x="428" y="374" type="curve" smooth="yes"/>
      <point x="428" y="319"/>
      <point x="382" y="210"/>
    </contour>
  </outline>
</glyph>
<glyph name="i" format="2">
  <advance width="182"/>
  <unicode hex="0069"/>
  <outline>
    <contour>
      <point x="73" y="0" type="line"/>
      <point x="108" y="0" type="line"/>
      <point x="224" y="500" type="line"/>
      <point x="189" y="500" type="line"/>
    </contour>
    <contour>
      <point x="220" y="638" type="line"/>
      <point x="256" y="638" type="line"/>
      <point x="270" y="698" type="line"/>
      <point x="234" y="698" type="line"/>
    </contour>
  </outline>
</glyph>
<glyph name="k" format="2">
  <advance width="431"/>
  <unicode hex="006B"/>
  <outline>
    <contour>
      <point x="74" y="0" type="line"/>
      <point x="109" y="0" type="line"/>
      <point x="169" y="261" type="line"/>
      <point x="253" y="261" type="line"/>
      <point x="362" y="0" type="line"/>
      <point x="401" y="0" type="line"/>
      <point x="288" y="274" type="line"/>
      <point x="524" y="500" type="line"/>
      <point x="478" y="500" type="line"/>
      <point x="261" y="293" type="line"/>
      <point x="177" y="293" type="line"/>
      <point x="278" y="730" type="line"/>
      <point x="243" y="730" type="line"/>
    </contour>
  </outline>
</glyph>
<glyph name="n" format="2">
  <advance width="488"/>
  <unicode hex="006E"/>
  <outline>
    <contour>
      <point x="73" y="0" type="line"/>
      <point x="108" y="0" type="line"/>
      <point x="185" y="330" type="line"/>
      <point x="229" y="393"/>
      <point x="312" y="476"/>
      <point x="377" y="476" type="curve" smooth="yes"/>
      <point x="433" y="476"/>
      <point x="463" y="444"/>
      <point x="463" y="390" type="curve" smooth="yes"/>
      <point x="463" y="348"/>
      <point x="453" y="295"/>
      <point x="444" y="258" type="curve" smooth="yes"/>
      <point x="384" y="0" type="line"/>
      <point x="418" y="0" type="line"/>
      <point x="479" y="260" type="line" smooth="yes"/>
      <point x="488" y="300"/>
      <point x="498" y="347"/>
      <point x="498" y="393" type="curve" smooth="yes"/>
      <point x="498" y="465"/>
      <point x="455" y="509"/>
      <point x="383" y="509" type="curve" smooth="yes"/>
      <point x="311" y="509"/>
      <point x="235" y="439"/>
      <point x="198" y="387" type="curve"/>
      <point x="224" y="500" type="line"/>
      <point x="189" y="500" type="line"/>
    </contour>
  </outline>
</glyph>
<glyph name="o" format="2">
  <advance width="493"/>
  <unicode hex="006F"/>
  <outline>
    <contour>
      <point x="252" y="-9" type="curve" smooth="yes"/>
      <point x="405" y="-9"/>
      <point x="507" y="150"/>
      <point x="507" y="352" type="curve" smooth="yes"/>
      <point x="507" y="454"/>
      <point x="454" y="509"/>
      <point x="349" y="509" type="curve" smooth="yes"/>
      <point x="207" y="509"/>
      <point x="99" y="346"/>
      <point x="99" y="139" type="curve" smooth="yes"/>
      <point x="99" y="37"/>
      <point x="150" y="-9"/>
    </contour>
    <contour>
      <point x="252" y="23" type="curve" smooth="yes"/>
      <point x="173" y="23"/>
      <point x="135" y="64"/>
      <point x="135" y="139" type="curve" smooth="yes"/>
      <point x="135" y="319"/>
      <point x="222" y="477"/>
      <point x="349" y="477" type="curve" smooth="yes"/>
      <point x="433" y="477"/>
      <point x="471" y="425"/>
      <point x="471" y="352" type="curve" smooth="yes"/>
      <point x="471" y="172"/>
      <point x="384" y="23"/>
    </contour>
  </outline>
</glyph>
<glyph name="p" format="2">
  <advance width="480"/>
  <unicode hex="0070"/>
  <outline>
    <contour>
      <point x="20" y="-230" type="line"/>
      <point x="55" y="-230" type="line"/>
      <point x="110" y="8" type="line"/>
      <point x="142" y="1"/>
      <point x="203" y="-9"/>
      <point x="253" y="-9" type="curve" smooth="yes"/>
      <point x="412" y="-9"/>
      <point x="501" y="217"/>
      <point x="501" y="377" type="curve" smooth="yes"/>
      <point x="501" y="465"/>
      <point x="464" y="509"/>
      <point x="381" y="509" type="curve" smooth="yes"/>
      <point x="312" y="509"/>
      <point x="236" y="439"/>
      <point x="197" y="386" type="curve"/>
      <point x="223" y="500" type="line"/>
      <point x="189" y="500" type="line"/>
    </contour>
    <contour>
      <point x="253" y="23" type="curve" smooth="yes"/>
      <point x="205" y="23"/>
      <point x="147" y="32"/>
      <point x="117" y="39" type="curve"/>
      <point x="184" y="328" type="line"/>
      <point x="230" y="392"/>
      <point x="314" y="476"/>
      <point x="374" y="476" type="curve" smooth="yes"/>
      <point x="437" y="476"/>
      <point x="464" y="445"/>
      <point x="464" y="377" type="curve" smooth="yes"/>
      <point x="464" y="242"/>
      <point x="392" y="23"/>
    </contour>
  </outline>
</glyph>
<glyph name="s" format="2">
  <advance width="427"/>
  <unicode hex="0073"/>
  <outline>
    <contour>
      <point x="203" y="-9" type="curve" smooth="yes"/>
      <point x="318" y="-9"/>
      <point x="415" y="50"/>
      <point x="415" y="168" type="curve" smooth="yes"/>
      <point x="415" y="239"/>
      <point x="367" y="255"/>
      <point x="276" y="275" type="curve" smooth="yes"/>
      <point x="191" y="294"/>
      <point x="170" y="307"/>
      <point x="170" y="348" type="curve" smooth="yes"/>
      <point x="170" y="416"/>
      <point x="228" y="477"/>
      <point x="317" y="477" type="curve" smooth="yes"/>
      <point x="364" y="477"/>
      <point x="432" y="470"/>
      <point x="470" y="464" type="curve"/>
      <point x="479" y="495" type="line"/>
      <point x="439" y="501"/>
      <point x="370" y="509"/>
      <point x="324" y="509" type="curve" smooth="yes"/>
      <point x="209" y="509"/>
      <point x="134" y="434"/>
      <point x="134" y="342" type="curve" smooth="yes"/>
      <point x="134" y="278"/>
      <point x="178" y="261"/>
      <point x="261" y="243" type="curve" smooth="yes"/>
      <point x="347" y="224"/>
      <point x="379" y="215"/>
      <point x="379" y="161" type="curve" smooth="yes"/>
      <point x="379" y="65"/>
      <point x="298" y="23"/>
      <point x="208" y="23" type="curve" smooth="yes"/>
      <point x="166" y="23"/>
      <point x="100" y="32"/>
      <point x="61" y="39" type="curve"/>
      <point x="54" y="7" type="line"/>
      <point x="90" y="0"/>
      <point x="156" y="-9"/>
    </contour>
  </outline>
</glyph>
<glyph name="z" format="2">
  <advance width="420"/>
  <unicode hex="007A"/>
  <outline>
    <contour>
      <point x="41" y="0" type="line"/>
      <point x="380" y="0" type="line"/>
      <point x="387" y="32" type="line"/>
      <point x="90" y="32" type="line"/>
      <point x="490" y="468" type="line"/>
      <point x="495" y="500" type="line"/>
      <point x="156" y="500" type="line"/>
      <point x="148" y="468" type="line"/>
      <point x="444" y="468" type="line"/>
      <point x="44" y="32" type="line"/>
    </contour>
  </outline>
</glyph>
<glyph name="bar" format="2">
  <advance width="296"/>
  <unicode hex="007C"/>
  <outline>
    <contour>
      <point x="188" y="-230" type="line"/>
      <point x="223" y="-230" type="line"/>
      <point x="223" y="730" type="line"/>
      <point x="188" y="730" type="line"/>
    </contour>
  </outline>
</glyph>
<glyph name="braceright" format="2">
  <advance width="329"/>
  <unicode hex="007D"/>
  <outline>
    <contour>
      <point x="217" y="746" type="curve"/>
      <point x="207" y="710" type="line"/>
      <point x="282" y="710"/>
      <point x="316" y="683"/>
      <point x="316" y="627" type="curve" smooth="yes"/>
      <point x="316" y="566"/>
      <point x="266" y="441"/>
      <point x="266" y="399" type="curve" smooth="yes"/>
      <point x="266" y="347"/>
      <point x="296" y="324"/>
      <point x="330" y="312" type="curve"/>
      <point x="258" y="289"/>
      <point x="227" y="258"/>
      <point x="208" y="170" type="curve" smooth="yes"/>
      <point x="205" y="158"/>
      <point x="191" y="74"/>
      <point x="187" y="55" type="curve" smooth="yes"/>
      <point x="168" y="-37"/>
      <point x="126" y="-85"/>
      <point x="17" y="-90" type="curve"/>
      <point x="11" y="-126" type="line"/>
      <point x="125" y="-121"/>
      <point x="179" y="-74"/>
      <point x="212" y="27" type="curve" smooth="yes"/>
      <point x="223" y="60"/>
      <point x="236" y="143"/>
      <point x="240" y="162" type="curve" smooth="yes"/>
      <point x="255" y="238"/>
      <point x="277" y="271"/>
      <point x="369" y="296" type="curve"/>
      <point x="377" y="331" type="line"/>
      <point x="327" y="344"/>
      <point x="301" y="362"/>
      <point x="301" y="410" type="curve" smooth="yes"/>
      <point x="301" y="446"/>
      <point x="351" y="574"/>
      <point x="351" y="637" type="curve" smooth="yes"/>
      <point x="351" y="707"/>
      <point x="311" y="742"/>
    </contour>
  </outline>
</glyph>
<glyph name="asciitilde" format="2">
  <advance width="560"/>
  <unicode hex="007E"/>
  <outline>
    <contour>
      <point x="441" y="212" type="curve" smooth="yes"/>
      <point x="478" y="212"/>
      <point x="526" y="243"/>
      <point x="553" y="267" type="curve"/>
      <point x="542" y="298" type="line" name="hr00"/>
      <point x="514" y="276"/>
      <point x="466" y="246"/>
      <point x="440" y="246" type="curve" smooth="yes"/>
      <point x="398" y="246"/>
      <point x="297" y="319"/>
      <point x="243" y="319" type="curve" smooth="yes"/>
      <point x="207" y="319"/>
      <point x="158" y="288"/>
      <point x="131" y="265" type="curve"/>
      <point x="142" y="233" type="line"/>
      <point x="170" y="255"/>
      <point x="218" y="285"/>
      <point x="244" y="285" type="curve" smooth="yes"/>
      <point x="286" y="285"/>
      <point x="387" y="212"/>
    </contour>
  </outline>
</glyph>
<glyph name="cent" format="2">
  <advance width="560"/>
  <unicode hex="00A2"/>
  <outline>
    <contour>
      <point x="261" y="-84" type="line" name="hr00"/>
      <point x="295" y="-84" type="line"/>
      <point x="325" y="43" type="line"/>
      <point x="355" y="42"/>
      <point x="406" y="47"/>
      <point x="437" y="50" type="curve"/>
      <point x="446" y="84" type="line"/>
      <point x="408" y="81"/>
      <point x="345" y="76"/>
      <point x="312" y="76" type="curve" smooth="yes"/>
      <point x="184" y="76"/>
      <point x="190" y="155"/>
      <point x="213" y="247" type="curve" smooth="yes"/>
      <point x="239" y="353"/>
      <point x="300" y="425"/>
      <point x="394" y="425" type="curve" smooth="yes"/>
      <point x="420" y="425"/>
      <point x="481" y="419"/>
      <point x="519" y="415" type="curve"/>
      <point x="529" y="450" type="line"/>
      <point x="524" y="451"/>
      <point x="443" y="459"/>
      <point x="422" y="460" type="curve"/>
      <point x="453" y="590" type="line"/>
      <point x="420" y="590" type="line"/>
      <point x="389" y="459" type="line"/>
      <point x="287" y="457"/>
      <point x="211" y="386"/>
      <point x="175" y="247" type="curve" smooth="yes"/>
      <point x="148" y="143"/>
      <point x="153" y="41"/>
      <point x="291" y="41" type="curve"/>
    </contour>
  </outline>
</glyph>
<glyph name="sterling" format="2">
  <advance width="560"/>
  <unicode hex="00A3"/>
  <outline>
    <contour>
      <point x="83" y="0" type="line"/>
      <point x="393" y="0" type="line"/>
      <point x="474" y="18" type="line"/>
      <point x="474" y="49" type="line"/>
      <point x="393" y="33" type="line"/>
      <point x="224" y="33" type="line"/>
      <point x="300" y="373" type="line"/>
      <point x="519" y="373" type="line"/>
      <point x="527" y="406" type="line"/>
      <point x="308" y="406" type="line"/>
      <point x="322" y="464" type="line" smooth="yes"/>
      <point x="348" y="571"/>
      <point x="365" y="646"/>
      <point x="460" y="646" type="curve" smooth="yes"/>
      <point x="500" y="646"/>
      <point x="557" y="641"/>
      <point x="589" y="638" type="curve"/>
      <point x="596" y="668" type="line"/>
      <point x="565" y="673"/>
      <point x="508" y="679"/>
      <point x="468" y="679" type="curve" smooth="yes"/>
      <point x="343" y="679"/>
      <point x="315" y="593"/>
      <point x="286" y="468" type="curve" smooth="yes"/>
      <point x="272" y="406" type="line"/>
      <point x="200" y="406" type="line"/>
      <point x="192" y="373" type="line"/>
      <point x="264" y="373" type="line"/>
      <point x="187" y="33" type="line"/>
      <point x="91" y="33" type="line"/>
    </contour>
  </outline>
</glyph>
<glyph name="yen" format="2">
  <advance width="560"/>
  <unicode hex="00A5"/>
  <outline>
    <contour>
      <point x="259" y="0" type="line"/>
      <point x="294" y="0" type="line"/>
      <point x="337" y="183" type="line"/>
      <point x="527" y="183" type="line"/>
      <point x="535" y="216" type="line"/>
      <point x="345" y="216" type="line"/>
      <point x="367" y="312" type="line"/>
      <point x="384" y="332" type="line"/>
      <point x="562" y="332" type="line"/>
      <point x="569" y="365" type="line"/>
      <point x="412" y="365" type="line"/>
      <point x="668" y="661" type="line"/>
      <point x="622" y="661" type="line"/>
      <point x="356" y="350" type="line"/>
      <point x="233" y="661" type="line"/>
      <point x="195" y="661" type="line"/>
      <point x="313" y="365" type="line"/>
      <point x="151" y="365" type="line"/>
      <point x="143" y="332" type="line"/>
      <point x="326" y="332" type="line"/>
      <point x="331" y="314" type="line"/>
      <point x="308" y="216" type="line"/>
      <point x="116" y="216" type="line"/>
      <point x="108" y="183" type="line"/>
      <point x="301" y="183" type="line"/>
    </contour>
  </outline>
</glyph>
<glyph name="copyright" format="2">
  <advance width="646"/>
  <unicode hex="00A9"/>
  <outline>
    <contour>
      <point x="423" y="169" type="curve" smooth="yes"/>
      <point x="570" y="169"/>
      <point x="679" y="287"/>
      <point x="679" y="434" type="curve" smooth="yes"/>
      <point x="679" y="581"/>
      <point x="570" y="700"/>
      <point x="423" y="700" type="curve" smooth="yes"/>
      <point x="276" y="700"/>
      <point x="168" y="581"/>
      <point x="168" y="434" type="curve" smooth="yes"/>
      <point x="168" y="287"/>
      <point x="276" y="169"/>
    </contour>
    <contour>
      <point x="423" y="281" type="curve" smooth="yes"/>
      <point x="446" y="281"/>
      <point x="479" y="286"/>
      <point x="497" y="289" type="curve"/>
      <point x="496" y="321" type="line"/>
      <point x="477" y="318"/>
      <point x="443" y="313"/>
      <point x="423" y="313" type="curve" smooth="yes"/>
      <point x="359" y="313"/>
      <point x="346" y="357"/>
      <point x="346" y="433" type="curve" smooth="yes"/>
      <point x="346" y="510"/>
      <point x="353" y="555"/>
      <point x="423" y="555" type="curve" smooth="yes"/>
      <point x="446" y="555"/>
      <point x="478" y="551"/>
      <point x="496" y="548" type="curve"/>
      <point x="497" y="580" type="line"/>
      <point x="482" y="583"/>
      <point x="451" y="587"/>
      <point x="423" y="587" type="curve" smooth="yes"/>
      <point x="333" y="587"/>
      <point x="314" y="524"/>
      <point x="314" y="433" type="curve" smooth="yes"/>
      <point x="314" y="342"/>
      <point x="335" y="281"/>
    </contour>
    <contour>
      <point x="423" y="201" type="curve" smooth="yes"/>
      <point x="294" y="201"/>
      <point x="200" y="305"/>
      <point x="200" y="434" type="curve" smooth="yes"/>
      <point x="200" y="563"/>
      <point x="294" y="668"/>
      <point x="423" y="668" type="curve" smooth="yes"/>
      <point x="552" y="668"/>
      <point x="647" y="563"/>
      <point x="647" y="434" type="curve" smooth="yes"/>
      <point x="647" y="305"/>
      <point x="552" y="201"/>
    </contour>
  </outline>
</glyph>
<glyph name="ordfeminine" format="2">
  <advance width="354"/>
  <unicode hex="00AA"/>
  <outline>
    <contour>
      <point x="388" y="386" type="curve"/>
      <point x="398" y="415" type="line"/>
      <point x="384" y="418"/>
      <point x="371" y="424"/>
      <point x="366" y="437" type="curve"/>
      <point x="398" y="570" type="line" smooth="yes"/>
      <point x="413" y="633"/>
      <point x="391" y="660"/>
      <point x="333" y="660" type="curve" smooth="yes"/>
      <point x="307" y="660"/>
      <point x="257" y="655"/>
      <point x="226" y="652" type="curve"/>
      <point x="226" y="622" type="line"/>
      <point x="256" y="625"/>
      <point x="304" y="630"/>
      <point x="331" y="630" type="curve" smooth="yes"/>
      <point x="370" y="630"/>
      <point x="378" y="619"/>
      <point x="368" y="574" type="curve" smooth="yes"/>
      <point x="336" y="433" type="line"/>
      <point x="345" y="407"/>
      <point x="356" y="393"/>
    </contour>
    <contour>
      <point x="220" y="387" type="curve" smooth="yes"/>
      <point x="263" y="387"/>
      <point x="321" y="400"/>
      <point x="352" y="410" type="curve"/>
      <point x="346" y="440" type="line"/>
      <point x="317" y="431"/>
      <point x="263" y="417"/>
      <point x="221" y="417" type="curve" smooth="yes"/>
      <point x="199" y="417"/>
      <point x="189" y="433"/>
      <point x="196" y="464" type="curve" smooth="yes"/>
      <point x="203" y="497"/>
      <point x="220" y="511"/>
      <point x="255" y="513" type="curve" smooth="yes"/>
      <point x="357" y="520" type="line"/>
      <point x="362" y="550" type="line"/>
      <point x="257" y="543" type="line" smooth="yes"/>
      <point x="206" y="540"/>
      <point x="178" y="517"/>
      <point x="167" y="470" type="curve" smooth="yes"/>
      <point x="155" y="420"/>
      <point x="178" y="387"/>
    </contour>
  </outline>
</glyph>
<glyph name="registered" format="2">
  <advance width="646"/>
  <unicode hex="00AE"/>
  <outline>
    <contour>
      <point x="423" y="169" type="curve" smooth="yes"/>
      <point x="570" y="169"/>
      <point x="679" y="287"/>
      <point x="679" y="434" type="curve" smooth="yes"/>
      <point x="679" y="581"/>
      <point x="570" y="700"/>
      <point x="423" y="700" type="curve" smooth="yes"/>
      <point x="276" y="700"/>
      <point x="168" y="581"/>
      <point x="168" y="434" type="curve" smooth="yes"/>
      <point x="168" y="287"/>
      <point x="276" y="169"/>
    </contour>
    <contour>
      <point x="423" y="201" type="curve" smooth="yes"/>
      <point x="294" y="201"/>
      <point x="200" y="305"/>
      <point x="200" y="434" type="curve" smooth="yes"/>
      <point x="200" y="563"/>
      <point x="294" y="668"/>
      <point x="423" y="668" type="curve" smooth="yes"/>
      <point x="552" y="668"/>
      <point x="647" y="563"/>
      <point x="647" y="434" type="curve" smooth="yes"/>
      <point x="647" y="305"/>
      <point x="552" y="201"/>
    </contour>
    <contour>
      <point x="321" y="286" type="line"/>
      <point x="353" y="286" type="line"/>
      <point x="353" y="402" type="line"/>
      <point x="434" y="402" type="line"/>
      <point x="497" y="286" type="line"/>
      <point x="533" y="286" type="line"/>
      <point x="468" y="405" type="line"/>
      <point x="512" y="416"/>
      <point x="527" y="445"/>
      <point x="527" y="492" type="curve" smooth="yes"/>
      <point x="527" y="560"/>
      <point x="490" y="581"/>
      <point x="414" y="581" type="curve" smooth="yes"/>
      <point x="321" y="581" type="line"/>
    </contour>
    <contour>
      <point x="353" y="433" type="line"/>
      <point x="353" y="550" type="line"/>
      <point x="415" y="550" type="line" smooth="yes"/>
      <point x="469" y="550"/>
      <point x="495" y="537"/>
      <point x="495" y="492" type="curve" smooth="yes"/>
      <point x="495" y="447"/>
      <point x="477" y="433"/>
      <point x="433" y="433" type="curve" smooth="yes"/>
    </contour>
  </outline>
</glyph>
<glyph name="degree" format="2">
  <advance width="560"/>
  <unicode hex="00B0"/>
  <outline>
    <contour>
      <point x="411" y="438" type="curve" smooth="yes"/>
      <point x="492" y="438"/>
      <point x="547" y="492"/>
      <point x="547" y="573" type="curve" smooth="yes"/>
      <point x="547" y="654"/>
      <point x="492" y="709"/>
      <point x="411" y="709" type="curve" smooth="yes"/>
      <point x="330" y="709"/>
      <point x="275" y="654"/>
      <point x="275" y="573" type="curve" smooth="yes"/>
      <point x="275" y="492"/>
      <point x="330" y="438"/>
    </contour>
    <contour>
      <point x="411" y="470" type="curve" smooth="yes"/>
      <point x="349" y="470"/>
      <point x="309" y="511"/>
      <point x="309" y="573" type="curve" smooth="yes"/>
      <point x="309" y="635"/>
      <point x="349" y="677"/>
      <point x="411" y="677" type="curve" smooth="yes"/>
      <point x="473" y="677"/>
      <point x="515" y="635"/>
      <point x="515" y="573" type="curve" smooth="yes"/>
      <point x="515" y="511"/>
      <point x="473" y="470"/>
    </contour>
  </outline>
</glyph>
<glyph name="plusminus" format="2">
  <advance width="560"/>
  <unicode hex="00B1"/>
  <outline>
    <contour>
      <point x="307" y="164" type="line"/>
      <point x="343" y="164" type="line"/>
      <point x="343" y="308" type="line"/>
      <point x="547" y="308" type="line"/>
      <point x="547" y="342" type="line"/>
      <point x="343" y="342" type="line"/>
      <point x="343" y="480" type="line"/>
      <point x="307" y="480" type="line"/>
      <point x="307" y="342" type="line"/>
      <point x="105" y="342" type="line"/>
      <point x="105" y="308" type="line"/>
      <point x="307" y="308" type="line"/>
    </contour>
    <contour>
      <point x="105" y="50" type="line"/>
      <point x="547" y="50" type="line"/>
      <point x="547" y="84" type="line"/>
      <point x="105" y="84" type="line"/>
    </contour>
  </outline>
</glyph>
<glyph name="twosuperior" format="2">
  <advance width="280"/>
  <unicode hex="00B2"/>
  <outline>
    <contour>
      <point x="147" y="478" type="line"/>
      <point x="342" y="478" type="line"/>
      <point x="350" y="512" type="line"/>
      <point x="202" y="512" type="line"/>
      <point x="298" y="593" type="line" smooth="yes"/>
      <point x="348" y="634"/>
      <point x="382" y="667"/>
      <point x="394" y="714" type="curve" smooth="yes"/>
      <point x="408" y="771"/>
      <point x="383" y="799"/>
      <point x="323" y="799" type="curve" smooth="yes"/>
      <point x="292" y="799"/>
      <point x="250" y="792"/>
      <point x="226" y="786" type="curve"/>
      <point x="220" y="753" type="line"/>
      <point x="245" y="758"/>
      <point x="288" y="765"/>
      <point x="313" y="765" type="curve" smooth="yes"/>
      <point x="345" y="765"/>
      <point x="367" y="751"/>
      <point x="358" y="715" type="curve" smooth="yes"/>
      <point x="348" y="675"/>
      <point x="316" y="647"/>
      <point x="279" y="616" type="curve" smooth="yes"/>
      <point x="155" y="512" type="line"/>
    </contour>
  </outline>
</glyph>
<glyph name="threesuperior" format="2">
  <advance width="280"/>
  <unicode hex="00B3"/>
  <outline>
    <contour>
      <point x="249" y="469" type="curve" smooth="yes"/>
      <point x="312" y="469"/>
      <point x="357" y="498"/>
      <point x="373" y="562" type="curve" smooth="yes"/>
      <point x="387" y="620"/>
      <point x="368" y="631"/>
      <point x="335" y="641" type="curve"/>
      <point x="358" y="649"/>
      <point x="392" y="675"/>
      <point x="403" y="719" type="curve" smooth="yes"/>
      <point x="417" y="775"/>
      <point x="392" y="799"/>
      <point x="327" y="799" type="curve" smooth="yes"/>
      <point x="327" y="799"/>
      <point x="282" y="799"/>
      <point x="226" y="788" type="curve"/>
      <point x="221" y="756" type="line"/>
      <point x="243" y="760"/>
      <point x="285" y="765"/>
      <point x="319" y="765" type="curve" smooth="yes"/>
      <point x="363" y="765"/>
      <point x="373" y="749"/>
      <point x="366" y="719" type="curve" smooth="yes"/>
      <point x="357" y="684"/>
      <point x="321" y="656"/>
      <point x="299" y="656" type="curve" smooth="yes"/>
      <point x="234" y="656" type="line"/>
      <point x="226" y="622" type="line"/>
      <point x="291" y="622" type="line" smooth="yes"/>
      <point x="325" y="622"/>
      <point x="347" y="607"/>
      <point x="335" y="561" type="curve" smooth="yes"/>
      <point x="327" y="527"/>
      <point x="302" y="503"/>
      <point x="258" y="503" type="curve" smooth="yes"/>
      <point x="222" y="503"/>
      <point x="178" y="508"/>
      <point x="156" y="512" type="curve"/>
      <point x="145" y="480" type="line"/>
      <point x="169" y="475"/>
      <point x="213" y="469"/>
    </contour>
  </outline>
</glyph>
<glyph name="acute" format="2">
  <advance width="537"/>
  <unicode hex="00B4"/>
  <outline>
    <contour>
      <point x="296" y="610" type="line"/>
      <point x="500" y="700" type="line"/>
      <point x="494" y="730" type="line"/>
      <point x="291" y="635" type="line"/>
    </contour>
  </outline>
</glyph>
<glyph name="cedilla" format="2">
  <advance width="791"/>
  <unicode hex="00B8"/>
  <outline>
    <contour>
      <point x="402" y="-199" type="curve" smooth="yes"/>
      <point x="454" y="-199"/>
      <point x="485" y="-178"/>
      <point x="497" y="-124" type="curve" smooth="yes"/>
      <point x="509" y="-71"/>
      <point x="471" y="-53"/>
      <point x="420" y="-53" type="curve" smooth="yes"/>
      <point x="415" y="-53" type="line"/>
      <point x="430" y="5" type="line"/>
      <point x="398" y="5" type="line"/>
      <point x="377" y="-83" type="line"/>
      <point x="428" y="-83" type="line" smooth="yes"/>
      <point x="450" y="-83"/>
      <point x="471" y="-90"/>
      <point x="463" y="-124" type="curve" smooth="yes"/>
      <point x="455" y="-157"/>
      <point x="436" y="-168"/>
      <point x="407" y="-168" type="curve" smooth="yes"/>
      <point x="384" y="-168"/>
      <point x="352" y="-166"/>
      <point x="334" y="-164" type="curve"/>
      <point x="326" y="-195" type="line"/>
      <point x="341" y="-197"/>
      <point x="371" y="-199"/>
    </contour>
  </outline>
</glyph>
<glyph name="onesuperior" format="2">
  <advance width="280"/>
  <unicode hex="00B9"/>
  <outline>
    <contour>
      <point x="249" y="478" type="line"/>
      <point x="285" y="478" type="line"/>
      <point x="362" y="790" type="line"/>
      <point x="326" y="790" type="line"/>
      <point x="211" y="723" type="line"/>
      <point x="221" y="695" type="line"/>
      <point x="317" y="751" type="line"/>
    </contour>
  </outline>
</glyph>
<glyph name="questiondown" format="2">
  <advance width="391"/>
  <unicode hex="00BF"/>
  <outline>
    <contour>
      <point x="324" y="313" type="curve"/>
      <point x="290" y="313" type="line"/>
      <point x="282" y="274" type="line" smooth="yes"/>
      <point x="275" y="238"/>
      <point x="249" y="200"/>
      <point x="194" y="155" type="curve" smooth="yes"/>
      <point x="58" y="44"/>
      <point x="21" y="9"/>
      <point x="21" y="-94" type="curve" smooth="yes"/>
      <point x="21" y="-177"/>
      <point x="88" y="-208"/>
      <point x="173" y="-208" type="curve" smooth="yes"/>
      <point x="220" y="-208"/>
      <point x="287" y="-194"/>
      <point x="324" y="-184" type="curve"/>
      <point x="324" y="-152" type="line"/>
      <point x="285" y="-161"/>
      <point x="218" y="-174"/>
      <point x="179" y="-174" type="curve" smooth="yes"/>
      <point x="106" y="-174"/>
      <point x="59" y="-151"/>
      <point x="59" y="-94" type="curve" smooth="yes"/>
      <point x="59" y="-6"/>
      <point x="94" y="30"/>
      <point x="212" y="126" type="curve" smooth="yes"/>
      <point x="274" y="176"/>
      <point x="308" y="219"/>
      <point x="318" y="270" type="curve" smooth="yes"/>
      <point x="321" y="285"/>
      <point x="323" y="304"/>
    </contour>
    <contour>
      <point x="358" y="500" type="line"/>
      <point x="322" y="500" type="line"/>
      <point x="304" y="418" type="line"/>
      <point x="341" y="418" type="line"/>
    </contour>
  </outline>
</glyph>
<glyph name="Eth" format="2">
  <advance width="610"/>
  <unicode hex="00D0"/>
  <outline>
    <contour>
      <point x="89" y="332" type="line"/>
      <point x="363" y="332" type="line"/>
      <point x="372" y="370" type="line"/>
      <point x="96" y="370" type="line"/>
    </contour>
    <component base="D" xOffset="2"/>
  </outline>
</glyph>
<glyph name="Odieresis" format="2">
  <advance width="636"/>
  <unicode hex="00D6"/>
  <outline>
    <contour>
      <point x="404" y="833" type="line"/>
      <point x="438" y="833" type="line"/>
      <point x="453" y="898" type="line"/>
      <point x="419" y="898" type="line"/>
    </contour>
    <contour>
      <point x="584" y="833" type="line"/>
      <point x="616" y="833" type="line"/>
      <point x="631" y="898" type="line"/>
      <point x="597" y="898" type="line"/>
    </contour>
    <component base="O"/>
  </outline>
</glyph>
<glyph name="multiply" format="2">
  <advance width="560"/>
  <unicode hex="00D7"/>
  <outline>
    <contour>
      <point x="512" y="52" type="line"/>
      <point x="536" y="76" type="line"/>
      <point x="360" y="251" type="line"/>
      <point x="536" y="426" type="line"/>
      <point x="512" y="450" type="line"/>
      <point x="337" y="274" type="line"/>
      <point x="162" y="450" type="line"/>
      <point x="138" y="426" type="line"/>
      <point x="314" y="251" type="line"/>
      <point x="138" y="76" type="line"/>
      <point x="162" y="52" type="line"/>
      <point x="337" y="228" type="line"/>
    </contour>
  </outline>
</glyph>
<glyph name="Oslash" format="2">
  <advance width="636"/>
  <unicode hex="00D8"/>
  <outline>
    <contour>
      <point x="106" y="-110" type="line"/>
      <point x="409" y="332" type="line"/>
      <point x="712" y="777" type="line"/>
      <point x="682" y="791" type="line"/>
      <point x="380" y="348" type="line"/>
      <point x="79" y="-94" type="line"/>
    </contour>
    <component base="O"/>
  </outline>
</glyph>
<glyph name="Thorn" format="2">
  <advance width="556"/>
  <unicode hex="00DE"/>
  <outline>
    <contour>
      <point x="85" y="0" type="line"/>
      <point x="121" y="0" type="line"/>
      <point x="152" y="134" type="line"/>
      <point x="353" y="134" type="line" smooth="yes"/>
      <point x="490" y="134"/>
      <point x="568" y="234"/>
      <point x="597" y="367" type="curve" smooth="yes"/>
      <point x="622" y="482"/>
      <point x="600" y="579"/>
      <point x="452" y="579" type="curve" smooth="yes"/>
      <point x="257" y="579" type="line"/>
      <point x="285" y="700" type="line"/>
      <point x="249" y="700" type="line"/>
    </contour>
    <contour>
      <point x="160" y="166" type="line"/>
      <point x="250" y="547" type="line"/>
      <point x="444" y="547" type="line" smooth="yes"/>
      <point x="571" y="547"/>
      <point x="584" y="462"/>
      <point x="560" y="367" type="curve" smooth="yes"/>
      <point x="532" y="257"/>
      <point x="475" y="166"/>
      <point x="361" y="166" type="curve" smooth="yes"/>
    </contour>
  </outline>
</glyph>
<glyph name="germandbls" format="2">
  <advance width="522"/>
  <unicode hex="00DF"/>
  <outline>
    <contour>
      <point x="297" y="-9" type="curve" smooth="yes"/>
      <point x="443" y="-9"/>
      <point x="524" y="76"/>
      <point x="524" y="203" type="curve" smooth="yes"/>
      <point x="524" y="272"/>
      <point x="500" y="290"/>
      <point x="426" y="335" type="curve" smooth="yes"/>
      <point x="375" y="366"/>
      <point x="366" y="378"/>
      <point x="366" y="405" type="curve" smooth="yes"/>
      <point x="366" y="431"/>
      <point x="388" y="446"/>
      <point x="444" y="476" type="curve" smooth="yes"/>
      <point x="500" y="506"/>
      <point x="544" y="549"/>
      <point x="544" y="635" type="curve" smooth="yes"/>
      <point x="544" y="701"/>
      <point x="501" y="739"/>
      <point x="403" y="739" type="curve" smooth="yes"/>
      <point x="288" y="739"/>
      <point x="233" y="684"/>
      <point x="198" y="535" type="curve" smooth="yes"/>
      <point x="73" y="0" type="line"/>
      <point x="107" y="0" type="line"/>
      <point x="231" y="532" type="line" smooth="yes"/>
      <point x="260" y="657"/>
      <point x="300" y="707"/>
      <point x="402" y="707" type="curve" smooth="yes"/>
      <point x="480" y="707"/>
      <point x="508" y="682"/>
      <point x="508" y="630" type="curve" smooth="yes"/>
      <point x="508" y="568"/>
      <point x="480" y="532"/>
      <point x="430" y="505" type="curve" smooth="yes"/>
      <point x="352" y="463"/>
      <point x="331" y="444"/>
      <point x="331" y="400" type="curve" smooth="yes"/>
      <point x="331" y="368"/>
      <point x="346" y="345"/>
      <point x="402" y="311" type="curve" smooth="yes"/>
      <point x="472" y="268"/>
      <point x="488" y="250"/>
      <point x="488" y="202" type="curve" smooth="yes"/>
      <point x="488" y="93"/>
      <point x="418" y="23"/>
      <point x="301" y="23" type="curve" smooth="yes"/>
      <point x="273" y="23"/>
      <point x="226" y="31"/>
      <point x="199" y="37" type="curve"/>
      <point x="194" y="5" type="line"/>
      <point x="219" y="-1"/>
      <point x="264" y="-9"/>
    </contour>
  </outline>
</glyph>
<glyph name="acircumflex" format="2">
  <advance width="482"/>
  <unicode hex="00E2"/>
  <outline>
    <contour>
      <point x="260" y="595" type="line"/>
      <point x="303" y="595" type="line"/>
      <point x="413" y="696" type="line"/>
      <point x="477" y="595" type="line"/>
      <point x="515" y="595" type="line"/>
      <point x="428" y="730" type="line"/>
      <point x="406" y="730" type="line"/>
    </contour>
    <component base="a"/>
  </outline>
</glyph>
<glyph name="adieresis" format="2">
  <advance width="482"/>
  <unicode hex="00E4"/>
  <outline>
    <contour>
      <point x="282" y="633" type="line"/>
      <point x="316" y="633" type="line"/>
      <point x="331" y="698" type="line"/>
      <point x="297" y="698" type="line"/>
    </contour>
    <contour>
      <point x="462" y="633" type="line"/>
      <point x="494" y="633" type="line"/>
      <point x="509" y="698" type="line"/>
      <point x="475" y="698" type="line"/>
    </contour>
    <component base="a"/>
  </outline>
</glyph>
<glyph name="ae" format="2">
  <advance width="772"/>
  <unicode hex="00E6"/>
  <outline>
    <contour>
      <point x="164" y="-9" type="curve" smooth="yes"/>
      <point x="233" y="-9"/>
      <point x="342" y="23"/>
      <point x="408" y="49" type="curve"/>
      <point x="426" y="13"/>
      <point x="464" y="-9"/>
      <point x="529" y="-9" type="curve" smooth="yes"/>
      <point x="579" y="-9"/>
      <point x="659" y="-4"/>
      <point x="705" y="0" type="curve"/>
      <point x="712" y="36" type="line"/>
      <point x="666" y="32"/>
      <point x="587" y="27"/>
      <point x="537" y="27" type="curve" smooth="yes"/>
      <point x="459" y="27"/>
      <point x="433" y="65"/>
      <point x="433" y="132" type="curve" smooth="yes"/>
      <point x="433" y="161"/>
      <point x="439" y="196"/>
      <point x="448" y="236" type="curve"/>
      <point x="778" y="234" type="line"/>
      <point x="787" y="269" type="line" smooth="yes"/>
      <point x="797" y="307"/>
      <point x="801" y="340"/>
      <point x="801" y="373" type="curve" smooth="yes"/>
      <point x="801" y="469"/>
      <point x="752" y="509"/>
      <point x="664" y="509" type="curve" smooth="yes"/>
      <point x="588" y="509"/>
      <point x="522" y="480"/>
      <point x="477" y="414" type="curve"/>
      <point x="475" y="475"/>
      <point x="430" y="509"/>
      <point x="370" y="509" type="curve" smooth="yes"/>
      <point x="315" y="509"/>
      <point x="235" y="503"/>
      <point x="189" y="499" type="curve"/>
      <point x="183" y="462" type="line"/>
      <point x="230" y="466"/>
      <point x="312" y="471"/>
      <point x="362" y="471" type="curve" smooth="yes"/>
      <point x="475" y="471"/>
      <point x="439" y="357"/>
      <point x="421" y="301" type="curve"/>
      <point x="370" y="297"/>
      <point x="317" y="291"/>
      <point x="261" y="283" type="curve" smooth="yes"/>
      <point x="162" y="269"/>
      <point x="91" y="237"/>
      <point x="73" y="138" type="curve" smooth="yes"/>
      <point x="59" y="62"/>
      <point x="75" y="-9"/>
    </contour>
    <contour>
      <point x="173" y="27" type="curve" smooth="yes"/>
      <point x="107" y="27"/>
      <point x="102" y="90"/>
      <point x="114" y="138" type="curve" smooth="yes"/>
      <point x="131" y="204"/>
      <point x="173" y="233"/>
      <point x="239" y="244" type="curve" smooth="yes"/>
      <point x="286" y="252"/>
      <point x="341" y="258"/>
      <point x="416" y="266" type="curve"/>
      <point x="402" y="202"/>
      <point x="386" y="142"/>
      <point x="399" y="81" type="curve"/>
      <point x="342" y="60"/>
      <point x="236" y="27"/>
    </contour>
    <contour>
      <point x="749" y="268" type="curve"/>
      <point x="455" y="270" type="line"/>
      <point x="490" y="418"/>
      <point x="560" y="473"/>
      <point x="656" y="473" type="curve" smooth="yes"/>
      <point x="728" y="473"/>
      <point x="765" y="443"/>
      <point x="765" y="368" type="curve" smooth="yes"/>
      <point x="765" y="340"/>
      <point x="760" y="308"/>
    </contour>
  </outline>
</glyph>
<glyph name="ecircumflex" format="2">
  <advance width="452"/>
  <unicode hex="00EA"/>
  <outline>
    <contour>
      <point x="243" y="595" type="line"/>
      <point x="286" y="595" type="line"/>
      <point x="396" y="696" type="line"/>
      <point x="460" y="595" type="line"/>
      <point x="498" y="595" type="line"/>
      <point x="411" y="730" type="line"/>
      <point x="389" y="730" type="line"/>
    </contour>
    <component base="e"/>
  </outline>
</glyph>
<glyph name="icircumflex" format="2">
  <advance width="182"/>
  <unicode hex="00EE"/>
  <outline>
    <contour>
      <point x="94" y="595" type="line"/>
      <point x="137" y="595" type="line"/>
      <point x="247" y="696" type="line"/>
      <point x="311" y="595" type="line"/>
      <point x="349" y="595" type="line"/>
      <point x="262" y="730" type="line"/>
      <point x="240" y="730" type="line"/>
    </contour>
    <component base="dotlessi"/>
  </outline>
</glyph>
<glyph name="idieresis" format="2">
  <advance width="182"/>
  <unicode hex="00EF"/>
  <outline>
    <contour>
      <point x="113" y="633" type="line"/>
      <point x="147" y="633" type="line"/>
      <point x="162" y="698" type="line"/>
      <point x="128" y="698" type="line"/>
    </contour>
    <contour>
      <point x="293" y="633" type="line"/>
      <point x="325" y="633" type="line"/>
      <point x="340" y="698" type="line"/>
      <point x="306" y="698" type="line"/>
    </contour>
    <component base="dotlessi"/>
  </outline>
</glyph>
<glyph name="eth" format="2">
  <advance width="510"/>
  <unicode hex="00F0"/>
  <outline>
    <contour>
      <point x="247" y="-9" type="curve" smooth="yes"/>
      <point x="376" y="-9"/>
      <point x="475" y="92"/>
      <point x="538" y="360" type="curve" smooth="yes"/>
      <point x="579" y="538"/>
      <point x="491" y="667"/>
      <point x="289" y="736" type="curve"/>
      <point x="270" y="702" type="line"/>
      <point x="423" y="650"/>
      <point x="535" y="556"/>
      <point x="506" y="382" type="curve"/>
      <point x="466" y="401"/>
      <point x="392" y="426"/>
      <point x="338" y="426" type="curve" smooth="yes"/>
      <point x="206" y="426"/>
      <point x="83" y="316"/>
      <point x="83" y="135" type="curve" smooth="yes"/>
      <point x="83" y="60"/>
      <point x="125" y="-9"/>
    </contour>
    <contour>
      <point x="255" y="29" type="curve" smooth="yes"/>
      <point x="164" y="29"/>
      <point x="123" y="75"/>
      <point x="123" y="139" type="curve" smooth="yes"/>
      <point x="123" y="280"/>
      <point x="215" y="388"/>
      <point x="332" y="388" type="curve" smooth="yes"/>
      <point x="399" y="388"/>
      <point x="493" y="346"/>
      <point x="498" y="343" type="curve"/>
      <point x="452" y="163"/>
      <point x="381" y="29"/>
    </contour>
    <contour>
      <point x="282" y="554" type="line"/>
      <point x="545" y="713" type="line"/>
      <point x="529" y="742" type="line"/>
      <point x="266" y="582" type="line"/>
    </contour>
  </outline>
</glyph>
<glyph name="divide" format="2">
  <advance width="560"/>
  <unicode hex="00F7"/>
  <outline>
    <contour>
      <point x="116" y="234" type="line"/>
      <point x="560" y="234" type="line"/>
      <point x="560" y="268" type="line"/>
      <point x="116" y="268" type="line"/>
    </contour>
    <contour>
      <point x="319" y="39" type="line"/>
      <point x="357" y="39" type="line"/>
      <point x="357" y="119" type="line"/>
      <point x="319" y="119" type="line"/>
    </contour>
    <contour>
      <point x="319" y="383" type="line"/>
      <point x="357" y="383" type="line"/>
      <point x="357" y="463" type="line"/>
      <point x="319" y="463" type="line"/>
    </contour>
  </outline>
</glyph>
<glyph name="oslash" format="2">
  <advance width="492"/>
  <unicode hex="00F8"/>
  <outline>
    <contour>
      <point x="90" y="-113" type="line"/>
      <point x="311" y="242" type="line"/>
      <point x="532" y="592" type="line"/>
      <point x="505" y="604" type="line"/>
      <point x="288" y="255" type="line"/>
      <point x="63" y="-102" type="line"/>
    </contour>
    <component base="o" xOffset="1" yOffset="2"/>
  </outline>
</glyph>
<glyph name="dcroat" format="2">
  <advance width="481"/>
  <unicode hex="0111"/>
  <outline>
    <contour>
      <point x="354" y="617" type="line"/>
      <point x="606" y="617" type="line"/>
      <point x="615" y="653" type="line"/>
      <point x="362" y="653" type="line"/>
    </contour>
    <component base="d"/>
  </outline>
</glyph>
<glyph name="Gdotaccent" format="2">
  <advance width="575"/>
  <unicode hex="0120"/>
  <outline>
    <contour>
      <point x="495" y="840" type="line"/>
      <point x="529" y="840" type="line"/>
      <point x="542" y="898" type="line"/>
      <point x="509" y="898" type="line"/>
    </contour>
    <component base="G"/>
  </outline>
</glyph>
<glyph name="gcommaaccent" format="2">
  <advance width="458"/>
  <unicode hex="0123"/>
  <outline>
    <contour>
      <point x="331" y="588" type="line"/>
      <point x="365" y="588" type="line"/>
      <point x="446" y="780" type="line"/>
      <point x="419" y="780" type="line"/>
    </contour>
    <component base="g"/>
  </outline>
</glyph>
<glyph name="hbar" format="2">
  <advance width="489"/>
  <unicode hex="0127"/>
  <outline>
    <contour>
      <point x="158" y="611" type="line"/>
      <point x="410" y="611" type="line"/>
      <point x="418" y="643" type="line"/>
      <point x="165" y="643" type="line"/>
    </contour>
    <component base="h"/>
  </outline>
</glyph>
<glyph name="iogonek" format="2">
  <advance width="183"/>
  <unicode hex="012F"/>
  <outline>
    <contour>
      <point x="74" y="0" type="line"/>
      <point x="109" y="0" type="line"/>
      <point x="225" y="500" type="line"/>
      <point x="190" y="500" type="line"/>
    </contour>
    <contour>
      <point x="27" y="-198" type="curve" smooth="yes"/>
      <point x="46" y="-198"/>
      <point x="74" y="-193"/>
      <point x="89" y="-190" type="curve"/>
      <point x="93" y="-158" type="line"/>
      <point x="77" y="-161"/>
      <point x="51" y="-165"/>
      <point x="37" y="-165" type="curve" smooth="yes"/>
      <point x="17" y="-165"/>
      <point x="5" y="-157"/>
      <point x="5" y="-141" type="curve" smooth="yes"/>
      <point x="5" y="-97"/>
      <point x="77" y="-27"/>
      <point x="109" y="0" type="curve"/>
      <point x="77" y="10" type="line"/>
      <point x="44" y="-17"/>
      <point x="-35" y="-92"/>
      <point x="-35" y="-144" type="curve" smooth="yes"/>
      <point x="-35" y="-176"/>
      <point x="-16" y="-198"/>
    </contour>
    <contour>
      <point x="221" y="638" type="line"/>
      <point x="257" y="638" type="line"/>
      <point x="271" y="698" type="line"/>
      <point x="235" y="698" type="line"/>
    </contour>
  </outline>
</glyph>
<glyph name="dotlessi" format="2">
  <advance width="182"/>
  <unicode hex="0131"/>
  <outline>
    <contour>
      <point x="73" y="0" type="line"/>
      <point x="108" y="0" type="line"/>
      <point x="224" y="500" type="line"/>
      <point x="189" y="500" type="line"/>
    </contour>
  </outline>
</glyph>
<glyph name="Lcaron" format="2">
  <advance width="445"/>
  <unicode hex="013D"/>
  <outline>
    <contour>
      <point x="447" y="480" type="line"/>
      <point x="479" y="480" type="line"/>
      <point x="530" y="700" type="line"/>
      <point x="498" y="700" type="line"/>
    </contour>
    <component base="L"/>
  </outline>
</glyph>
<glyph name="lcaron" format="2">
  <advance width="201"/>
  <unicode hex="013E"/>
  <outline>
    <contour>
      <point x="290" y="480" type="line"/>
      <point x="322" y="480" type="line"/>
      <point x="373" y="700" type="line"/>
      <point x="341" y="700" type="line"/>
    </contour>
    <component base="l"/>
  </outline>
</glyph>
<glyph name="lslash" format="2">
  <advance width="256"/>
  <unicode hex="0142"/>
  <outline>
    <contour>
      <point x="96" y="265" type="line"/>
      <point x="332" y="411" type="line"/>
      <point x="319" y="440" type="line"/>
      <point x="81" y="292" type="line"/>
    </contour>
    <component base="l" xOffset="27"/>
  </outline>
</glyph>
<glyph name="Eng" format="2">
  <advance width="617"/>
  <unicode hex="014A"/>
  <outline>
    <contour>
      <point x="86" y="0" type="line"/>
      <point x="121" y="0" type="line"/>
      <point x="275" y="667" type="line"/>
      <point x="300" y="667" type="line"/>
      <point x="450" y="0" type="line"/>
      <point x="531" y="0" type="line"/>
      <point x="693" y="700" type="line"/>
      <point x="658" y="700" type="line"/>
      <point x="504" y="33" type="line"/>
      <point x="480" y="33" type="line"/>
      <point x="331" y="700" type="line"/>
      <point x="248" y="700" type="line"/>
    </contour>
    <contour>
      <point x="346" y="-171" type="line"/>
      <point x="484" y="-171"/>
      <point x="500" y="-138"/>
      <point x="533" y="7" type="curve" smooth="yes"/>
      <point x="669" y="600" type="line"/>
      <point x="635" y="600" type="line"/>
      <point x="500" y="16" type="line" smooth="yes"/>
      <point x="470" y="-115"/>
      <point x="454" y="-138"/>
      <point x="352" y="-138" type="curve"/>
    </contour>
  </outline>
</glyph>
<glyph name="eng" format="2">
  <advance width="485"/>
  <unicode hex="014B"/>
  <outline>
    <contour>
      <point x="221" y="-228" type="line"/>
      <point x="348" y="-161"/>
      <point x="387" y="-122"/>
      <point x="414" y="-5" type="curve" smooth="yes"/>
      <point x="475" y="258" type="line" smooth="yes"/>
      <point x="486" y="304"/>
      <point x="499" y="361"/>
      <point x="499" y="394" type="curve" smooth="yes"/>
      <point x="499" y="481"/>
      <point x="466" y="509"/>
      <point x="380" y="509" type="curve" smooth="yes"/>
      <point x="311" y="509"/>
      <point x="237" y="455"/>
      <point x="204" y="423" type="curve"/>
      <point x="224" y="500" type="line"/>
      <point x="190" y="500" type="line"/>
      <point x="73" y="0" type="line"/>
      <point x="106" y="0" type="line"/>
      <point x="196" y="385" type="line"/>
      <point x="236" y="423"/>
      <point x="311" y="473"/>
      <point x="373" y="473" type="curve" smooth="yes"/>
      <point x="439" y="473"/>
      <point x="465" y="451"/>
      <point x="465" y="394" type="curve" smooth="yes"/>
      <point x="465" y="361"/>
      <point x="456" y="315"/>
      <point x="443" y="258" type="curve" smooth="yes"/>
      <point x="387" y="20" type="line" smooth="yes"/>
      <point x="359" y="-98"/>
      <point x="328" y="-131"/>
      <point x="215" y="-193" type="curve"/>
    </contour>
  </outline>
</glyph>
<glyph name="OE" format="2">
  <advance width="876"/>
  <unicode hex="0152"/>
  <outline>
    <contour>
      <point x="305" y="-9" type="curve" smooth="yes"/>
      <point x="339" y="-9"/>
      <point x="407" y="-5"/>
      <point x="456" y="-1" type="curve"/>
      <point x="827" y="-1" type="line"/>
      <point x="837" y="38" type="line"/>
      <point x="499" y="38" type="line"/>
      <point x="571" y="343" type="line"/>
      <point x="852" y="341" type="line"/>
      <point x="859" y="379" type="line"/>
      <point x="578" y="379" type="line"/>
      <point x="647" y="662" type="line"/>
      <point x="985" y="662" type="line"/>
      <point x="992" y="700" type="line"/>
      <point x="620" y="700" type="line"/>
      <point x="600" y="702"/>
      <point x="485" y="709"/>
      <point x="474" y="709" type="curve" smooth="yes"/>
      <point x="282" y="709"/>
      <point x="195" y="575"/>
      <point x="140" y="345" type="curve" smooth="yes"/>
      <point x="124" y="277"/>
      <point x="115" y="220"/>
      <point x="115" y="171" type="curve" smooth="yes"/>
      <point x="115" y="54"/>
      <point x="168" y="-9"/>
    </contour>
    <contour>
      <point x="313" y="29" type="curve" smooth="yes"/>
      <point x="195" y="29"/>
      <point x="152" y="80"/>
      <point x="152" y="178" type="curve" smooth="yes"/>
      <point x="152" y="225"/>
      <point x="161" y="280"/>
      <point x="177" y="347" type="curve" smooth="yes"/>
      <point x="226" y="554"/>
      <point x="295" y="671"/>
      <point x="466" y="671" type="curve" smooth="yes"/>
      <point x="515" y="671"/>
      <point x="585" y="667"/>
      <point x="611" y="664" type="curve"/>
      <point x="463" y="38" type="line"/>
      <point x="421" y="34"/>
      <point x="334" y="29"/>
    </contour>
  </outline>
</glyph>
<glyph name="oe" format="2">
  <advance width="826"/>
  <unicode hex="0153"/>
  <outline>
    <contour>
      <point x="249" y="-9" type="curve" smooth="yes"/>
      <point x="349" y="-9"/>
      <point x="407" y="24"/>
      <point x="446" y="98" type="curve"/>
      <point x="454" y="31"/>
      <point x="492" y="-9"/>
      <point x="580" y="-9" type="curve" smooth="yes"/>
      <point x="631" y="-9"/>
      <point x="712" y="-4"/>
      <point x="758" y="0" type="curve"/>
      <point x="763" y="36" type="line"/>
      <point x="717" y="32"/>
      <point x="637" y="27"/>
      <point x="589" y="27" type="curve" smooth="yes"/>
      <point x="512" y="27"/>
      <point x="481" y="62"/>
      <point x="481" y="132" type="curve" smooth="yes"/>
      <point x="481" y="161"/>
      <point x="488" y="196"/>
      <point x="498" y="236" type="curve"/>
      <point x="832" y="234" type="line"/>
      <point x="841" y="268" type="line" smooth="yes"/>
      <point x="851" y="308"/>
      <point x="856" y="342"/>
      <point x="856" y="372" type="curve" smooth="yes"/>
      <point x="856" y="468"/>
      <point x="805" y="509"/>
      <point x="715" y="509" type="curve" smooth="yes"/>
      <point x="629" y="509"/>
      <point x="558" y="475"/>
      <point x="514" y="389" type="curve"/>
      <point x="508" y="472"/>
      <point x="460" y="509"/>
      <point x="370" y="509" type="curve" smooth="yes"/>
      <point x="224" y="509"/>
      <point x="158" y="440"/>
      <point x="116" y="261" type="curve" smooth="yes"/>
      <point x="103" y="206"/>
      <point x="95" y="159"/>
      <point x="95" y="113" type="curve" smooth="yes"/>
      <point x="95" y="25"/>
      <point x="143" y="-9"/>
    </contour>
    <contour>
      <point x="256" y="27" type="curve" smooth="yes"/>
      <point x="165" y="27"/>
      <point x="131" y="55"/>
      <point x="131" y="122" type="curve" smooth="yes"/>
      <point x="131" y="158"/>
      <point x="140" y="203"/>
      <point x="154" y="261" type="curve" smooth="yes"/>
      <point x="191" y="420"/>
      <point x="247" y="473"/>
      <point x="363" y="473" type="curve" smooth="yes"/>
      <point x="425" y="473"/>
      <point x="461" y="453"/>
      <point x="474" y="404" type="curve" smooth="yes"/>
      <point x="486" y="355"/>
      <point x="475" y="304"/>
      <point x="464" y="259" type="curve" smooth="yes"/>
      <point x="428" y="115"/>
      <point x="396" y="27"/>
    </contour>
    <contour>
      <point x="803" y="268" type="curve"/>
      <point x="506" y="270" type="line"/>
      <point x="541" y="418"/>
      <point x="613" y="473"/>
      <point x="708" y="473" type="curve" smooth="yes"/>
      <point x="780" y="473"/>
      <point x="818" y="444"/>
      <point x="818" y="369" type="curve" smooth="yes"/>
      <point x="818" y="341"/>
      <point x="813" y="308"/>
    </contour>
  </outline>
</glyph>
<glyph name="Tbar" format="2">
  <advance width="482"/>
  <unicode hex="0166"/>
  <outline>
    <contour>
      <point x="125" y="327" type="line"/>
      <point x="503" y="327" type="line"/>
      <point x="514" y="363" type="line"/>
      <point x="134" y="363" type="line"/>
    </contour>
    <component base="T" xOffset="2"/>
  </outline>
</glyph>
<glyph name="florin" format="2">
  <advance width="560"/>
  <unicode hex="0192"/>
  <outline>
    <contour>
      <point x="88" y="-243" type="curve" smooth="yes"/>
      <point x="164" y="-243"/>
      <point x="218" y="-197"/>
      <point x="248" y="-70" type="curve" smooth="yes"/>
      <point x="348" y="349" type="line"/>
      <point x="520" y="349" type="line"/>
      <point x="529" y="385" type="line"/>
      <point x="356" y="385" type="line"/>
      <point x="369" y="437" type="line" smooth="yes"/>
      <point x="404" y="578"/>
      <point x="430" y="635"/>
      <point x="503" y="635" type="curve" smooth="yes"/>
      <point x="523" y="635"/>
      <point x="574" y="632"/>
      <point x="606" y="630" type="curve"/>
      <point x="615" y="665" type="line"/>
      <point x="588" y="668"/>
      <point x="542" y="672"/>
      <point x="511" y="672" type="curve" smooth="yes"/>
      <point x="427" y="672"/>
      <point x="378" y="622"/>
      <point x="338" y="456" type="curve" smooth="yes"/>
      <point x="321" y="385" type="line"/>
      <point x="207" y="385" type="line"/>
      <point x="200" y="349" type="line"/>
      <point x="313" y="349" type="line"/>
      <point x="214" y="-63" type="line" smooth="yes"/>
      <point x="188" y="-170"/>
      <point x="152" y="-206"/>
      <point x="97" y="-206" type="curve" smooth="yes"/>
      <point x="78" y="-206"/>
      <point x="54" y="-204"/>
      <point x="41" y="-203" type="curve"/>
      <point x="32" y="-238" type="line"/>
      <point x="42" y="-240"/>
      <point x="65" y="-243"/>
    </contour>
  </outline>
</glyph>
<glyph name="caron" format="2">
  <advance width="791"/>
  <unicode hex="02C7"/>
  <outline>
    <contour>
      <point x="520" y="595" type="line"/>
      <point x="534" y="595" type="line"/>
      <point x="686" y="730" type="line"/>
      <point x="647" y="730" type="line"/>
      <point x="532" y="625" type="line"/>
      <point x="466" y="730" type="line"/>
      <point x="434" y="730" type="line"/>
    </contour>
  </outline>
</glyph>
<glyph name="dotaccent" format="2">
  <advance width="204"/>
  <unicode hex="02D9"/>
  <outline>
    <contour>
      <point x="232" y="620" type="line"/>
      <point x="262" y="620" type="line"/>
      <point x="275" y="678" type="line"/>
      <point x="246" y="678" type="line"/>
    </contour>
  </outline>
</glyph>
<glyph name="ogonek" format="2">
  <advance width="412"/>
  <unicode hex="02DB"/>
  <outline>
    <contour>
      <point x="187" y="-198" type="curve" smooth="yes"/>
      <point x="206" y="-198"/>
      <point x="234" y="-193"/>
      <point x="249" y="-190" type="curve"/>
      <point x="253" y="-158" type="line"/>
      <point x="237" y="-161"/>
      <point x="211" y="-165"/>
      <point x="197" y="-165" type="curve" smooth="yes"/>
      <point x="177" y="-165"/>
      <point x="165" y="-157"/>
      <point x="165" y="-141" type="curve" smooth="yes"/>
      <point x="165" y="-97"/>
      <point x="238" y="-24"/>
      <point x="270" y="3" type="curve"/>
      <point x="237" y="10" type="line"/>
      <point x="204" y="-17"/>
      <point x="125" y="-92"/>
      <point x="125" y="-144" type="curve" smooth="yes"/>
      <point x="125" y="-176"/>
      <point x="144" y="-198"/>
    </contour>
  </outline>
</glyph>
<glyph name="tilde" format="2">
  <advance width="414"/>
  <unicode hex="02DC"/>
  <outline>
    <contour>
      <point x="439" y="630" type="curve" smooth="yes"/>
      <point x="460" y="630"/>
      <point x="497" y="655"/>
      <point x="518" y="673" type="curve"/>
      <point x="513" y="703" type="line" name="hr00"/>
      <point x="491" y="685"/>
      <point x="457" y="662"/>
      <point x="445" y="662" type="curve" smooth="yes"/>
      <point x="420" y="662"/>
      <point x="358" y="713"/>
      <point x="322" y="713" type="curve" smooth="yes"/>
      <point x="300" y="713"/>
      <point x="259" y="687"/>
      <point x="234" y="667" type="curve"/>
      <point x="236" y="636" type="line"/>
      <point x="261" y="655"/>
      <point x="298" y="681"/>
      <point x="312" y="681" type="curve" smooth="yes"/>
      <point x="338" y="681"/>
      <point x="408" y="630"/>
    </contour>
  </outline>
</glyph>
<glyph name="hungarumlaut" format="2">
  <advance width="651"/>
  <unicode hex="02DD"/>
  <outline>
    <contour>
      <point x="472" y="594" type="line"/>
      <point x="651" y="698" type="line"/>
      <point x="639" y="724" type="line"/>
      <point x="461" y="619" type="line"/>
    </contour>
    <contour>
      <point x="298" y="594" type="line"/>
      <point x="476" y="698" type="line"/>
      <point x="464" y="724" type="line"/>
      <point x="287" y="619" type="line"/>
    </contour>
  </outline>
</glyph>
<glyph name="commaaccentcomb" format="2">
  <unicode hex="0326"/>
  <outline>
    <contour>
      <point x="-23" y="-265" type="line"/>
      <point x="3" y="-265" type="line"/>
      <point x="91" y="-73" type="line"/>
      <point x="57" y="-73" type="line"/>
    </contour>
  </outline>
</glyph>
<glyph name="pi" format="2">
  <advance width="560"/>
  <unicode hex="03C0"/>
  <outline>
    <contour>
      <point x="583" y="0" type="curve"/>
      <point x="583" y="32" type="line"/>
      <point x="506" y="32"/>
      <point x="484" y="51"/>
      <point x="484" y="154" type="curve" smooth="yes"/>
      <point x="484" y="475" type="line"/>
      <point x="449" y="476" type="line"/>
      <point x="449" y="154" type="line" smooth="yes"/>
      <point x="449" y="30"/>
      <point x="482" y="0"/>
    </contour>
    <contour>
      <point x="180" y="0" type="line"/>
      <point x="216" y="0" type="line"/>
      <point x="245" y="475" type="line"/>
      <point x="211" y="475" type="line"/>
    </contour>
    <contour>
      <point x="89" y="455" type="line"/>
      <point x="106" y="461"/>
      <point x="157" y="468"/>
      <point x="234" y="467" type="curve"/>
      <point x="240" y="468" type="line"/>
      <point x="453" y="468" type="line"/>
      <point x="460" y="469" type="line"/>
      <point x="532" y="468"/>
      <point x="579" y="477"/>
      <point x="595" y="484" type="curve"/>
      <point x="595" y="516" type="line"/>
      <point x="568" y="509"/>
      <point x="511" y="500"/>
      <point x="450" y="500" type="curve" smooth="yes"/>
      <point x="226" y="500" type="line" smooth="yes"/>
      <point x="167" y="500"/>
      <point x="113" y="493"/>
      <point x="89" y="487" type="curve"/>
    </contour>
  </outline>
</glyph>
<glyph name="comma-ar" format="2">
  <advance width="193"/>
  <unicode hex="060C"/>
  <outline>
    <contour>
      <point x="113" y="212" type="line"/>
      <point x="85" y="212" type="line"/>
      <point x="133" y="0" type="line"/>
      <point x="173" y="0" type="line"/>
    </contour>
  </outline>
</glyph>
<glyph name="hamza-ar" format="2">
  <advance width="498"/>
  <unicode hex="0621"/>
  <anchor x="325" y="-100" name="bottom"/>
  <anchor x="175" y="549" name="top"/>
  <outline>
    <contour>
      <point x="206" y="4" type="curve"/>
      <point x="227" y="29" type="line"/>
      <point x="155" y="95"/>
      <point x="120" y="160"/>
      <point x="120" y="226" type="curve" smooth="yes"/>
      <point x="120" y="307"/>
      <point x="174" y="358"/>
      <point x="263" y="358" type="curve" smooth="yes"/>
      <point x="303" y="358"/>
      <point x="339" y="348"/>
      <point x="375" y="328" type="curve"/>
      <point x="389" y="358" type="line"/>
      <point x="349" y="381"/>
      <point x="305" y="392"/>
      <point x="261" y="392" type="curve" smooth="yes"/>
      <point x="159" y="392"/>
      <point x="86" y="331"/>
      <point x="86" y="227" type="curve" smooth="yes"/>
      <point x="86" y="151"/>
      <point x="125" y="75"/>
    </contour>
    <contour>
      <point x="98" y="0" type="line"/>
      <point x="506" y="0" type="line"/>
      <point x="498" y="34" type="line"/>
      <point x="90" y="34" type="line"/>
    </contour>
  </outline>
</glyph>
<glyph name="alef-ar" format="2">
  <advance width="235"/>
  <unicode hex="0627"/>
  <anchor x="184" y="-37" name="bottom"/>
  <anchor x="0" y="763" name="top"/>
  <outline>
    <contour>
      <point x="158" y="0" type="line"/>
      <point x="193" y="0" type="line"/>
      <point x="24" y="730" type="line"/>
      <point x="-11" y="730" type="line"/>
    </contour>
  </outline>
</glyph>
<glyph name="hah-ar" format="2">
  <advance width="569"/>
  <unicode hex="062D"/>
  <anchor x="431" y="-400" name="bottom"/>
  <anchor x="438" y="-137" name="center"/>
  <anchor x="206" y="573" name="top"/>
  <outline>
    <contour>
      <point x="567" y="0" type="line"/>
      <point x="493" y="319" type="line" smooth="yes"/>
      <point x="465" y="439"/>
      <point x="372" y="500"/>
      <point x="226" y="500" type="curve" smooth="yes"/>
      <point x="158" y="500"/>
      <point x="87" y="487"/>
      <point x="38" y="475" type="curve"/>
      <point x="47" y="447" type="line"/>
      <point x="137" y="459"/>
      <point x="190" y="465"/>
      <point x="232" y="465" type="curve" smooth="yes"/>
      <point x="359" y="465"/>
      <point x="436" y="414"/>
      <point x="459" y="315" type="curve" smooth="yes"/>
      <point x="532" y="0" type="line"/>
    </contour>
    <contour>
      <point x="379" y="-308" type="curve" smooth="yes"/>
      <point x="431" y="-308"/>
      <point x="486" y="-299"/>
      <point x="524" y="-290" type="curve"/>
      <point x="513" y="-261" type="line"/>
      <point x="449" y="-270"/>
      <point x="407" y="-274"/>
      <point x="375" y="-274" type="curve" smooth="yes"/>
      <point x="225" y="-274"/>
      <point x="159" y="-188"/>
      <point x="159" y="-102" type="curve" smooth="yes"/>
      <point x="159" y="-31"/>
      <point x="203" y="0"/>
      <point x="309" y="0" type="curve" smooth="yes"/>
      <point x="532" y="0" type="line"/>
      <point x="525" y="34" type="line"/>
      <point x="304" y="34" type="line" smooth="yes"/>
      <point x="183" y="34"/>
      <point x="124" y="-10"/>
      <point x="124" y="-100" type="curve" smooth="yes"/>
      <point x="124" y="-205"/>
      <point x="205" y="-308"/>
    </contour>
  </outline>
</glyph>
<glyph name="reh-ar" format="2">
  <advance width="259"/>
  <unicode hex="0631"/>
  <anchor x="248" y="-350" name="bottom"/>
  <anchor x="87" y="573" name="top"/>
  <outline>
    <contour>
      <point x="108" y="-247" type="curve" smooth="yes"/>
      <point x="198" y="-247"/>
      <point x="253" y="-189"/>
      <point x="253" y="-99" type="curve" smooth="yes"/>
      <point x="253" y="-81"/>
      <point x="251" y="-61"/>
      <point x="246" y="-40" type="curve" smooth="yes"/>
      <point x="121" y="500" type="line"/>
      <point x="86" y="500" type="line"/>
      <point x="212" y="-44" type="line" smooth="yes"/>
      <point x="216" y="-63"/>
      <point x="219" y="-81"/>
      <point x="219" y="-97" type="curve" smooth="yes"/>
      <point x="219" y="-169"/>
      <point x="177" y="-213"/>
      <point x="106" y="-213" type="curve" smooth="yes"/>
      <point x="89" y="-213"/>
      <point x="70" y="-211"/>
      <point x="51" y="-209" type="curve"/>
      <point x="53" y="-243" type="line"/>
      <point x="71" y="-245"/>
      <point x="92" y="-247"/>
    </contour>
  </outline>
</glyph>
<glyph name="seen-ar" format="2">
  <advance width="1161"/>
  <unicode hex="0633"/>
  <anchor x="881" y="-100" name="bottom"/>
  <anchor x="725" y="573" name="top"/>
  <outline>
    <contour>
      <point x="415" y="-248" type="curve" smooth="yes"/>
      <point x="548" y="-248"/>
      <point x="654" y="-177"/>
      <point x="622" y="-38" type="curve" smooth="yes"/>
      <point x="509" y="450" type="line"/>
      <point x="474" y="450" type="line"/>
      <point x="587" y="-42" type="line" smooth="yes"/>
      <point x="612" y="-147"/>
      <point x="543" y="-214"/>
      <point x="413" y="-214" type="curve" smooth="yes"/>
      <point x="130" y="-214"/>
      <point x="127" y="-13"/>
      <point x="110" y="269" type="curve"/>
      <point x="75" y="271" type="line"/>
      <point x="92" y="-21"/>
      <point x="104" y="-248"/>
    </contour>
    <contour>
      <point x="613" y="0" type="line"/>
      <point x="747" y="0" type="line" smooth="yes"/>
      <point x="814" y="0"/>
      <point x="848" y="19"/>
      <point x="848" y="86" type="curve" smooth="yes"/>
      <point x="848" y="111"/>
      <point x="843" y="142"/>
      <point x="834" y="180" type="curve" smooth="yes"/>
      <point x="772" y="450" type="line"/>
      <point x="737" y="450" type="line"/>
      <point x="800" y="176" type="line" smooth="yes"/>
      <point x="809" y="138"/>
      <point x="814" y="110"/>
      <point x="814" y="89" type="curve" smooth="yes"/>
      <point x="814" y="44"/>
      <point x="792" y="34"/>
      <point x="742" y="34" type="curve" smooth="yes"/>
      <point x="605" y="34" type="line"/>
    </contour>
    <contour>
      <point x="940" y="0" type="curve" smooth="yes"/>
      <point x="1139" y="0" type="line"/>
      <point x="1074" y="280" type="line" smooth="yes"/>
      <point x="1062" y="333"/>
      <point x="1022" y="434"/>
      <point x="991" y="502" type="curve"/>
      <point x="959" y="491" type="line"/>
      <point x="996" y="409"/>
      <point x="1030" y="318"/>
      <point x="1040" y="276" type="curve" smooth="yes"/>
      <point x="1103" y="0" type="line"/>
      <point x="1130" y="34" type="line"/>
      <point x="935" y="34" type="line" smooth="yes"/>
      <point x="900" y="34"/>
      <point x="866" y="48"/>
      <point x="826" y="77" type="curve"/>
      <point x="808" y="50" type="line"/>
      <point x="855" y="14"/>
      <point x="899" y="0"/>
    </contour>
  </outline>
</glyph>
<glyph name="sad-ar" format="2">
  <advance width="1170"/>
  <unicode hex="0635"/>
  <anchor x="892" y="-100" name="bottom"/>
  <anchor x="736" y="573" name="top"/>
  <outline>
    <contour>
      <point x="415" y="-248" type="curve" smooth="yes"/>
      <point x="548" y="-248"/>
      <point x="654" y="-177"/>
      <point x="622" y="-38" type="curve" smooth="yes"/>
      <point x="497" y="500" type="line"/>
      <point x="462" y="500" type="line"/>
      <point x="587" y="-42" type="line" smooth="yes"/>
      <point x="612" y="-147"/>
      <point x="543" y="-214"/>
      <point x="413" y="-214" type="curve" smooth="yes"/>
      <point x="130" y="-214"/>
      <point x="127" y="-13"/>
      <point x="110" y="269" type="curve"/>
      <point x="75" y="271" type="line"/>
      <point x="92" y="-21"/>
      <point x="104" y="-248"/>
    </contour>
    <contour>
      <point x="613" y="0" type="line"/>
      <point x="1148" y="0" type="line"/>
      <point x="1092" y="243" type="line" smooth="yes"/>
      <point x="1066" y="355"/>
      <point x="991" y="500"/>
      <point x="802" y="500" type="curve" smooth="yes"/>
      <point x="635" y="500"/>
      <point x="580" y="387"/>
      <point x="521" y="284" type="curve"/>
      <point x="550" y="265" type="line"/>
      <point x="612" y="372"/>
      <point x="662" y="466"/>
      <point x="803" y="466" type="curve" smooth="yes"/>
      <point x="937" y="466"/>
      <point x="1024" y="383"/>
      <point x="1057" y="239" type="curve" smooth="yes"/>
      <point x="1110" y="10" type="line"/>
      <point x="1129" y="34" type="line"/>
      <point x="605" y="34" type="line"/>
    </contour>
  </outline>
</glyph>
<glyph name="tah-ar" format="2">
  <advance width="737"/>
  <unicode hex="0637"/>
  <anchor x="459" y="-100" name="bottom"/>
  <anchor x="303" y="573" name="top"/>
  <outline>
    <contour>
      <point x="78" y="0" type="line"/>
      <point x="715" y="0" type="line"/>
      <point x="659" y="243" type="line" smooth="yes"/>
      <point x="633" y="355"/>
      <point x="558" y="500"/>
      <point x="369" y="500" type="curve" smooth="yes"/>
      <point x="202" y="500"/>
      <point x="147" y="387"/>
      <point x="88" y="284" type="curve"/>
      <point x="117" y="265" type="line"/>
      <point x="181" y="376"/>
      <point x="231" y="466"/>
      <point x="370" y="466" type="curve" smooth="yes"/>
      <point x="505" y="466"/>
      <point x="591" y="382"/>
      <point x="624" y="239" type="curve" smooth="yes"/>
      <point x="677" y="10" type="line"/>
      <point x="696" y="34" type="line"/>
      <point x="70" y="34" type="line"/>
    </contour>
    <contour>
      <point x="137" y="34" type="line"/>
      <point x="172" y="34" type="line"/>
      <point x="11" y="730" type="line"/>
      <point x="-24" y="730" type="line"/>
    </contour>
  </outline>
</glyph>
<glyph name="ain-ar" format="2">
  <advance width="521"/>
  <unicode hex="0639"/>
  <anchor x="431" y="-400" name="bottom"/>
  <anchor x="204" y="573" name="top"/>
  <outline>
    <contour>
      <point x="380" y="-308" type="curve" smooth="yes"/>
      <point x="431" y="-308"/>
      <point x="486" y="-299"/>
      <point x="524" y="-290" type="curve"/>
      <point x="513" y="-261" type="line"/>
      <point x="449" y="-270"/>
      <point x="407" y="-274"/>
      <point x="375" y="-274" type="curve" smooth="yes"/>
      <point x="225" y="-274"/>
      <point x="159" y="-188"/>
      <point x="159" y="-102" type="curve" smooth="yes"/>
      <point x="159" y="-31"/>
      <point x="203" y="0"/>
      <point x="309" y="0" type="curve" smooth="yes"/>
      <point x="519" y="0" type="line"/>
      <point x="511" y="34" type="line"/>
      <point x="304" y="34" type="line" smooth="yes"/>
      <point x="182" y="34"/>
      <point x="124" y="-10"/>
      <point x="124" y="-99" type="curve" smooth="yes"/>
      <point x="124" y="-206"/>
      <point x="207" y="-308"/>
    </contour>
    <contour>
      <point x="222" y="2" type="curve"/>
      <point x="240" y="30" type="line"/>
      <point x="132" y="107"/>
      <point x="86" y="212"/>
      <point x="86" y="295" type="curve" smooth="yes"/>
      <point x="86" y="397"/>
      <point x="155" y="466"/>
      <point x="263" y="466" type="curve" smooth="yes"/>
      <point x="302" y="466"/>
      <point x="346" y="457"/>
      <point x="385" y="444" type="curve"/>
      <point x="391" y="478" type="line"/>
      <point x="347" y="493"/>
      <point x="299" y="500"/>
      <point x="262" y="500" type="curve" smooth="yes"/>
      <point x="134" y="500"/>
      <point x="51" y="417"/>
      <point x="51" y="298" type="curve" smooth="yes"/>
      <point x="51" y="204"/>
      <point x="103" y="86"/>
    </contour>
  </outline>
</glyph>
<glyph name="meem-ar" format="2">
  <advance width="588"/>
  <unicode hex="0645"/>
  <anchor x="421" y="-388" name="bottom"/>
  <anchor x="199" y="573" name="top"/>
  <outline>
    <contour>
      <point x="199" y="-335" type="curve"/>
      <point x="231" y="-327" type="line"/>
      <point x="190" y="-227"/>
      <point x="157" y="-146"/>
      <point x="157" y="-81" type="curve" smooth="yes"/>
      <point x="157" y="-8"/>
      <point x="207" y="0"/>
      <point x="241" y="0" type="curve" smooth="yes"/>
      <point x="305" y="0"/>
      <point x="458" y="0"/>
      <point x="564" y="0" type="curve"/>
      <point x="509" y="247" type="line" smooth="yes"/>
      <point x="466" y="434"/>
      <point x="372" y="500"/>
      <point x="215" y="500" type="curve" smooth="yes"/>
      <point x="140" y="500"/>
      <point x="78" y="484"/>
      <point x="55" y="471" type="curve"/>
      <point x="53" y="424"/>
      <point x="60" y="325"/>
      <point x="83" y="225" type="curve" smooth="yes"/>
      <point x="108" y="115"/>
      <point x="148" y="19"/>
      <point x="160" y="-2" type="curve"/>
      <point x="190" y="13" type="line"/>
      <point x="180" y="31"/>
      <point x="142" y="122"/>
      <point x="116" y="231" type="curve" smooth="yes"/>
      <point x="95" y="326"/>
      <point x="87" y="422"/>
      <point x="88" y="467" type="curve"/>
      <point x="73" y="443" type="line"/>
      <point x="100" y="457"/>
      <point x="163" y="466"/>
      <point x="217" y="466" type="curve" smooth="yes"/>
      <point x="365" y="466"/>
      <point x="438" y="402"/>
      <point x="475" y="243" type="curve" smooth="yes"/>
      <point x="530" y="0" type="line"/>
      <point x="559" y="34" type="line"/>
      <point x="455" y="34"/>
      <point x="298" y="34"/>
      <point x="239" y="34" type="curve" smooth="yes"/>
      <point x="162" y="34"/>
      <point x="123" y="-7"/>
      <point x="123" y="-80" type="curve" smooth="yes"/>
      <point x="123" y="-139"/>
      <point x="150" y="-216"/>
    </contour>
  </outline>
</glyph>
<glyph name="alefMaksura-ar" format="2">
  <advance width="877"/>
  <unicode hex="0649"/>
  <anchor x="551" y="-300" name="bottom"/>
  <anchor x="92" y="266" name="top"/>
  <outline>
    <contour>
      <point x="700" y="-248" type="line" smooth="yes"/>
      <point x="819" y="-248"/>
      <point x="875" y="-189"/>
      <point x="875" y="-78" type="curve" smooth="yes"/>
      <point x="875" y="-63"/>
      <point x="874" y="-37"/>
      <point x="868" y="-8" type="curve" smooth="yes"/>
      <point x="839" y="133"/>
      <point x="739" y="161"/>
      <point x="630" y="190" type="curve" smooth="yes"/>
      <point x="505" y="223"/>
      <point x="438" y="243"/>
      <point x="418" y="339" type="curve" smooth="yes"/>
      <point x="415" y="354"/>
      <point x="413" y="367"/>
      <point x="413" y="380" type="curve" smooth="yes"/>
      <point x="413" y="440"/>
      <point x="454" y="466"/>
      <point x="536" y="466" type="curve" smooth="yes"/>
      <point x="576" y="466"/>
      <point x="640" y="460"/>
      <point x="732" y="449" type="curve"/>
      <point x="729" y="480" type="line"/>
      <point x="625" y="494"/>
      <point x="576" y="500"/>
      <point x="535" y="500" type="curve" smooth="yes"/>
      <point x="432" y="500"/>
      <point x="379" y="461"/>
      <point x="379" y="383" type="curve" smooth="yes"/>
      <point x="379" y="368"/>
      <point x="381" y="351"/>
      <point x="385" y="333" type="curve" smooth="yes"/>
      <point x="413" y="206"/>
      <point x="507" y="188"/>
      <point x="624" y="156" type="curve" smooth="yes"/>
      <point x="742" y="124"/>
      <point x="811" y="99"/>
      <point x="833" y="-9" type="curve" smooth="yes"/>
      <point x="839" y="-38"/>
      <point x="840" y="-66"/>
      <point x="840" y="-80" type="curve" smooth="yes"/>
      <point x="840" y="-172"/>
      <point x="796" y="-214"/>
      <point x="695" y="-214" type="curve" smooth="yes"/>
      <point x="412" y="-214" type="line" smooth="yes"/>
      <point x="279" y="-214"/>
      <point x="170" y="-154"/>
      <point x="137" y="-11" type="curve" smooth="yes"/>
      <point x="128" y="27"/>
      <point x="124" y="75"/>
      <point x="116" y="183" type="curve"/>
      <point x="81" y="184" type="line"/>
      <point x="87" y="103"/>
      <point x="94" y="15"/>
      <point x="108" y="-37" type="curve" smooth="yes"/>
      <point x="147" y="-183"/>
      <point x="281" y="-248"/>
      <point x="417" y="-248" type="curve" smooth="yes"/>
    </contour>
  </outline>
</glyph>
<glyph name="dammatan-ar" format="2">
  <unicode hex="064C"/>
  <anchor x="48" y="555" name="_top"/>
  <anchor x="7" y="734" name="top"/>
  <outline>
    <contour>
      <point x="-30" y="555" type="line"/>
      <point x="2" y="564" type="line"/>
      <point x="-36" y="639" type="line"/>
      <point x="-69" y="630" type="line"/>
    </contour>
    <contour>
      <point x="-30" y="555" type="line"/>
      <point x="4" y="555" type="line"/>
      <point x="-4" y="589" type="line"/>
      <point x="-38" y="589" type="line"/>
    </contour>
    <component base="damma-ar" xOffset="21"/>
  </outline>
</glyph>
<glyph name="shadda-ar" format="2">
  <unicode hex="0651"/>
  <anchor x="71" y="442" name="_top"/>
  <anchor x="40" y="573" name="top"/>
  <outline>
    <contour>
      <point x="107" y="442" type="curve" smooth="yes"/>
      <point x="139" y="442"/>
      <point x="153" y="459"/>
      <point x="153" y="487" type="curve" smooth="yes"/>
      <point x="153" y="505"/>
      <point x="147" y="529"/>
      <point x="135" y="555" type="curve"/>
      <point x="103" y="544" type="line"/>
      <point x="115" y="518"/>
      <point x="120" y="501"/>
      <point x="120" y="491" type="curve" smooth="yes"/>
      <point x="120" y="480"/>
      <point x="115" y="476"/>
      <point x="105" y="476" type="curve" smooth="yes"/>
      <point x="82" y="476"/>
      <point x="77" y="490"/>
      <point x="66" y="534" type="curve"/>
      <point x="32" y="534" type="line"/>
      <point x="47" y="468"/>
      <point x="61" y="442"/>
    </contour>
    <contour>
      <point x="29" y="442" type="curve" smooth="yes"/>
      <point x="61" y="442"/>
      <point x="75" y="460"/>
      <point x="75" y="487" type="curve" smooth="yes"/>
      <point x="75" y="495"/>
      <point x="73" y="507"/>
      <point x="66" y="534" type="curve"/>
      <point x="32" y="534" type="line"/>
      <point x="35" y="523"/>
      <point x="40" y="503"/>
      <point x="41" y="490" type="curve" smooth="yes"/>
      <point x="41" y="479"/>
      <point x="36" y="476"/>
      <point x="27" y="476" type="curve" smooth="yes"/>
      <point x="4" y="476"/>
      <point x="-9" y="496"/>
      <point x="-10" y="548" type="curve"/>
      <point x="-44" y="551" type="line"/>
      <point x="-43" y="485"/>
      <point x="-22" y="442"/>
    </contour>
  </outline>
</glyph>
<glyph name="sukun-ar" format="2">
  <unicode hex="0652"/>
  <anchor x="56" y="453" name="_top"/>
  <anchor x="7" y="667" name="top"/>
  <outline>
    <contour>
      <point x="52" y="453" type="curve" smooth="yes"/>
      <point x="93" y="453"/>
      <point x="120" y="481"/>
      <point x="120" y="519" type="curve" smooth="yes"/>
      <point x="120" y="570"/>
      <point x="71" y="617"/>
      <point x="20" y="617" type="curve" smooth="yes"/>
      <point x="-20" y="617"/>
      <point x="-47" y="588"/>
      <point x="-47" y="550" type="curve" smooth="yes"/>
      <point x="-47" y="497"/>
      <point x="2" y="453"/>
    </contour>
    <contour>
      <point x="50" y="487" type="curve" smooth="yes"/>
      <point x="19" y="487"/>
      <point x="-12" y="515"/>
      <point x="-12" y="548" type="curve" smooth="yes"/>
      <point x="-12" y="569"/>
      <point x="2" y="583"/>
      <point x="22" y="583" type="curve" smooth="yes"/>
      <point x="54" y="583"/>
      <point x="85" y="552"/>
      <point x="85" y="520" type="curve" smooth="yes"/>
      <point x="85" y="501"/>
      <point x="72" y="487"/>
    </contour>
  </outline>
</glyph>
<glyph name="madda-ar" format="2">
  <unicode hex="0653"/>
  <anchor x="46" y="596" name="_top"/>
  <anchor x="14" y="733" name="top"/>
  <outline>
    <contour>
      <point x="-40" y="593" type="line"/>
      <point x="2" y="647" type="line"/>
      <point x="-33" y="651" type="line"/>
      <point x="-12" y="612"/>
      <point x="31" y="596"/>
      <point x="64" y="596" type="curve" smooth="yes"/>
      <point x="110" y="596"/>
      <point x="139" y="626"/>
      <point x="142" y="665" type="curve"/>
      <point x="147" y="643" type="line"/>
      <point x="124" y="660" type="line"/>
      <point x="129" y="672" type="line"/>
      <point x="128" y="642"/>
      <point x="98" y="630"/>
      <point x="69" y="630" type="curve" smooth="yes"/>
      <point x="38" y="630"/>
      <point x="0" y="646"/>
      <point x="-17" y="676" type="curve"/>
      <point x="18" y="660" type="line"/>
      <point x="-36" y="660" type="line"/>
      <point x="-63" y="611" type="line"/>
    </contour>
  </outline>
</glyph>
<glyph name="one-ar" format="2">
  <advance width="275"/>
  <unicode hex="0661"/>
  <outline>
    <contour>
      <point x="178" y="0" type="line"/>
      <point x="213" y="0" type="line"/>
      <point x="60" y="660" type="line"/>
      <point x="25" y="660" type="line"/>
    </contour>
  </outline>
</glyph>
<glyph name="two-ar" format="2">
  <advance width="501"/>
  <unicode hex="0662"/>
  <outline>
    <contour>
      <point x="178" y="0" type="line"/>
      <point x="213" y="0" type="line"/>
      <point x="61" y="660" type="line"/>
      <point x="34" y="626" type="line"/>
      <point x="374" y="626" type="line"/>
      <point x="366" y="660" type="line"/>
      <point x="25" y="660" type="line"/>
    </contour>
  </outline>
</glyph>
<glyph name="three-ar" format="2">
  <advance width="659"/>
  <unicode hex="0663"/>
  <outline>
    <contour>
      <point x="178" y="0" type="line"/>
      <point x="213" y="0" type="line"/>
      <point x="60" y="660" type="line"/>
      <point x="25" y="660" type="line"/>
    </contour>
    <contour>
      <point x="202" y="343" type="curve" smooth="yes"/>
      <point x="278" y="343"/>
      <point x="311" y="378"/>
      <point x="311" y="445" type="curve" smooth="yes"/>
      <point x="311" y="461"/>
      <point x="309" y="480"/>
      <point x="304" y="502" type="curve" smooth="yes"/>
      <point x="267" y="660" type="line"/>
      <point x="232" y="660" type="line"/>
      <point x="270" y="498" type="line" smooth="yes"/>
      <point x="275" y="477"/>
      <point x="277" y="459"/>
      <point x="277" y="445" type="curve" smooth="yes"/>
      <point x="277" y="397"/>
      <point x="254" y="377"/>
      <point x="200" y="377" type="curve" smooth="yes"/>
      <point x="164" y="377"/>
      <point x="133" y="386"/>
      <point x="106" y="404" type="curve"/>
      <point x="104" y="366" type="line"/>
      <point x="135" y="350"/>
      <point x="168" y="343"/>
    </contour>
    <contour>
      <point x="410" y="343" type="curve" smooth="yes"/>
      <point x="484" y="343"/>
      <point x="518" y="378"/>
      <point x="518" y="445" type="curve" smooth="yes"/>
      <point x="518" y="461"/>
      <point x="516" y="480"/>
      <point x="511" y="502" type="curve" smooth="yes"/>
      <point x="474" y="660" type="line"/>
      <point x="439" y="660" type="line"/>
      <point x="477" y="498" type="line" smooth="yes"/>
      <point x="482" y="477"/>
      <point x="484" y="459"/>
      <point x="484" y="445" type="curve" smooth="yes"/>
      <point x="484" y="397"/>
      <point x="460" y="377"/>
      <point x="407" y="377" type="curve" smooth="yes"/>
      <point x="361" y="377"/>
      <point x="322" y="392"/>
      <point x="289" y="421" type="curve"/>
      <point x="268" y="396" type="line"/>
      <point x="307" y="361"/>
      <point x="357" y="343"/>
    </contour>
  </outline>
</glyph>
<glyph name="five-ar" format="2">
  <advance width="666"/>
  <unicode hex="0665"/>
  <outline>
    <contour>
      <point x="383" y="-4" type="curve" smooth="yes"/>
      <point x="529" y="-4"/>
      <point x="594" y="95"/>
      <point x="594" y="188" type="curve" smooth="yes"/>
      <point x="594" y="321"/>
      <point x="459" y="664"/>
      <point x="244" y="664" type="curve" smooth="yes"/>
      <point x="106" y="664"/>
      <point x="58" y="522"/>
      <point x="58" y="393" type="curve" smooth="yes"/>
      <point x="58" y="189"/>
      <point x="178" y="-4"/>
    </contour>
    <contour>
      <point x="383" y="30" type="curve" smooth="yes"/>
      <point x="192" y="30"/>
      <point x="90" y="218"/>
      <point x="90" y="391" type="curve" smooth="yes"/>
      <point x="90" y="521"/>
      <point x="147" y="630"/>
      <point x="247" y="630" type="curve" smooth="yes"/>
      <point x="410" y="630"/>
      <point x="559" y="344"/>
      <point x="559" y="193" type="curve" smooth="yes"/>
      <point x="559" y="92"/>
      <point x="493" y="30"/>
    </contour>
  </outline>
</glyph>
<glyph name="six-ar" format="2">
  <advance width="455"/>
  <unicode hex="0666"/>
  <outline>
    <contour>
      <point x="358" y="0" type="line"/>
      <point x="393" y="0" type="line"/>
      <point x="240" y="660" type="line"/>
      <point x="-65" y="660" type="line"/>
      <point x="-57" y="626" type="line"/>
      <point x="249" y="626" type="line"/>
      <point x="206" y="660" type="line"/>
    </contour>
  </outline>
</glyph>
<glyph name="thousandseparator-ar" format="2">
  <advance width="177"/>
  <unicode hex="066C"/>
  <outline>
    <contour>
      <point x="159" y="-127" type="line"/>
      <point x="180" y="-127" type="line"/>
      <point x="144" y="32" type="line"/>
      <point x="114" y="32" type="line"/>
    </contour>
  </outline>
</glyph>
<glyph name="qafDotless-ar" format="2">
  <advance width="867"/>
  <unicode hex="066F"/>
  <anchor x="575" y="-360" name="bottom"/>
  <anchor x="532" y="573" name="top"/>
  <outline>
    <contour>
      <point x="421" y="-266" type="curve" smooth="yes"/>
      <point x="653" y="-266" type="line" smooth="yes"/>
      <point x="784" y="-266"/>
      <point x="890" y="-195"/>
      <point x="858" y="-56" type="curve" smooth="yes"/>
      <point x="729" y="500" type="line"/>
      <point x="551" y="500" type="line" smooth="yes"/>
      <point x="398" y="500"/>
      <point x="369" y="442"/>
      <point x="369" y="344" type="curve" smooth="yes"/>
      <point x="369" y="208"/>
      <point x="425" y="0"/>
      <point x="663" y="0" type="curve" smooth="yes"/>
      <point x="810" y="0" type="line"/>
      <point x="802" y="34" type="line"/>
      <point x="658" y="34" type="line" smooth="yes"/>
      <point x="456" y="34"/>
      <point x="403" y="210"/>
      <point x="403" y="343" type="curve" smooth="yes"/>
      <point x="403" y="426"/>
      <point x="424" y="466"/>
      <point x="556" y="466" type="curve" smooth="yes"/>
      <point x="718" y="466" type="line"/>
      <point x="699" y="480" type="line"/>
      <point x="823" y="-60" type="line" smooth="yes"/>
      <point x="847" y="-161"/>
      <point x="784" y="-232"/>
      <point x="648" y="-232" type="curve" smooth="yes"/>
      <point x="416" y="-232" type="line" smooth="yes"/>
      <point x="130" y="-232"/>
      <point x="130" y="-23"/>
      <point x="114" y="266" type="curve"/>
      <point x="131" y="250" type="line"/>
      <point x="63" y="254" type="line"/>
      <point x="78" y="263" type="line"/>
      <point x="99" y="-38"/>
      <point x="102" y="-266"/>
    </contour>
  </outline>
</glyph>
<glyph name="fehDotless-ar" format="2">
  <advance width="1019"/>
  <unicode hex="06A1"/>
  <anchor x="451" y="-100" name="bottom"/>
  <anchor x="674" y="573" name="top"/>
  <outline>
    <contour>
      <point x="407" y="0" type="curve" smooth="yes"/>
      <point x="987" y="0" type="line"/>
      <point x="871" y="500" type="line"/>
      <point x="693" y="500" type="line" smooth="yes"/>
      <point x="540" y="500"/>
      <point x="511" y="442"/>
      <point x="511" y="344" type="curve" smooth="yes"/>
      <point x="511" y="208"/>
      <point x="567" y="0"/>
      <point x="805" y="0" type="curve"/>
      <point x="800" y="34" type="line"/>
      <point x="598" y="34"/>
      <point x="545" y="210"/>
      <point x="545" y="343" type="curve" smooth="yes"/>
      <point x="545" y="426"/>
      <point x="566" y="466"/>
      <point x="698" y="466" type="curve" smooth="yes"/>
      <point x="860" y="466" type="line"/>
      <point x="841" y="480" type="line"/>
      <point x="951" y="0" type="line"/>
      <point x="978" y="34" type="line"/>
      <point x="402" y="34" type="line" smooth="yes"/>
      <point x="157" y="34"/>
      <point x="93" y="134"/>
      <point x="82" y="386" type="curve"/>
      <point x="47" y="392" type="line"/>
      <point x="47" y="106"/>
      <point x="134" y="0"/>
    </contour>
  </outline>
</glyph>
<glyph name="keheh-ar" format="2">
  <advance width="751"/>
  <unicode hex="06A9"/>
  <anchor x="479" y="-100" name="bottom"/>
  <anchor x="151" y="730" name="top"/>
  <outline>
    <contour>
      <point x="68" y="386" type="curve"/>
      <point x="33" y="392" type="line" smooth="yes"/>
      <point x="33" y="339"/>
      <point x="39" y="256"/>
      <point x="49" y="210" type="curve" smooth="yes"/>
      <point x="83" y="65"/>
      <point x="194" y="0"/>
      <point x="393" y="0" type="curve" smooth="yes"/>
      <point x="729" y="0" type="line"/>
      <point x="679" y="215" type="line" smooth="yes"/>
      <point x="657" y="309"/>
      <point x="593" y="432"/>
      <point x="434" y="432" type="curve" smooth="yes"/>
      <point x="217" y="432" type="line"/>
      <point x="234" y="511"/>
      <point x="261" y="587"/>
      <point x="308" y="688" type="curve"/>
      <point x="277" y="705" type="line"/>
      <point x="234" y="608"/>
      <point x="224" y="580"/>
      <point x="183" y="445" type="curve"/>
      <point x="224" y="398" type="line"/>
      <point x="439" y="398" type="line" smooth="yes"/>
      <point x="544" y="398"/>
      <point x="617" y="330"/>
      <point x="645" y="211" type="curve" smooth="yes"/>
      <point x="686" y="34" type="line"/>
      <point x="388" y="34" type="line" smooth="yes"/>
      <point x="205" y="34"/>
      <point x="112" y="92"/>
      <point x="83" y="216" type="curve" smooth="yes"/>
      <point x="75" y="252"/>
      <point x="71" y="294"/>
    </contour>
  </outline>
</glyph>
<glyph name="gaf-ar" format="2">
  <advance width="751"/>
  <unicode hex="06AF"/>
  <anchor x="479" y="-100" name="bottom"/>
  <anchor x="211" y="809" name="top"/>
  <outline>
    <contour>
      <point x="128" y="510" type="curve"/>
      <point x="157" y="477" type="line"/>
      <point x="186" y="583"/>
      <point x="196" y="614"/>
      <point x="242" y="725" type="curve"/>
      <point x="212" y="742" type="line"/>
      <point x="178" y="662"/>
      <point x="159" y="608"/>
    </contour>
    <component base="keheh-ar"/>
  </outline>
</glyph>
<glyph name="noonghunna-ar" format="2">
  <advance width="635"/>
  <unicode hex="06BA"/>
  <anchor x="442" y="-330" name="bottom"/>
  <anchor x="242" y="500" name="top"/>
  <outline>
    <contour>
      <point x="415" y="-248" type="curve" smooth="yes"/>
      <point x="548" y="-248"/>
      <point x="654" y="-177"/>
      <point x="622" y="-38" type="curve" smooth="yes"/>
      <point x="497" y="500" type="line"/>
      <point x="462" y="500" type="line"/>
      <point x="587" y="-42" type="line" smooth="yes"/>
      <point x="612" y="-147"/>
      <point x="543" y="-214"/>
      <point x="413" y="-214" type="curve" smooth="yes"/>
      <point x="125" y="-214"/>
      <point x="127" y="-6"/>
      <point x="109" y="284" type="curve"/>
      <point x="126" y="268" type="line"/>
      <point x="59" y="272" type="line"/>
      <point x="74" y="281" type="line"/>
      <point x="92" y="-16"/>
      <point x="100" y="-248"/>
    </contour>
  </outline>
</glyph>
<glyph name="five-persian" format="2">
  <advance width="540"/>
  <unicode hex="06F5"/>
  <outline>
    <contour>
      <point x="233" y="0" type="curve" smooth="yes"/>
      <point x="288" y="0"/>
      <point x="306" y="54"/>
      <point x="303" y="94" type="curve"/>
      <point x="304" y="94"/>
      <point x="307" y="90"/>
      <point x="311" y="83" type="curve"/>
      <point x="326" y="59"/>
      <point x="362" y="0"/>
      <point x="417" y="0" type="curve" smooth="yes"/>
      <point x="463" y="0"/>
      <point x="495" y="38"/>
      <point x="495" y="109" type="curve" smooth="yes"/>
      <point x="495" y="352"/>
      <point x="254" y="511"/>
      <point x="72" y="633" type="curve"/>
      <point x="55" y="604" type="line"/>
      <point x="105" y="570"/>
      <point x="154" y="537"/>
      <point x="198" y="504" type="curve"/>
      <point x="123" y="450"/>
      <point x="79" y="357"/>
      <point x="79" y="254" type="curve" smooth="yes"/>
      <point x="79" y="161"/>
      <point x="128" y="0"/>
    </contour>
    <contour>
      <point x="233" y="34" type="curve" smooth="yes"/>
      <point x="154" y="34"/>
      <point x="114" y="170"/>
      <point x="114" y="252" type="curve" smooth="yes"/>
      <point x="114" y="344"/>
      <point x="151" y="433"/>
      <point x="227" y="482" type="curve"/>
      <point x="366" y="373"/>
      <point x="461" y="261"/>
      <point x="461" y="110" type="curve" smooth="yes"/>
      <point x="461" y="56"/>
      <point x="438" y="34"/>
      <point x="414" y="34" type="curve" smooth="yes"/>
      <point x="386" y="34"/>
      <point x="368" y="60"/>
      <point x="351" y="85" type="curve" smooth="yes"/>
      <point x="335" y="107"/>
      <point x="321" y="128"/>
      <point x="301" y="128" type="curve" smooth="yes"/>
      <point x="279" y="128"/>
      <point x="275" y="106"/>
      <point x="270" y="84" type="curve" smooth="yes"/>
      <point x="265" y="59"/>
      <point x="260" y="34"/>
    </contour>
  </outline>
</glyph>
<glyph name="endash" format="2">
  <advance width="640"/>
  <unicode hex="2013"/>
  <outline>
    <contour>
      <point x="132" y="252" type="line"/>
      <point x="632" y="252" type="line"/>
      <point x="632" y="286" type="line"/>
      <point x="132" y="286" type="line"/>
    </contour>
  </outline>
</glyph>
<glyph name="emdash" format="2">
  <advance width="1140"/>
  <unicode hex="2014"/>
  <outline>
    <contour>
      <point x="132" y="252" type="line"/>
      <point x="1132" y="252" type="line"/>
      <point x="1132" y="286" type="line"/>
      <point x="132" y="286" type="line"/>
    </contour>
  </outline>
</glyph>
<glyph name="quoteright" format="2">
  <advance width="185"/>
  <unicode hex="2019"/>
  <outline>
    <contour>
      <point x="174" y="498" type="line"/>
      <point x="201" y="498" type="line"/>
      <point x="294" y="700" type="line"/>
      <point x="256" y="700" type="line"/>
    </contour>
  </outline>
</glyph>
<glyph name="quotesinglbase" format="2">
  <advance width="187"/>
  <unicode hex="201A"/>
  <outline>
    <contour>
      <point x="13" y="-112" type="line"/>
      <point x="51" y="-112" type="line"/>
      <point x="133" y="90" type="line"/>
      <point x="106" y="90" type="line"/>
    </contour>
  </outline>
</glyph>
<glyph name="quotedblleft" format="2">
  <advance width="322"/>
  <unicode hex="201C"/>
  <outline>
    <contour>
      <point x="172" y="498" type="line"/>
      <point x="210" y="498" type="line"/>
      <point x="292" y="700" type="line"/>
      <point x="265" y="700" type="line"/>
    </contour>
    <contour>
      <point x="309" y="498" type="line"/>
      <point x="347" y="498" type="line"/>
      <point x="429" y="700" type="line"/>
      <point x="402" y="700" type="line"/>
    </contour>
  </outline>
</glyph>
<glyph name="quotedblright" format="2">
  <advance width="322"/>
  <unicode hex="201D"/>
  <outline>
    <contour>
      <point x="174" y="498" type="line"/>
      <point x="201" y="498" type="line"/>
      <point x="294" y="700" type="line"/>
      <point x="256" y="700" type="line"/>
    </contour>
    <contour>
      <point x="311" y="498" type="line"/>
      <point x="338" y="498" type="line"/>
      <point x="431" y="700" type="line"/>
      <point x="393" y="700" type="line"/>
    </contour>
  </outline>
</glyph>
<glyph name="quotedblbase" format="2">
  <advance width="310"/>
  <unicode hex="201E"/>
  <outline>
    <contour>
      <point x="13" y="-112" type="line"/>
      <point x="51" y="-112" type="line"/>
      <point x="133" y="90" type="line"/>
      <point x="106" y="90" type="line"/>
    </contour>
    <contour>
      <point x="143" y="-112" type="line"/>
      <point x="181" y="-112" type="line"/>
      <point x="263" y="90" type="line"/>
      <point x="236" y="90" type="line"/>
    </contour>
  </outline>
</glyph>
<glyph name="daggerdbl" format="2">
  <advance width="487"/>
  <unicode hex="2021"/>
  <outline>
    <contour>
      <point x="207" y="-78" type="line"/>
      <point x="240" y="-78" type="line"/>
      <point x="287" y="124" type="line"/>
      <point x="459" y="122" type="line"/>
      <point x="468" y="158" type="line"/>
      <point x="296" y="158" type="line"/>
      <point x="367" y="462" type="line"/>
      <point x="540" y="460" type="line"/>
      <point x="550" y="498" type="line"/>
      <point x="377" y="498" type="line"/>
      <point x="423" y="698" type="line"/>
      <point x="390" y="698" type="line"/>
      <point x="342" y="496" type="line"/>
      <point x="171" y="498" type="line"/>
      <point x="162" y="460" type="line"/>
      <point x="333" y="460" type="line"/>
      <point x="262" y="156" type="line"/>
      <point x="89" y="158" type="line"/>
      <point x="81" y="122" type="line"/>
      <point x="254" y="122" type="line"/>
    </contour>
  </outline>
</glyph>
<glyph name="bullet" format="2">
  <advance width="503"/>
  <unicode hex="2022"/>
  <outline>
    <contour>
      <point x="185" y="110" type="line"/>
      <point x="435" y="110" type="line"/>
      <point x="435" y="400" type="line"/>
      <point x="185" y="400" type="line"/>
    </contour>
  </outline>
</glyph>
<glyph name="perthousand" format="2">
  <advance width="805"/>
  <unicode hex="2030"/>
  <outline>
    <contour>
      <point x="195" y="1" type="line"/>
      <point x="552" y="693" type="line"/>
      <point x="521" y="701" type="line"/>
      <point x="164" y="8" type="line"/>
    </contour>
    <contour>
      <point x="408" y="0" type="curve" smooth="yes"/>
      <point x="468" y="0"/>
      <point x="521" y="42"/>
      <point x="545" y="138" type="curve" smooth="yes"/>
      <point x="569" y="234"/>
      <point x="536" y="272"/>
      <point x="475" y="272" type="curve" smooth="yes"/>
      <point x="413" y="272"/>
      <point x="363" y="234"/>
      <point x="339" y="139" type="curve" smooth="yes"/>
      <point x="315" y="42"/>
      <point x="347" y="0"/>
    </contour>
    <contour>
      <point x="415" y="32" type="curve" smooth="yes"/>
      <point x="366" y="32"/>
      <point x="357" y="70"/>
      <point x="374" y="139" type="curve" smooth="yes"/>
      <point x="391" y="206"/>
      <point x="418" y="240"/>
      <point x="467" y="240" type="curve" smooth="yes"/>
      <point x="517" y="240"/>
      <point x="527" y="206"/>
      <point x="510" y="138" type="curve" smooth="yes"/>
      <point x="493" y="70"/>
      <point x="465" y="32"/>
    </contour>
    <contour>
      <point x="235" y="429" type="curve" smooth="yes"/>
      <point x="295" y="429"/>
      <point x="349" y="471"/>
      <point x="373" y="567" type="curve" smooth="yes"/>
      <point x="397" y="663"/>
      <point x="364" y="701"/>
      <point x="303" y="701" type="curve" smooth="yes"/>
      <point x="241" y="701"/>
      <point x="191" y="663"/>
      <point x="167" y="568" type="curve" smooth="yes"/>
      <point x="143" y="471"/>
      <point x="174" y="429"/>
    </contour>
    <contour>
      <point x="243" y="461" type="curve" smooth="yes"/>
      <point x="194" y="461"/>
      <point x="185" y="500"/>
      <point x="202" y="568" type="curve" smooth="yes"/>
      <point x="219" y="635"/>
      <point x="246" y="669"/>
      <point x="295" y="669" type="curve" smooth="yes"/>
      <point x="345" y="669"/>
      <point x="355" y="635"/>
      <point x="338" y="567" type="curve" smooth="yes"/>
      <point x="321" y="499"/>
      <point x="293" y="461"/>
    </contour>
    <contour>
      <point x="666" y="0" type="curve" smooth="yes"/>
      <point x="726" y="0"/>
      <point x="779" y="42"/>
      <point x="803" y="138" type="curve" smooth="yes"/>
      <point x="827" y="234"/>
      <point x="794" y="272"/>
      <point x="733" y="272" type="curve" smooth="yes"/>
      <point x="671" y="272"/>
      <point x="621" y="234"/>
      <point x="597" y="139" type="curve" smooth="yes"/>
      <point x="573" y="42"/>
      <point x="605" y="0"/>
    </contour>
    <contour>
      <point x="673" y="32" type="curve" smooth="yes"/>
      <point x="624" y="32"/>
      <point x="615" y="70"/>
      <point x="632" y="139" type="curve" smooth="yes"/>
      <point x="649" y="206"/>
      <point x="676" y="240"/>
      <point x="725" y="240" type="curve" smooth="yes"/>
      <point x="775" y="240"/>
      <point x="785" y="206"/>
      <point x="768" y="138" type="curve" smooth="yes"/>
      <point x="751" y="70"/>
      <point x="723" y="32"/>
    </contour>
  </outline>
</glyph>
<glyph name="guilsinglright" format="2">
  <advance width="272"/>
  <unicode hex="203A"/>
  <outline>
    <contour>
      <point x="165" y="391" type="line"/>
      <point x="154" y="356" type="line"/>
      <point x="248" y="246" type="line"/>
      <point x="104" y="145" type="line"/>
      <point x="92" y="104" type="line"/>
      <point x="281" y="232" type="line"/>
      <point x="289" y="254" type="line"/>
    </contour>
  </outline>
</glyph>
<glyph name="fivesuperior" format="2">
  <advance width="280"/>
  <unicode hex="2075"/>
  <outline>
    <contour>
      <point x="250" y="469" type="curve" smooth="yes"/>
      <point x="309" y="469"/>
      <point x="357" y="495"/>
      <point x="378" y="576" type="curve" smooth="yes"/>
      <point x="396" y="648"/>
      <point x="359" y="675"/>
      <point x="307" y="675" type="curve" smooth="yes"/>
      <point x="276" y="675"/>
      <point x="248" y="662"/>
      <point x="236" y="653" type="curve"/>
      <point x="269" y="755" type="line"/>
      <point x="409" y="755" type="line"/>
      <point x="417" y="790" type="line"/>
      <point x="243" y="790" type="line"/>
      <point x="192" y="620" type="line"/>
      <point x="223" y="618" type="line"/>
      <point x="238" y="627"/>
      <point x="269" y="640"/>
      <point x="298" y="640" type="curve" smooth="yes"/>
      <point x="332" y="640"/>
      <point x="352" y="626"/>
      <point x="339" y="576" type="curve" smooth="yes"/>
      <point x="327" y="528"/>
      <point x="294" y="504"/>
      <point x="259" y="504" type="curve" smooth="yes"/>
      <point x="228" y="504"/>
      <point x="188" y="511"/>
      <point x="166" y="516" type="curve"/>
      <point x="154" y="481" type="line"/>
      <point x="176" y="476"/>
      <point x="217" y="469"/>
    </contour>
  </outline>
</glyph>
<glyph name="eightsuperior" format="2">
  <advance width="280"/>
  <unicode hex="2078"/>
  <outline>
    <contour>
      <point x="244" y="469" type="curve" smooth="yes"/>
      <point x="311" y="469"/>
      <point x="361" y="486"/>
      <point x="381" y="563" type="curve" smooth="yes"/>
      <point x="393" y="611"/>
      <point x="377" y="629"/>
      <point x="340" y="641" type="curve"/>
      <point x="386" y="654"/>
      <point x="404" y="674"/>
      <point x="414" y="717" type="curve" smooth="yes"/>
      <point x="428" y="772"/>
      <point x="397" y="799"/>
      <point x="327" y="799" type="curve" smooth="yes"/>
      <point x="256" y="799"/>
      <point x="213" y="777"/>
      <point x="198" y="717" type="curve" smooth="yes"/>
      <point x="188" y="674"/>
      <point x="201" y="656"/>
      <point x="236" y="642" type="curve"/>
      <point x="193" y="628"/>
      <point x="167" y="611"/>
      <point x="153" y="557" type="curve" smooth="yes"/>
      <point x="138" y="493"/>
      <point x="180" y="469"/>
    </contour>
    <contour>
      <point x="253" y="503" type="curve" smooth="yes"/>
      <point x="207" y="503"/>
      <point x="182" y="519"/>
      <point x="192" y="558" type="curve" smooth="yes"/>
      <point x="202" y="601"/>
      <point x="224" y="613"/>
      <point x="265" y="623" type="curve"/>
      <point x="301" y="623" type="line"/>
      <point x="338" y="613"/>
      <point x="352" y="601"/>
      <point x="343" y="562" type="curve" smooth="yes"/>
      <point x="332" y="519"/>
      <point x="302" y="503"/>
    </contour>
    <contour>
      <point x="274" y="660" type="line"/>
      <point x="239" y="672"/>
      <point x="228" y="683"/>
      <point x="236" y="717" type="curve" smooth="yes"/>
      <point x="244" y="749"/>
      <point x="267" y="765"/>
      <point x="318" y="765" type="curve" smooth="yes"/>
      <point x="369" y="765"/>
      <point x="384" y="749"/>
      <point x="376" y="716" type="curve" smooth="yes"/>
      <point x="368" y="683"/>
      <point x="353" y="671"/>
      <point x="310" y="660" type="curve"/>
    </contour>
  </outline>
</glyph>
<glyph name="Euro" format="2">
  <advance width="560"/>
  <unicode hex="20AC"/>
  <outline>
    <contour>
      <point x="143" y="389" type="line"/>
      <point x="534" y="389" type="line"/>
      <point x="541" y="421" type="line"/>
      <point x="151" y="421" type="line"/>
    </contour>
    <contour>
      <point x="106" y="227" type="line"/>
      <point x="497" y="227" type="line"/>
      <point x="504" y="259" type="line"/>
      <point x="114" y="259" type="line"/>
    </contour>
    <component base="C" xScale="0.945" yScale="0.945" xOffset="39"/>
  </outline>
</glyph>
<glyph name="trademark" format="2">
  <advance width="706"/>
  <unicode hex="2122"/>
  <outline>
    <contour>
      <point x="457" y="331" type="line"/>
      <point x="489" y="331" type="line"/>
      <point x="489" y="589" type="line"/>
      <point x="573" y="342" type="line"/>
      <point x="608" y="342" type="line"/>
      <point x="696" y="589" type="line"/>
      <point x="696" y="331" type="line"/>
      <point x="728" y="331" type="line"/>
      <point x="728" y="621" type="line"/>
      <point x="678" y="621" type="line"/>
      <point x="591" y="379" type="line"/>
      <point x="507" y="621" type="line"/>
      <point x="457" y="621" type="line"/>
    </contour>
    <contour>
      <point x="306" y="332" type="line"/>
      <point x="339" y="332" type="line"/>
      <point x="339" y="590" type="line"/>
      <point x="422" y="590" type="line"/>
      <point x="422" y="621" type="line"/>
      <point x="222" y="621" type="line"/>
      <point x="222" y="590" type="line"/>
      <point x="306" y="590" type="line"/>
    </contour>
  </outline>
</glyph>
<glyph name="partialdiff" format="2">
  <advance width="560"/>
  <unicode hex="2202"/>
  <outline>
    <contour>
      <point x="357" y="-9" type="curve" smooth="yes"/>
      <point x="509" y="-9"/>
      <point x="572" y="116"/>
      <point x="572" y="371" type="curve" smooth="yes"/>
      <point x="572" y="638"/>
      <point x="498" y="739"/>
      <point x="352" y="739" type="curve" smooth="yes"/>
      <point x="290" y="739"/>
      <point x="219" y="708"/>
      <point x="182" y="685" type="curve"/>
      <point x="186" y="653" type="line"/>
      <point x="224" y="675"/>
      <point x="293" y="705"/>
      <point x="346" y="705" type="curve" smooth="yes"/>
      <point x="479" y="705"/>
      <point x="532" y="608"/>
      <point x="535" y="391" type="curve"/>
      <point x="492" y="406"/>
      <point x="410" y="425"/>
      <point x="346" y="425" type="curve" smooth="yes"/>
      <point x="220" y="425"/>
      <point x="142" y="340"/>
      <point x="142" y="214" type="curve" smooth="yes"/>
      <point x="142" y="62"/>
      <point x="215" y="-9"/>
    </contour>
    <contour>
      <point x="357" y="25" type="curve" smooth="yes"/>
      <point x="242" y="25"/>
      <point x="178" y="92"/>
      <point x="178" y="214" type="curve" smooth="yes"/>
      <point x="178" y="318"/>
      <point x="241" y="391"/>
      <point x="348" y="391" type="curve" smooth="yes"/>
      <point x="407" y="391"/>
      <point x="490" y="371"/>
      <point x="536" y="356" type="curve"/>
      <point x="534" y="139"/>
      <point x="486" y="25"/>
    </contour>
  </outline>
</glyph>
<glyph name="Delta" format="2">
  <advance width="560"/>
  <unicode hex="2206"/>
  <outline>
    <contour>
      <point x="87" y="0" type="line"/>
      <point x="528" y="0" type="line"/>
      <point x="527" y="26" type="line"/>
      <point x="345" y="660" type="line"/>
      <point x="269" y="660" type="line"/>
      <point x="87" y="26" type="line"/>
    </contour>
    <contour>
      <point x="127" y="34" type="line"/>
      <point x="294" y="626" type="line"/>
      <point x="319" y="626" type="line"/>
      <point x="486" y="34" type="line"/>
    </contour>
  </outline>
</glyph>
<glyph name="product" format="2">
  <advance width="560"/>
  <unicode hex="220F"/>
  <outline>
    <contour>
      <point x="217" y="-151" type="line"/>
      <point x="253" y="-151" type="line"/>
      <point x="253" y="716" type="line"/>
      <point x="521" y="716" type="line"/>
      <point x="521" y="-151" type="line"/>
      <point x="557" y="-151" type="line"/>
      <point x="557" y="716" type="line"/>
      <point x="637" y="716" type="line"/>
      <point x="637" y="750" type="line"/>
      <point x="137" y="750" type="line"/>
      <point x="137" y="716" type="line"/>
      <point x="217" y="716" type="line"/>
    </contour>
  </outline>
</glyph>
<glyph name="minus" format="2">
  <advance width="560"/>
  <unicode hex="2212"/>
  <outline>
    <contour>
      <point x="127" y="234" type="line"/>
      <point x="549" y="234" type="line"/>
      <point x="549" y="268" type="line"/>
      <point x="127" y="268" type="line"/>
    </contour>
  </outline>
</glyph>
<glyph name="divisionslash" format="2">
  <advance width="600"/>
  <unicode hex="2215"/>
  <outline>
    <contour>
      <point x="127" y="-1" type="line"/>
      <point x="552" y="686" type="line"/>
      <point x="519" y="700" type="line"/>
      <point x="94" y="12" type="line"/>
    </contour>
  </outline>
</glyph>
<glyph name="radical" format="2">
  <advance width="560"/>
  <unicode hex="221A"/>
  <outline>
    <contour>
      <point x="341" y="-140" type="line"/>
      <point x="401" y="-140" type="line"/>
      <point x="682" y="768" type="line"/>
      <point x="645" y="768" type="line"/>
      <point x="376" y="-108" type="line"/>
      <point x="368" y="-108" type="line"/>
      <point x="216" y="450" type="line"/>
      <point x="175" y="450" type="line"/>
    </contour>
    <contour>
      <point x="123" y="416" type="line"/>
      <point x="215" y="416" type="line"/>
      <point x="215" y="450" type="line"/>
      <point x="123" y="450" type="line"/>
    </contour>
  </outline>
</glyph>
<glyph name="approxequal" format="2">
  <advance width="560"/>
  <unicode hex="2248"/>
  <outline>
    <contour>
      <point x="436" y="274" type="curve" smooth="yes"/>
      <point x="473" y="274"/>
      <point x="522" y="305"/>
      <point x="549" y="329" type="curve"/>
      <point x="538" y="360" type="line"/>
      <point x="510" y="338"/>
      <point x="461" y="308"/>
      <point x="435" y="308" type="curve" smooth="yes"/>
      <point x="393" y="308"/>
      <point x="291" y="381"/>
      <point x="237" y="381" type="curve" smooth="yes"/>
      <point x="201" y="381"/>
      <point x="152" y="350"/>
      <point x="125" y="327" type="curve"/>
      <point x="136" y="295" type="line"/>
      <point x="164" y="317"/>
      <point x="212" y="347"/>
      <point x="238" y="347" type="curve" smooth="yes"/>
      <point x="280" y="347"/>
      <point x="382" y="274"/>
    </contour>
    <contour>
      <point x="436" y="112" type="curve" smooth="yes"/>
      <point x="473" y="112"/>
      <point x="522" y="143"/>
      <point x="549" y="167" type="curve"/>
      <point x="538" y="198" type="line"/>
      <point x="510" y="176"/>
      <point x="461" y="146"/>
      <point x="435" y="146" type="curve" smooth="yes"/>
      <point x="393" y="146"/>
      <point x="291" y="219"/>
      <point x="237" y="219" type="curve" smooth="yes"/>
      <point x="201" y="219"/>
      <point x="152" y="188"/>
      <point x="125" y="165" type="curve"/>
      <point x="136" y="133" type="line"/>
      <point x="164" y="155"/>
      <point x="212" y="185"/>
      <point x="238" y="185" type="curve" smooth="yes"/>
      <point x="280" y="185"/>
      <point x="382" y="112"/>
    </contour>
  </outline>
</glyph>
<glyph name="notequal" format="2">
  <advance width="560"/>
  <unicode hex="2260"/>
  <outline>
    <contour>
      <point x="233" y="-9" type="line"/>
      <point x="453" y="496" type="line"/>
      <point x="421" y="509" type="line"/>
      <point x="201" y="4" type="line"/>
    </contour>
    <component base="equal" xOffset="-1"/>
  </outline>
</glyph>
<glyph name="lessequal" format="2">
  <advance width="560"/>
  <unicode hex="2264"/>
  <outline>
    <contour>
      <point x="533" y="122" type="line"/>
      <point x="533" y="161" type="line"/>
      <point x="155" y="309" type="line"/>
      <point x="533" y="446" type="line"/>
      <point x="533" y="485" type="line"/>
      <point x="109" y="326" type="line"/>
      <point x="109" y="290" type="line"/>
    </contour>
    <contour>
      <point x="109" y="24" type="line"/>
      <point x="533" y="24" type="line"/>
      <point x="533" y="58" type="line"/>
      <point x="109" y="58" type="line"/>
    </contour>
  </outline>
</glyph>
<glyph name="greaterequal" format="2">
  <advance width="560"/>
  <unicode hex="2265"/>
  <outline>
    <contour>
      <point x="124" y="122" type="line"/>
      <point x="548" y="290" type="line"/>
      <point x="548" y="326" type="line"/>
      <point x="124" y="485" type="line"/>
      <point x="124" y="446" type="line"/>
      <point x="502" y="309" type="line"/>
      <point x="124" y="161" type="line"/>
    </contour>
    <contour>
      <point x="548" y="24" type="line"/>
      <point x="548" y="58" type="line"/>
      <point x="124" y="58" type="line"/>
      <point x="124" y="24" type="line"/>
    </contour>
  </outline>
</glyph>
<glyph name="commaaccent" format="2">
  <unicode hex="F6C3"/>
  <outline>
    <contour>
      <point x="-23" y="-265" type="line"/>
      <point x="3" y="-265" type="line"/>
      <point x="91" y="-73" type="line"/>
      <point x="57" y="-73" type="line"/>
    </contour>
  </outline>
</glyph>
<glyph name="tcheh-ar.fina" format="2">
  <advance width="609"/>
  <unicode hex="FB7B"/>
  <outline>
    <contour>
      <point x="567" y="0" type="line"/>
      <point x="667" y="0" type="line"/>
      <point x="659" y="34" type="line"/>
      <point x="559" y="34" type="line"/>
    </contour>
    <component base="tcheh-ar"/>
    <component base="connection_r" xOffset="559"/>
  </outline>
</glyph>
<glyph name="gaf-ar.init" format="2">
  <advance width="606"/>
  <unicode hex="FB94"/>
  <anchor x="332" y="-100" name="bottom"/>
  <anchor x="49" y="804" name="top"/>
  <outline>
    <contour>
      <point x="-30" y="510" type="curve"/>
      <point x="-1" y="477" type="line"/>
      <point x="28" y="583"/>
      <point x="38" y="614"/>
      <point x="84" y="725" type="curve"/>
      <point x="54" y="742" type="line"/>
      <point x="20" y="662"/>
      <point x="1" y="608"/>
    </contour>
    <component base="keheh-ar.init"/>
  </outline>
</glyph>
<glyph name="gaf-ar.medi" format="2">
  <advance width="626"/>
  <unicode hex="FB95"/>
  <anchor x="338" y="-100" name="bottom"/>
  <anchor x="39" y="827" name="top"/>
  <outline>
    <contour>
      <point x="-17" y="510" type="curve"/>
      <point x="12" y="477" type="line"/>
      <point x="41" y="583"/>
      <point x="51" y="614"/>
      <point x="97" y="725" type="curve"/>
      <point x="67" y="742" type="line"/>
      <point x="33" y="662"/>
      <point x="14" y="608"/>
    </contour>
    <component base="keheh-ar.medi"/>
  </outline>
</glyph>
<glyph name="yehbarree-ar.fina" format="2">
  <advance width="680"/>
  <unicode hex="FBAF"/>
  <anchor x="506" y="-310" name="bottom"/>
  <anchor x="130" y="160" name="top"/>
  <outline>
    <contour>
      <point x="375" y="-210" type="curve" smooth="yes"/>
      <point x="686" y="-210" type="line"/>
      <point x="678" y="-176" type="line"/>
      <point x="370" y="-176" type="line" smooth="yes"/>
      <point x="234" y="-176"/>
      <point x="164" y="-136"/>
      <point x="144" y="-47" type="curve" smooth="yes"/>
      <point x="132" y="6" type="line"/>
      <point x="123" y="0" type="line"/>
      <point x="738" y="0" type="line"/>
      <point x="730" y="34" type="line"/>
      <point x="131" y="34" type="line"/>
      <point x="97" y="4" type="line"/>
      <point x="109" y="-51" type="line" smooth="yes"/>
      <point x="135" y="-161"/>
      <point x="221" y="-210"/>
    </contour>
    <component base="connection_r" xOffset="630"/>
  </outline>
</glyph>
<glyph name="dotabove-ar" format="2">
  <advance width="75"/>
  <unicode hex="FBB2"/>
  <anchor x="-53" y="645" name="_top"/>
  <anchor x="-80" y="760" name="top"/>
  <outline>
    <contour>
      <point x="-71" y="645" type="line"/>
      <point x="-36" y="645" type="line"/>
      <point x="-49" y="700" type="line"/>
      <point x="-84" y="700" type="line"/>
    </contour>
  </outline>
</glyph>
<glyph name="threedotsupabove-ar" format="2">
  <advance width="166"/>
  <unicode hex="FBB6"/>
  <anchor x="-4" y="625" name="_top"/>
  <anchor x="-61" y="875" name="top"/>
  <outline>
    <contour>
      <point x="-43" y="720" type="line"/>
      <point x="-8" y="720" type="line"/>
      <point x="-20" y="775" type="line"/>
      <point x="-55" y="775" type="line"/>
    </contour>
    <component base="twodotshorizontalabove-ar" xOffset="16"/>
  </outline>
</glyph>
<glyph name="sad_alefMaksura-ar" format="2">
  <advance width="1532"/>
  <unicode hex="FD05"/>
  <anchor x="1254" y="-100" name="bottom_1"/>
  <anchor x="551" y="-300" name="bottom_2"/>
  <anchor x="824" y="0" name="caret_1"/>
  <anchor x="1098" y="573" name="top_1"/>
  <anchor x="92" y="266" name="top_2"/>
  <outline>
    <contour>
      <point x="536" y="466" type="line"/>
      <point x="832" y="466" type="line"/>
      <point x="824" y="500" type="line"/>
      <point x="535" y="500" type="line"/>
    </contour>
    <contour>
      <point x="940" y="0" type="line"/>
      <point x="975" y="0" type="line"/>
      <point x="859" y="500" type="line"/>
      <point x="824" y="500" type="line"/>
    </contour>
    <contour>
      <point x="975" y="0" type="line"/>
      <point x="1510" y="0" type="line"/>
      <point x="1454" y="243" type="line" smooth="yes"/>
      <point x="1428" y="355"/>
      <point x="1353" y="500"/>
      <point x="1164" y="500" type="curve" smooth="yes"/>
      <point x="997" y="500"/>
      <point x="942" y="387"/>
      <point x="883" y="284" type="curve"/>
      <point x="912" y="265" type="line"/>
      <point x="974" y="372"/>
      <point x="1024" y="466"/>
      <point x="1165" y="466" type="curve" smooth="yes"/>
      <point x="1299" y="466"/>
      <point x="1386" y="383"/>
      <point x="1419" y="239" type="curve" smooth="yes"/>
      <point x="1472" y="10" type="line"/>
      <point x="1491" y="34" type="line"/>
      <point x="967" y="34" type="line"/>
    </contour>
    <contour>
      <point x="417" y="-248" type="curve" smooth="yes"/>
      <point x="700" y="-248" type="line" smooth="yes"/>
      <point x="819" y="-248"/>
      <point x="875" y="-189"/>
      <point x="875" y="-78" type="curve" smooth="yes"/>
      <point x="875" y="-63"/>
      <point x="874" y="-37"/>
      <point x="868" y="-8" type="curve" smooth="yes"/>
      <point x="839" y="133"/>
      <point x="739" y="161"/>
      <point x="630" y="190" type="curve" smooth="yes"/>
      <point x="505" y="223"/>
      <point x="438" y="243"/>
      <point x="418" y="339" type="curve" smooth="yes"/>
      <point x="415" y="354"/>
      <point x="413" y="367"/>
      <point x="413" y="380" type="curve" smooth="yes"/>
      <point x="413" y="440"/>
      <point x="454" y="466"/>
      <point x="536" y="466" type="curve"/>
      <point x="535" y="500" type="line"/>
      <point x="432" y="500"/>
      <point x="379" y="461"/>
      <point x="379" y="383" type="curve" smooth="yes"/>
      <point x="379" y="368"/>
      <point x="381" y="351"/>
      <point x="385" y="333" type="curve" smooth="yes"/>
      <point x="413" y="206"/>
      <point x="507" y="188"/>
      <point x="624" y="156" type="curve" smooth="yes"/>
      <point x="742" y="124"/>
      <point x="811" y="99"/>
      <point x="833" y="-9" type="curve" smooth="yes"/>
      <point x="839" y="-38"/>
      <point x="840" y="-66"/>
      <point x="840" y="-80" type="curve" smooth="yes"/>
      <point x="840" y="-172"/>
      <point x="796" y="-214"/>
      <point x="695" y="-214" type="curve" smooth="yes"/>
      <point x="412" y="-214" type="line" smooth="yes"/>
      <point x="279" y="-214"/>
      <point x="170" y="-154"/>
      <point x="137" y="-11" type="curve" smooth="yes"/>
      <point x="128" y="27"/>
      <point x="124" y="75"/>
      <point x="116" y="183" type="curve"/>
      <point x="81" y="184" type="line"/>
      <point x="87" y="103"/>
      <point x="94" y="15"/>
      <point x="108" y="-37" type="curve" smooth="yes"/>
      <point x="147" y="-183"/>
      <point x="281" y="-248"/>
    </contour>
  </outline>
</glyph>
<glyph name="sad_reh-ar" format="2">
  <advance width="1029"/>
  <unicode hex="FD0F"/>
  <anchor x="751" y="-100" name="bottom_1"/>
  <anchor x="248" y="-350" name="bottom_2"/>
  <anchor x="315" y="0" name="caret_1"/>
  <anchor x="595" y="573" name="top_1"/>
  <anchor x="87" y="573" name="top_2"/>
  <outline>
    <contour>
      <point x="472" y="0" type="line"/>
      <point x="1007" y="0" type="line"/>
      <point x="951" y="243" type="line" smooth="yes"/>
      <point x="925" y="355"/>
      <point x="850" y="500"/>
      <point x="661" y="500" type="curve" smooth="yes"/>
      <point x="494" y="500"/>
      <point x="439" y="387"/>
      <point x="380" y="284" type="curve"/>
      <point x="409" y="265" type="line"/>
      <point x="471" y="372"/>
      <point x="521" y="466"/>
      <point x="662" y="466" type="curve" smooth="yes"/>
      <point x="796" y="466"/>
      <point x="883" y="383"/>
      <point x="916" y="239" type="curve" smooth="yes"/>
      <point x="969" y="10" type="line"/>
      <point x="988" y="34" type="line"/>
      <point x="464" y="34" type="line"/>
    </contour>
    <contour>
      <point x="144" y="397" type="line"/>
      <point x="345" y="397" type="line"/>
      <point x="337" y="431" type="line"/>
      <point x="136" y="431" type="line"/>
    </contour>
    <contour>
      <point x="437" y="0" type="line"/>
      <point x="472" y="0" type="line"/>
      <point x="356" y="500" type="line"/>
      <point x="321" y="500" type="line"/>
    </contour>
    <component base="reh-ar"/>
  </outline>
</glyph>
<glyph name="allah-ar" format="2">
  <advance width="1158"/>
  <unicode hex="FDF2"/>
  <anchor x="936" y="-100" name="bottom_1"/>
  <anchor x="722" y="-100" name="bottom_2"/>
  <anchor x="348" y="-100" name="bottom_3"/>
  <anchor x="347" y="0" name="caret_1"/>
  <anchor x="637" y="0" name="caret_2"/>
  <anchor x="926" y="0" name="caret_3"/>
  <anchor x="722" y="828" name="top_1"/>
  <anchor x="492" y="896" name="top_2"/>
  <anchor x="194" y="567" name="top_3"/>
  <outline>
    <contour>
      <point x="681" y="0" type="line"/>
      <point x="716" y="0" type="line"/>
      <point x="581" y="585" type="line"/>
      <point x="546" y="585" type="line"/>
    </contour>
    <contour>
      <point x="581" y="0" type="line"/>
      <point x="681" y="0" type="line"/>
      <point x="673" y="34" type="line"/>
      <point x="573" y="34" type="line"/>
    </contour>
    <contour>
      <point x="716" y="0" type="line"/>
      <point x="816" y="0" type="line"/>
      <point x="808" y="34" type="line"/>
      <point x="708" y="34" type="line"/>
    </contour>
    <component base="alef-ar" xOffset="923"/>
    <component base="heh-ar.fina"/>
    <component base="shaddaAlefabove-ar" xOffset="481" yOffset="190"/>
    <component base="lam-ar.init" xOffset="738"/>
  </outline>
</glyph>
<glyph name="hah-ar.fina" format="2">
  <advance width="609"/>
  <unicode hex="FEA2"/>
  <outline>
    <contour>
      <point x="567" y="0" type="line"/>
      <point x="667" y="0" type="line"/>
      <point x="659" y="34" type="line"/>
      <point x="559" y="34" type="line"/>
    </contour>
    <component base="hah-ar"/>
    <component base="connection_r" xOffset="559"/>
  </outline>
</glyph>
<glyph name="hah-ar.init" format="2">
  <advance width="543"/>
  <unicode hex="FEA3"/>
  <anchor x="327" y="-60" name="bottom"/>
  <anchor x="180" y="573" name="top"/>
  <outline>
    <contour>
      <point x="58" y="0" type="line"/>
      <point x="541" y="0" type="line"/>
      <point x="467" y="319" type="line" smooth="yes"/>
      <point x="439" y="439"/>
      <point x="346" y="500"/>
      <point x="200" y="500" type="curve" smooth="yes"/>
      <point x="132" y="500"/>
      <point x="61" y="487"/>
      <point x="12" y="475" type="curve"/>
      <point x="27" y="429" type="line"/>
      <point x="16" y="446" type="line"/>
      <point x="109" y="459"/>
      <point x="163" y="465"/>
      <point x="205" y="465" type="curve" smooth="yes"/>
      <point x="333" y="465"/>
      <point x="410" y="414"/>
      <point x="433" y="315" type="curve" smooth="yes"/>
      <point x="501" y="20" type="line"/>
      <point x="512" y="34" type="line"/>
      <point x="50" y="34" type="line"/>
    </contour>
    <component base="connection_l"/>
  </outline>
</glyph>
<glyph name="hah-ar.medi" format="2">
  <advance width="583"/>
  <unicode hex="FEA4"/>
  <outline>
    <contour>
      <point x="541" y="0" type="line"/>
      <point x="641" y="0" type="line"/>
      <point x="633" y="34" type="line"/>
      <point x="533" y="34" type="line"/>
    </contour>
    <component base="hah-ar.init"/>
    <component base="connection_r" xOffset="533"/>
  </outline>
</glyph>
<glyph name="seen-ar.init" format="2">
  <advance width="761"/>
  <unicode hex="FEB3"/>
  <anchor x="481" y="-100" name="bottom"/>
  <anchor x="325" y="573" name="top"/>
  <outline>
    <contour>
      <point x="540" y="0" type="curve" smooth="yes"/>
      <point x="739" y="0" type="line"/>
      <point x="674" y="280" type="line" smooth="yes"/>
      <point x="662" y="333"/>
      <point x="622" y="434"/>
      <point x="591" y="502" type="curve"/>
      <point x="559" y="491" type="line"/>
      <point x="596" y="409"/>
      <point x="630" y="318"/>
      <point x="640" y="276" type="curve" smooth="yes"/>
      <point x="703" y="0" type="line"/>
      <point x="730" y="34" type="line"/>
      <point x="535" y="34" type="line" smooth="yes"/>
      <point x="500" y="34"/>
      <point x="466" y="48"/>
      <point x="426" y="77" type="curve"/>
      <point x="408" y="50" type="line"/>
      <point x="455" y="14"/>
      <point x="499" y="0"/>
    </contour>
    <contour>
      <point x="58" y="0" type="line"/>
      <point x="213" y="0" type="line"/>
      <point x="109" y="450" type="line"/>
      <point x="74" y="450" type="line"/>
      <point x="173" y="20" type="line"/>
      <point x="184" y="34" type="line"/>
      <point x="50" y="34" type="line"/>
    </contour>
    <contour>
      <point x="213" y="0" type="line"/>
      <point x="347" y="0" type="line" smooth="yes"/>
      <point x="414" y="0"/>
      <point x="448" y="19"/>
      <point x="448" y="86" type="curve" smooth="yes"/>
      <point x="448" y="111"/>
      <point x="443" y="142"/>
      <point x="434" y="180" type="curve" smooth="yes"/>
      <point x="372" y="450" type="line"/>
      <point x="337" y="450" type="line"/>
      <point x="400" y="176" type="line" smooth="yes"/>
      <point x="409" y="138"/>
      <point x="414" y="110"/>
      <point x="414" y="89" type="curve" smooth="yes"/>
      <point x="414" y="44"/>
      <point x="392" y="34"/>
      <point x="342" y="34" type="curve" smooth="yes"/>
      <point x="205" y="34" type="line"/>
    </contour>
    <component base="connection_l"/>
  </outline>
</glyph>
<glyph name="seen-ar.medi" format="2">
  <advance width="781"/>
  <unicode hex="FEB4"/>
  <outline>
    <contour>
      <point x="739" y="0" type="line"/>
      <point x="839" y="0" type="line"/>
      <point x="831" y="34" type="line"/>
      <point x="731" y="34" type="line"/>
    </contour>
    <component base="seen-ar.init"/>
    <component base="connection_r" xOffset="731"/>
  </outline>
</glyph>
<glyph name="tah-ar.medi" format="2">
  <advance width="770"/>
  <unicode hex="FEC4"/>
  <outline>
    <contour>
      <point x="728" y="0" type="line"/>
      <point x="828" y="0" type="line"/>
      <point x="820" y="34" type="line"/>
      <point x="720" y="34" type="line"/>
    </contour>
    <component base="tah-ar.init"/>
    <component base="connection_r" xOffset="720"/>
  </outline>
</glyph>
<glyph name="ain-ar.fina" format="2">
  <advance width="604"/>
  <unicode hex="FECA"/>
  <anchor x="451" y="-400" name="bottom"/>
  <anchor x="226" y="573" name="top"/>
  <outline>
    <contour>
      <point x="380" y="-308" type="curve" smooth="yes"/>
      <point x="431" y="-308"/>
      <point x="486" y="-299"/>
      <point x="524" y="-290" type="curve"/>
      <point x="511" y="-257" type="line"/>
      <point x="449" y="-270"/>
      <point x="431" y="-274"/>
      <point x="375" y="-274" type="curve" smooth="yes"/>
      <point x="225" y="-274"/>
      <point x="158" y="-186"/>
      <point x="158" y="-104" type="curve" smooth="yes"/>
      <point x="158" y="-16"/>
      <point x="234" y="21"/>
      <point x="318" y="62" type="curve" smooth="yes"/>
      <point x="417" y="111"/>
      <point x="526" y="164"/>
      <point x="526" y="314" type="curve" smooth="yes"/>
      <point x="526" y="338"/>
      <point x="522" y="362"/>
      <point x="507" y="434" type="curve"/>
      <point x="410" y="479"/>
      <point x="326" y="500"/>
      <point x="247" y="500" type="curve" smooth="yes"/>
      <point x="164" y="500"/>
      <point x="89" y="477"/>
      <point x="13" y="432" type="curve"/>
      <point x="26" y="370" type="line" smooth="yes"/>
      <point x="55" y="235"/>
      <point x="295" y="0"/>
      <point x="555" y="0" type="curve" smooth="yes"/>
      <point x="662" y="0" type="line"/>
      <point x="654" y="34" type="line"/>
      <point x="550" y="34" type="line" smooth="yes"/>
      <point x="307" y="34"/>
      <point x="88" y="249"/>
      <point x="60" y="374" type="curve" smooth="yes"/>
      <point x="47" y="433" type="line"/>
      <point x="34" y="404" type="line"/>
      <point x="106" y="447"/>
      <point x="175" y="466"/>
      <point x="248" y="466" type="curve" smooth="yes"/>
      <point x="325" y="466"/>
      <point x="403" y="449"/>
      <point x="496" y="402" type="curve"/>
      <point x="471" y="433" type="line"/>
      <point x="484" y="368"/>
      <point x="491" y="344"/>
      <point x="491" y="316" type="curve" smooth="yes"/>
      <point x="491" y="186"/>
      <point x="393" y="137"/>
      <point x="298" y="91" type="curve" smooth="yes"/>
      <point x="210" y="47"/>
      <point x="124" y="5"/>
      <point x="124" y="-101" type="curve" smooth="yes"/>
      <point x="124" y="-204"/>
      <point x="205" y="-308"/>
    </contour>
    <component base="connection_r" xOffset="554"/>
  </outline>
</glyph>
<glyph name="ain-ar.init" format="2">
  <advance width="596"/>
  <unicode hex="FECB"/>
  <anchor x="411" y="-100" name="bottom"/>
  <anchor x="255" y="573" name="top"/>
  <outline>
    <contour>
      <point x="273" y="2" type="curve"/>
      <point x="291" y="30" type="line"/>
      <point x="183" y="107"/>
      <point x="137" y="212"/>
      <point x="137" y="295" type="curve" smooth="yes"/>
      <point x="137" y="397"/>
      <point x="206" y="466"/>
      <point x="314" y="466" type="curve" smooth="yes"/>
      <point x="353" y="466"/>
      <point x="397" y="457"/>
      <point x="436" y="444" type="curve"/>
      <point x="442" y="478" type="line"/>
      <point x="398" y="493"/>
      <point x="350" y="500"/>
      <point x="313" y="500" type="curve" smooth="yes"/>
      <point x="185" y="500"/>
      <point x="102" y="417"/>
      <point x="102" y="298" type="curve" smooth="yes"/>
      <point x="102" y="204"/>
      <point x="154" y="86"/>
    </contour>
    <contour>
      <point x="58" y="0" type="line"/>
      <point x="564" y="0" type="line"/>
      <point x="556" y="34" type="line"/>
      <point x="50" y="34" type="line"/>
    </contour>
    <component base="connection_l"/>
  </outline>
</glyph>
<glyph name="ain-ar.medi" format="2">
  <advance width="613"/>
  <unicode hex="FECC"/>
  <anchor x="391" y="-100" name="bottom"/>
  <anchor x="235" y="573" name="top"/>
  <outline>
    <contour>
      <point x="58" y="0" type="line"/>
      <point x="168" y="0" type="line" smooth="yes"/>
      <point x="403" y="0"/>
      <point x="533" y="192"/>
      <point x="533" y="329" type="curve" smooth="yes"/>
      <point x="533" y="346"/>
      <point x="531" y="360"/>
      <point x="528" y="374" type="curve" smooth="yes"/>
      <point x="516" y="434" type="line"/>
      <point x="419" y="479"/>
      <point x="335" y="500"/>
      <point x="256" y="500" type="curve" smooth="yes"/>
      <point x="173" y="500"/>
      <point x="98" y="477"/>
      <point x="22" y="432" type="curve"/>
      <point x="35" y="370" type="line" smooth="yes"/>
      <point x="64" y="235"/>
      <point x="304" y="0"/>
      <point x="564" y="0" type="curve" smooth="yes"/>
      <point x="671" y="0" type="line"/>
      <point x="663" y="34" type="line"/>
      <point x="559" y="34" type="line" smooth="yes"/>
      <point x="316" y="34"/>
      <point x="97" y="249"/>
      <point x="69" y="374" type="curve" smooth="yes"/>
      <point x="56" y="433" type="line"/>
      <point x="43" y="404" type="line"/>
      <point x="115" y="447"/>
      <point x="184" y="466"/>
      <point x="257" y="466" type="curve" smooth="yes"/>
      <point x="334" y="466"/>
      <point x="412" y="445"/>
      <point x="505" y="402" type="curve"/>
      <point x="480" y="433" type="line"/>
      <point x="494" y="370" type="line" smooth="yes"/>
      <point x="497" y="357"/>
      <point x="498" y="343"/>
      <point x="498" y="331" type="curve" smooth="yes"/>
      <point x="498" y="203"/>
      <point x="382" y="34"/>
      <point x="163" y="34" type="curve" smooth="yes"/>
      <point x="50" y="34" type="line"/>
    </contour>
    <component base="connection_l"/>
    <component base="connection_r" xOffset="563"/>
  </outline>
</glyph>
<glyph name="kaf-ar.init" format="2">
  <advance width="606"/>
  <unicode hex="FEDB"/>
  <anchor x="334" y="-100" name="bottom"/>
  <anchor x="86" y="763" name="top"/>
  <outline>
    <contour>
      <point x="58" y="0" type="line"/>
      <point x="584" y="0" type="line"/>
      <point x="534" y="215" type="line" smooth="yes"/>
      <point x="512" y="309"/>
      <point x="448" y="432"/>
      <point x="289" y="432" type="curve" smooth="yes"/>
      <point x="56" y="432" type="line"/>
      <point x="68" y="418" type="line"/>
      <point x="93" y="507" type="line" smooth="yes"/>
      <point x="107" y="553"/>
      <point x="121" y="592"/>
      <point x="163" y="688" type="curve"/>
      <point x="132" y="705" type="line"/>
      <point x="89" y="608"/>
      <point x="75" y="567"/>
      <point x="61" y="521" type="curve" smooth="yes"/>
      <point x="38" y="445" type="line"/>
      <point x="79" y="398" type="line"/>
      <point x="294" y="398" type="line" smooth="yes"/>
      <point x="399" y="398"/>
      <point x="472" y="330"/>
      <point x="500" y="211" type="curve" smooth="yes"/>
      <point x="544" y="20" type="line"/>
      <point x="555" y="34" type="line"/>
      <point x="50" y="34" type="line"/>
    </contour>
    <component base="connection_l"/>
  </outline>
</glyph>
<glyph name="meem-ar.fina" format="2">
  <advance width="608"/>
  <unicode hex="FEE2"/>
  <outline>
    <contour>
      <point x="564" y="0" type="line"/>
      <point x="666" y="0" type="line"/>
      <point x="658" y="34" type="line"/>
      <point x="556" y="34" type="line"/>
    </contour>
    <component base="meem-ar"/>
    <component base="connection_r" xOffset="558"/>
  </outline>
</glyph>
<glyph name="heh-ar.fina" format="2">
  <advance width="543"/>
  <unicode hex="FEEA"/>
  <anchor x="344" y="-100" name="bottom"/>
  <anchor x="188" y="573" name="top"/>
  <outline>
    <contour>
      <point x="319" y="0" type="curve" smooth="yes"/>
      <point x="601" y="0" type="line"/>
      <point x="593" y="34" type="line"/>
      <point x="314" y="34" type="line" smooth="yes"/>
      <point x="112" y="34"/>
      <point x="59" y="210"/>
      <point x="59" y="343" type="curve" smooth="yes"/>
      <point x="59" y="426"/>
      <point x="80" y="466"/>
      <point x="212" y="466" type="curve" smooth="yes"/>
      <point x="374" y="466" type="line"/>
      <point x="355" y="480" type="line"/>
      <point x="466" y="0" type="line"/>
      <point x="501" y="0" type="line"/>
      <point x="385" y="500" type="line"/>
      <point x="207" y="500" type="line" smooth="yes"/>
      <point x="54" y="500"/>
      <point x="25" y="442"/>
      <point x="25" y="344" type="curve" smooth="yes"/>
      <point x="25" y="208"/>
      <point x="81" y="0"/>
    </contour>
    <component base="connection_r" xOffset="493"/>
  </outline>
</glyph>
<glyph name="heh-ar.init" format="2">
  <advance width="780"/>
  <unicode hex="FEEB"/>
  <anchor x="455" y="-100" name="bottom"/>
  <anchor x="286" y="630" name="top"/>
  <outline>
    <contour>
      <point x="58" y="0" type="line"/>
      <point x="758" y="0" type="line"/>
      <point x="714" y="191" type="line" smooth="yes"/>
      <point x="655" y="447"/>
      <point x="478" y="523"/>
      <point x="313" y="523" type="curve" smooth="yes"/>
      <point x="213" y="523"/>
      <point x="114" y="495"/>
      <point x="90" y="488" type="curve"/>
      <point x="99" y="462" type="line"/>
      <point x="163" y="474"/>
      <point x="246" y="489"/>
      <point x="317" y="489" type="curve" smooth="yes"/>
      <point x="503" y="489"/>
      <point x="632" y="389"/>
      <point x="679" y="187" type="curve" smooth="yes"/>
      <point x="718" y="20" type="line"/>
      <point x="729" y="34" type="line"/>
      <point x="50" y="34" type="line"/>
    </contour>
    <contour>
      <point x="180" y="34" type="line"/>
      <point x="215" y="34" type="line"/>
      <point x="186" y="160" type="line" smooth="yes"/>
      <point x="184" y="170"/>
      <point x="183" y="179"/>
      <point x="183" y="188" type="curve" smooth="yes"/>
      <point x="183" y="244"/>
      <point x="224" y="283"/>
      <point x="285" y="283" type="curve" smooth="yes"/>
      <point x="360" y="283"/>
      <point x="432" y="225"/>
      <point x="448" y="156" type="curve" smooth="yes"/>
      <point x="476" y="34" type="line"/>
      <point x="511" y="34" type="line"/>
      <point x="482" y="160" type="line" smooth="yes"/>
      <point x="461" y="249"/>
      <point x="374" y="317"/>
      <point x="283" y="317" type="curve" smooth="yes"/>
      <point x="203" y="317"/>
      <point x="148" y="264"/>
      <point x="148" y="191" type="curve" smooth="yes"/>
      <point x="148" y="181"/>
      <point x="149" y="168"/>
      <point x="152" y="156" type="curve" smooth="yes"/>
    </contour>
    <component base="connection_l"/>
  </outline>
</glyph>
<glyph name="acute.cap.001" format="2">
  <advance width="490"/>
  <outline>
    <contour>
      <point x="342" y="798" type="line"/>
      <point x="547" y="890" type="line"/>
      <point x="538" y="919" type="line"/>
      <point x="334" y="823" type="line"/>
    </contour>
  </outline>
</glyph>
<glyph name="alefMaksura_noon-ar.fina" format="2">
  <advance width="890"/>
  <anchor x="845" y="-60" name="bottom_1"/>
  <anchor x="442" y="-330" name="bottom_2"/>
  <anchor x="375" y="0" name="caret_1"/>
  <anchor x="698" y="573" name="top_1"/>
  <anchor x="213" y="628" name="top_2"/>
  <outline>
    <contour>
      <point x="813" y="0" type="line"/>
      <point x="948" y="0" type="line"/>
      <point x="940" y="34" type="line"/>
      <point x="824" y="34" type="line"/>
      <point x="843" y="20" type="line"/>
      <point x="732" y="500" type="line"/>
      <point x="697" y="500" type="line"/>
    </contour>
    <contour>
      <point x="525" y="377" type="line"/>
      <point x="726" y="377" type="line"/>
      <point x="718" y="411" type="line"/>
      <point x="517" y="411" type="line"/>
    </contour>
    <component base="noon-ar"/>
    <component base="connection_r" xOffset="840"/>
  </outline>
</glyph>
<glyph name="alefMaksura_reh-ar.fina" format="2">
  <advance width="514"/>
  <anchor x="469" y="-60" name="bottom_1"/>
  <anchor x="248" y="-350" name="bottom_2"/>
  <anchor x="315" y="0" name="caret_1"/>
  <anchor x="322" y="573" name="top_1"/>
  <anchor x="87" y="573" name="top_2"/>
  <outline>
    <contour>
      <point x="437" y="0" type="line"/>
      <point x="572" y="0" type="line"/>
      <point x="564" y="34" type="line"/>
      <point x="448" y="34" type="line"/>
      <point x="467" y="20" type="line"/>
      <point x="356" y="500" type="line"/>
      <point x="321" y="500" type="line"/>
    </contour>
    <contour>
      <point x="143" y="397" type="line"/>
      <point x="346" y="397" type="line"/>
      <point x="338" y="431" type="line"/>
      <point x="135" y="431" type="line"/>
    </contour>
    <component base="reh-ar"/>
    <component base="connection_r" xOffset="464"/>
  </outline>
</glyph>
<glyph name="braceright.cap" format="2">
  <advance width="331"/>
  <outline>
    <contour>
      <point x="225" y="776" type="curve"/>
      <point x="215" y="740" type="line"/>
      <point x="290" y="740"/>
      <point x="324" y="713"/>
      <point x="324" y="657" type="curve" smooth="yes"/>
      <point x="324" y="596"/>
      <point x="274" y="471"/>
      <point x="274" y="429" type="curve" smooth="yes"/>
      <point x="274" y="377"/>
      <point x="304" y="354"/>
      <point x="338" y="342" type="curve"/>
      <point x="266" y="319"/>
      <point x="235" y="288"/>
      <point x="216" y="200" type="curve" smooth="yes"/>
      <point x="213" y="188"/>
      <point x="199" y="104"/>
      <point x="195" y="85" type="curve" smooth="yes"/>
      <point x="176" y="-7"/>
      <point x="134" y="-55"/>
      <point x="25" y="-60" type="curve"/>
      <point x="19" y="-96" type="line"/>
      <point x="133" y="-91"/>
      <point x="187" y="-44"/>
      <point x="220" y="57" type="curve" smooth="yes"/>
      <point x="231" y="90"/>
      <point x="244" y="173"/>
      <point x="248" y="192" type="curve" smooth="yes"/>
      <point x="263" y="268"/>
      <point x="285" y="301"/>
      <point x="377" y="326" type="curve"/>
      <point x="385" y="361" type="line"/>
      <point x="335" y="374"/>
      <point x="309" y="392"/>
      <point x="309" y="440" type="curve" smooth="yes"/>
      <point x="309" y="476"/>
      <point x="359" y="604"/>
      <point x="359" y="667" type="curve" smooth="yes"/>
      <point x="359" y="737"/>
      <point x="319" y="772"/>
    </contour>
  </outline>
</glyph>
<glyph name="circumflex.cap.001" format="2">
  <advance width="424"/>
  <outline>
    <contour>
      <point x="265" y="803" type="line"/>
      <point x="306" y="803" type="line"/>
      <point x="425" y="900" type="line"/>
      <point x="498" y="803" type="line"/>
      <point x="532" y="803" type="line"/>
      <point x="435" y="931" type="line"/>
      <point x="421" y="931" type="line"/>
    </contour>
  </outline>
</glyph>
<glyph name="dieresis.cap" format="2">
  <advance width="372"/>
  <outline>
    <contour>
      <point x="304" y="831" type="line"/>
      <point x="331" y="831" type="line"/>
      <point x="348" y="897" type="line"/>
      <point x="318" y="897" type="line"/>
    </contour>
    <contour>
      <point x="483" y="831" type="line"/>
      <point x="512" y="831" type="line"/>
      <point x="528" y="897" type="line"/>
      <point x="499" y="897" type="line"/>
    </contour>
  </outline>
</glyph>
<glyph name="fehDotless-ar.init" format="2">
  <advance width="591"/>
  <anchor x="412" y="-100" name="bottom"/>
  <anchor x="256" y="573" name="top"/>
  <outline>
    <contour>
      <point x="58" y="0" type="line"/>
      <point x="569" y="0" type="line"/>
      <point x="453" y="500" type="line"/>
      <point x="275" y="500" type="line" smooth="yes"/>
      <point x="144" y="500"/>
      <point x="93" y="455"/>
      <point x="93" y="359" type="curve" smooth="yes"/>
      <point x="93" y="202"/>
      <point x="149" y="0"/>
      <point x="387" y="0" type="curve"/>
      <point x="382" y="34" type="line"/>
      <point x="180" y="34"/>
      <point x="127" y="204"/>
      <point x="127" y="357" type="curve" smooth="yes"/>
      <point x="127" y="439"/>
      <point x="172" y="466"/>
      <point x="280" y="466" type="curve" smooth="yes"/>
      <point x="442" y="466" type="line"/>
      <point x="423" y="480" type="line"/>
      <point x="533" y="0" type="line"/>
      <point x="560" y="34" type="line"/>
      <point x="50" y="34" type="line"/>
    </contour>
    <component base="connection_l"/>
  </outline>
</glyph>
<glyph name="four-persian.urdu" format="2">
  <advance width="523"/>
  <outline>
    <contour>
      <point x="158" y="0" type="line"/>
      <point x="193" y="0" type="line"/>
      <point x="79" y="493" type="line" smooth="yes"/>
      <point x="76" y="507"/>
      <point x="74" y="521"/>
      <point x="74" y="534" type="curve" smooth="yes"/>
      <point x="74" y="571"/>
      <point x="87" y="600"/>
      <point x="116" y="600" type="curve" smooth="yes"/>
      <point x="155" y="600"/>
      <point x="196" y="548"/>
      <point x="213" y="513" type="curve"/>
      <point x="223" y="560"/>
      <point x="276" y="620"/>
      <point x="386" y="620" type="curve"/>
      <point x="381" y="654" type="line"/>
      <point x="299" y="654"/>
      <point x="231" y="620"/>
      <point x="198" y="569" type="curve"/>
      <point x="218" y="569" type="line"/>
      <point x="187" y="609"/>
      <point x="149" y="634"/>
      <point x="114" y="634" type="curve" smooth="yes"/>
      <point x="67" y="634"/>
      <point x="39" y="593"/>
      <point x="39" y="536" type="curve" smooth="yes"/>
      <point x="39" y="521"/>
      <point x="41" y="505"/>
      <point x="45" y="489" type="curve" smooth="yes"/>
    </contour>
  </outline>
</glyph>
<glyph name="hah-ar.fina.alt" format="2">
  <advance width="609"/>
  <outline>
    <contour>
      <point x="567" y="0" type="line"/>
      <point x="667" y="0" type="line"/>
      <point x="659" y="34" type="line"/>
      <point x="559" y="34" type="line"/>
    </contour>
    <component base="hah-ar.alt"/>
    <component base="connection_r" xOffset="559"/>
  </outline>
</glyph>
<glyph name="hyphen.cap" format="2">
  <advance width="382"/>
  <outline>
    <contour>
      <point x="134" y="282" type="line"/>
      <point x="377" y="282" type="line"/>
      <point x="386" y="317" type="line"/>
      <point x="142" y="317" type="line"/>
    </contour>
  </outline>
</glyph>
<glyph name="keheh-ar.001" format="2">
  <advance width="751"/>
  <anchor x="398" y="-100" name="bottom"/>
  <anchor x="262" y="730" name="top"/>
  <outline>
    <contour>
      <point x="337" y="0" type="curve" smooth="yes"/>
      <point x="671" y="0" type="line"/>
      <point x="671" y="213" type="line" smooth="yes"/>
      <point x="671" y="307"/>
      <point x="634" y="432"/>
      <point x="475" y="432" type="curve" smooth="yes"/>
      <point x="260" y="432" type="line"/>
      <point x="323" y="552"/>
      <point x="342" y="585"/>
      <point x="410" y="687" type="curve"/>
      <point x="381" y="706" type="line"/>
      <point x="314" y="606"/>
      <point x="295" y="573"/>
      <point x="228" y="446" type="curve"/>
      <point x="258" y="398" type="line"/>
      <point x="475" y="398" type="line" smooth="yes"/>
      <point x="580" y="398"/>
      <point x="636" y="332"/>
      <point x="636" y="213" type="curve" smooth="yes"/>
      <point x="636" y="34" type="line"/>
      <point x="337" y="34" type="line" smooth="yes"/>
      <point x="154" y="34"/>
      <point x="75" y="90"/>
      <point x="75" y="213" type="curve" smooth="yes"/>
      <point x="75" y="280"/>
      <point x="94" y="358"/>
      <point x="100" y="386" type="curve"/>
      <point x="66" y="392" type="line"/>
      <point x="60" y="367"/>
      <point x="40" y="281"/>
      <point x="40" y="213" type="curve" smooth="yes"/>
      <point x="40" y="67"/>
      <point x="138" y="0"/>
    </contour>
  </outline>
</glyph>
<glyph name="macron.cap" format="2">
  <advance width="424"/>
  <outline>
    <contour>
      <point x="273" y="835" type="line"/>
      <point x="543" y="835" type="line"/>
      <point x="550" y="861" type="line"/>
      <point x="278" y="861" type="line"/>
    </contour>
  </outline>
</glyph>
<glyph name="nine.pnum" format="2">
  <advance width="480"/>
  <outline>
    <contour>
      <point x="213" y="-10" type="curve" smooth="yes"/>
      <point x="409" y="-10"/>
      <point x="492" y="173"/>
      <point x="492" y="372" type="curve" smooth="yes"/>
      <point x="492" y="454"/>
      <point x="454" y="509"/>
      <point x="358" y="509" type="curve" smooth="yes"/>
      <point x="174" y="509"/>
      <point x="126" y="387"/>
      <point x="126" y="301" type="curve" smooth="yes"/>
      <point x="126" y="247"/>
      <point x="150" y="194"/>
      <point x="265" y="194" type="curve" smooth="yes"/>
      <point x="326" y="194"/>
      <point x="401" y="219"/>
      <point x="444" y="238" type="curve"/>
      <point x="415" y="101"/>
      <point x="320" y="22"/>
      <point x="221" y="22" type="curve" smooth="yes"/>
      <point x="174" y="22"/>
      <point x="117" y="30"/>
      <point x="86" y="36" type="curve"/>
      <point x="75" y="5" type="line"/>
      <point x="107" y="-1"/>
      <point x="166" y="-10"/>
    </contour>
    <contour>
      <point x="275" y="226" type="curve" smooth="yes"/>
      <point x="174" y="226"/>
      <point x="161" y="269"/>
      <point x="161" y="301" type="curve" smooth="yes"/>
      <point x="161" y="330"/>
      <point x="169" y="478"/>
      <point x="348" y="478" type="curve" smooth="yes"/>
      <point x="432" y="478"/>
      <point x="458" y="432"/>
      <point x="458" y="364" type="curve" smooth="yes"/>
      <point x="458" y="334"/>
      <point x="455" y="295"/>
      <point x="449" y="270" type="curve"/>
      <point x="405" y="251"/>
      <point x="327" y="226"/>
    </contour>
  </outline>
</glyph>
<glyph name="parenright.cap" format="2">
  <advance width="223"/>
  <outline>
    <contour>
      <point x="258" y="784" type="curve"/>
      <point x="225" y="784" type="line"/>
      <point x="231" y="748"/>
      <point x="239" y="663"/>
      <point x="239" y="559" type="curve" smooth="yes"/>
      <point x="239" y="331"/>
      <point x="114" y="56"/>
      <point x="19" y="-88" type="curve"/>
      <point x="54" y="-88" type="line"/>
      <point x="149" y="48"/>
      <point x="274" y="318"/>
      <point x="274" y="559" type="curve" smooth="yes"/>
      <point x="274" y="666"/>
      <point x="265" y="750"/>
    </contour>
  </outline>
</glyph>
<glyph name="qafDotless-ar.fina" format="2">
  <advance width="887"/>
  <outline>
    <contour>
      <point x="845" y="0" type="line"/>
      <point x="945" y="0" type="line"/>
      <point x="937" y="34" type="line"/>
      <point x="837" y="34" type="line"/>
    </contour>
    <component base="qafDotless-ar"/>
    <component base="connection_r" xOffset="837"/>
  </outline>
</glyph>
<glyph name="questiondown.cap" format="2">
  <advance width="402"/>
  <outline>
    <contour>
      <point x="374" y="512" type="curve"/>
      <point x="340" y="512" type="line"/>
      <point x="332" y="473" type="line" smooth="yes"/>
      <point x="325" y="437"/>
      <point x="299" y="399"/>
      <point x="244" y="354" type="curve" smooth="yes"/>
      <point x="108" y="243"/>
      <point x="71" y="208"/>
      <point x="71" y="105" type="curve" smooth="yes"/>
      <point x="71" y="22"/>
      <point x="138" y="-9"/>
      <point x="223" y="-9" type="curve" smooth="yes"/>
      <point x="270" y="-9"/>
      <point x="337" y="5"/>
      <point x="374" y="15" type="curve"/>
      <point x="374" y="47" type="line"/>
      <point x="335" y="38"/>
      <point x="268" y="25"/>
      <point x="229" y="25" type="curve" smooth="yes"/>
      <point x="156" y="25"/>
      <point x="109" y="48"/>
      <point x="109" y="105" type="curve" smooth="yes"/>
      <point x="109" y="193"/>
      <point x="144" y="229"/>
      <point x="262" y="325" type="curve" smooth="yes"/>
      <point x="324" y="375"/>
      <point x="358" y="418"/>
      <point x="368" y="469" type="curve" smooth="yes"/>
      <point x="371" y="484"/>
      <point x="373" y="503"/>
    </contour>
    <contour>
      <point x="408" y="699" type="line"/>
      <point x="372" y="699" type="line"/>
      <point x="354" y="617" type="line"/>
      <point x="391" y="617" type="line"/>
    </contour>
  </outline>
</glyph>
<glyph name="ring.cap" format="2">
  <advance width="300"/>
  <outline>
    <contour>
      <point x="320" y="729" type="curve" smooth="yes"/>
      <point x="380" y="729"/>
      <point x="415" y="765"/>
      <point x="428" y="817" type="curve" smooth="yes"/>
      <point x="443" y="879"/>
      <point x="414" y="906"/>
      <point x="363" y="906" type="curve" smooth="yes"/>
      <point x="310" y="906"/>
      <point x="271" y="876"/>
      <point x="255" y="817" type="curve" smooth="yes"/>
      <point x="240" y="764"/>
      <point x="265" y="729"/>
    </contour>
    <contour>
      <point x="327" y="758" type="curve" smooth="yes"/>
      <point x="285" y="758"/>
      <point x="274" y="785"/>
      <point x="281" y="817" type="curve"/>
      <point x="291" y="856"/>
      <point x="318" y="877"/>
      <point x="356" y="877" type="curve" smooth="yes"/>
      <point x="395" y="877"/>
      <point x="410" y="853"/>
      <point x="402" y="817" type="curve" smooth="yes"/>
      <point x="393" y="779"/>
      <point x="366" y="758"/>
    </contour>
  </outline>
</glyph>
<glyph name="seven-persian.urdu" format="2">
  <advance width="410"/>
  <outline>
    <contour>
      <point x="88" y="0" type="line"/>
      <point x="438" y="0" type="line"/>
      <point x="430" y="34" type="line"/>
      <point x="110" y="34" type="line"/>
      <point x="125" y="21" type="line"/>
      <point x="174" y="650" type="line"/>
      <point x="140" y="660" type="line"/>
    </contour>
  </outline>
</glyph>
<glyph name="six.pnum" format="2">
  <advance width="480"/>
  <outline>
    <contour>
      <point x="236" y="-10" type="curve" smooth="yes"/>
      <point x="420" y="-10"/>
      <point x="471" y="119"/>
      <point x="471" y="208" type="curve" smooth="yes"/>
      <point x="471" y="272"/>
      <point x="446" y="313"/>
      <point x="331" y="313" type="curve" smooth="yes"/>
      <point x="274" y="313"/>
      <point x="181" y="283"/>
      <point x="155" y="270" type="curve"/>
      <point x="193" y="417"/>
      <point x="279" y="477"/>
      <point x="373" y="477" type="curve" smooth="yes"/>
      <point x="420" y="477"/>
      <point x="477" y="469"/>
      <point x="508" y="463" type="curve"/>
      <point x="519" y="494" type="line"/>
      <point x="487" y="500"/>
      <point x="428" y="509"/>
      <point x="381" y="509" type="curve" smooth="yes"/>
      <point x="185" y="509"/>
      <point x="102" y="319"/>
      <point x="102" y="126" type="curve" smooth="yes"/>
      <point x="102" y="44"/>
      <point x="140" y="-10"/>
    </contour>
    <contour>
      <point x="246" y="21" type="curve" smooth="yes"/>
      <point x="162" y="21"/>
      <point x="137" y="67"/>
      <point x="137" y="135" type="curve" smooth="yes"/>
      <point x="137" y="165"/>
      <point x="144" y="212"/>
      <point x="149" y="237" type="curve"/>
      <point x="192" y="256"/>
      <point x="269" y="281"/>
      <point x="321" y="281" type="curve" smooth="yes"/>
      <point x="422" y="281"/>
      <point x="435" y="247"/>
      <point x="435" y="206" type="curve" smooth="yes"/>
      <point x="435" y="177"/>
      <point x="425" y="21"/>
    </contour>
  </outline>
</glyph>
<glyph name="three.pnum" format="2">
  <advance width="469"/>
  <outline>
    <contour>
      <point x="243" y="-9" type="curve" smooth="yes"/>
      <point x="392" y="-9"/>
      <point x="448" y="85"/>
      <point x="448" y="179" type="curve" smooth="yes"/>
      <point x="448" y="226"/>
      <point x="409" y="260"/>
      <point x="363" y="267" type="curve"/>
      <point x="396" y="268"/>
      <point x="495" y="302"/>
      <point x="495" y="426" type="curve" smooth="yes"/>
      <point x="495" y="478"/>
      <point x="455" y="509"/>
      <point x="360" y="509" type="curve" smooth="yes"/>
      <point x="360" y="509"/>
      <point x="284" y="509"/>
      <point x="183" y="491" type="curve"/>
      <point x="179" y="459" type="line"/>
      <point x="221" y="467"/>
      <point x="298" y="477"/>
      <point x="353" y="477" type="curve" smooth="yes"/>
      <point x="429" y="477"/>
      <point x="459" y="465"/>
      <point x="459" y="415" type="curve" smooth="yes"/>
      <point x="459" y="329"/>
      <point x="376" y="282"/>
      <point x="315" y="282" type="curve" smooth="yes"/>
      <point x="194" y="282" type="line"/>
      <point x="186" y="250" type="line"/>
      <point x="304" y="250" type="line" smooth="yes"/>
      <point x="337" y="250"/>
      <point x="412" y="242"/>
      <point x="412" y="172" type="curve" smooth="yes"/>
      <point x="412" y="102"/>
      <point x="371" y="23"/>
      <point x="245" y="23" type="curve" smooth="yes"/>
      <point x="186" y="23"/>
      <point x="110" y="33"/>
      <point x="69" y="41" type="curve"/>
      <point x="56" y="9" type="line"/>
      <point x="101" y="1"/>
      <point x="182" y="-9"/>
    </contour>
  </outline>
</glyph>
<glyph name="threedotsdowncenter-ar.alt" format="2">
  <advance width="166"/>
  <anchor x="4" y="257" name="_center"/>
  <outline>
    <contour>
      <point x="37" y="237" type="line"/>
      <point x="2" y="237" type="line"/>
      <point x="14" y="182" type="line"/>
      <point x="49" y="182" type="line"/>
    </contour>
    <contour>
      <point x="-30" y="332" type="line"/>
      <point x="-65" y="332" type="line"/>
      <point x="-52" y="277" type="line"/>
      <point x="-17" y="277" type="line"/>
    </contour>
    <contour>
      <point x="61" y="332" type="line"/>
      <point x="26" y="332" type="line"/>
      <point x="39" y="277" type="line"/>
      <point x="74" y="277" type="line"/>
    </contour>
  </outline>
</glyph>
